<?xml version="1.0" encoding="UTF-8" standalone="no"?>
<!DOCTYPE svg PUBLIC "-//W3C//DTD SVG 1.1//EN"
 "http://www.w3.org/Graphics/SVG/1.1/DTD/svg11.dtd">
<!-- Generated by graphviz version 12.2.1 (20241206.2353)
 -->
<!-- Title: G Pages: 1 -->
<svg width="2643pt" height="694pt"
 viewBox="0.00 0.00 2643.00 693.80" xmlns="http://www.w3.org/2000/svg" xmlns:xlink="http://www.w3.org/1999/xlink">
<g id="graph0" class="graph" transform="scale(1 1) rotate(0) translate(4 689.8)">
<title>G</title>
<polygon fill="#fdfeff" stroke="none" points="-4,4 -4,-689.8 2639,-689.8 2639,4 -4,4"/>
<!-- 049 -->
<g id="node1" class="node">
<title>049</title>
<polygon fill="#fee548" stroke="#34262b" points="2635,-652.8 2600.3,-652.8 2589.57,-685.8 2578.85,-652.8 2544.15,-652.8 2572.22,-632.4 2561.5,-599.4 2589.57,-619.8 2617.65,-599.4 2606.92,-632.4 2635,-652.8"/>
<text text-anchor="middle" x="2589.57" y="-634.88" font-family="Helvetica,sans-Serif" font-size="18.00" fill="#34262b">049</text>
<text text-anchor="middle" x="2534.4" y="-582.3" font-family="Helvetica,sans-Serif" font-size="18.00" fill="#34262b">35</text>
</g>
<!-- 093 -->
<g id="node2" class="node">
<title>093</title>
<ellipse fill="#ffc19c" stroke="#34262b" cx="744.15" cy="-194.6" rx="21.6" ry="21.6"/>
<text text-anchor="middle" x="744.15" y="-186.88" font-family="Helvetica,sans-Serif" font-size="18.00" fill="#34262b">093</text>
<text text-anchor="middle" x="712.8" y="-155.9" font-family="Helvetica,sans-Serif" font-size="18.00" fill="#34262b">10</text>
</g>
<!-- 033 -->
<g id="node10" class="node">
<title>033</title>
<ellipse fill="#ffc19c" stroke="#34262b" cx="823.35" cy="-194.6" rx="21.6" ry="21.6"/>
<text text-anchor="middle" x="823.35" y="-186.88" font-family="Helvetica,sans-Serif" font-size="18.00" fill="#34262b">033</text>
<text text-anchor="middle" x="792.75" y="-155.9" font-family="Helvetica,sans-Serif" font-size="18.00" fill="#34262b">11</text>
</g>
<!-- 093&#45;&gt;033 -->
<g id="edge10" class="edge">
<title>093&#45;&gt;033</title>
<path fill="none" stroke="#34262b" stroke-width="0.75" d="M766.25,-194.6C773.65,-194.6 782.14,-194.6 790.24,-194.6"/>
<polygon fill="#34262b" stroke="#34262b" stroke-width="0.75" points="790.15,-198.1 800.15,-194.6 790.15,-191.1 790.15,-198.1"/>
</g>
<!-- 004 -->
<g id="node3" class="node">
<title>004</title>
<ellipse fill="#ffc19c" stroke="#34262b" cx="2328.15" cy="-620.6" rx="21.6" ry="21.6"/>
<text text-anchor="middle" x="2328.15" y="-612.88" font-family="Helvetica,sans-Serif" font-size="18.00" fill="#34262b">004</text>
<text text-anchor="middle" x="2296.8" y="-581.9" font-family="Helvetica,sans-Serif" font-size="18.00" fill="#34262b">31</text>
</g>
<!-- 051 -->
<g id="node26" class="node">
<title>051</title>
<ellipse fill="#ffc19c" stroke="#34262b" cx="2407.35" cy="-642.6" rx="21.6" ry="21.6"/>
<text text-anchor="middle" x="2407.35" y="-634.88" font-family="Helvetica,sans-Serif" font-size="18.00" fill="#34262b">051</text>
<text text-anchor="middle" x="2376" y="-603.9" font-family="Helvetica,sans-Serif" font-size="18.00" fill="#34262b">32</text>
</g>
<!-- 004&#45;&gt;051 -->
<g id="edge36" class="edge">
<title>004&#45;&gt;051</title>
<path fill="none" stroke="#34262b" stroke-width="0.75" d="M2349.43,-626.38C2357.41,-628.65 2366.75,-631.31 2375.53,-633.82"/>
<polygon fill="#34262b" stroke="#34262b" stroke-width="0.75" points="2374.53,-637.17 2385.11,-636.55 2376.45,-630.44 2374.53,-637.17"/>
</g>
<!-- 66688187831573 -->
<g id="node65" class="node">
<title>66688187831573</title>
<ellipse fill="none" stroke="#34262b" cx="2407.35" cy="-599.6" rx="3.6" ry="3.6"/>
<text text-anchor="middle" x="2398.87" y="-578.9" font-family="Helvetica,sans-Serif" font-size="18.00" fill="#34262b">1</text>
</g>
<!-- 004&#45;&gt;66688187831573 -->
<g id="edge71" class="edge">
<title>004&#45;&gt;66688187831573</title>
<path fill="none" stroke="#34262b" stroke-width="0.75" d="M2349.43,-615.08C2368.38,-609.93 2394.98,-602.69 2403.56,-600.36"/>
</g>
<!-- 023 -->
<g id="node4" class="node">
<title>023</title>
<ellipse fill="#ffc19c" stroke="#34262b" cx="268.95" cy="-40.6" rx="21.6" ry="21.6"/>
<text text-anchor="middle" x="268.95" y="-32.88" font-family="Helvetica,sans-Serif" font-size="18.00" fill="#34262b">023</text>
<text text-anchor="middle" x="242.47" y="-1.9" font-family="Helvetica,sans-Serif" font-size="18.00" fill="#34262b">4</text>
</g>
<!-- 060 -->
<g id="node23" class="node">
<title>060</title>
<ellipse fill="#ffc19c" stroke="#34262b" cx="348.15" cy="-96.6" rx="21.6" ry="21.6"/>
<text text-anchor="middle" x="348.15" y="-88.88" font-family="Helvetica,sans-Serif" font-size="18.00" fill="#34262b">060</text>
<text text-anchor="middle" x="321.67" y="-57.9" font-family="Helvetica,sans-Serif" font-size="18.00" fill="#34262b">5</text>
</g>
<!-- 023&#45;&gt;060 -->
<g id="edge4" class="edge">
<title>023&#45;&gt;060</title>
<path fill="none" stroke="#34262b" stroke-width="0.75" d="M287.08,-53.03C297.08,-60.28 309.89,-69.57 321.11,-77.71"/>
<polygon fill="#34262b" stroke="#34262b" stroke-width="0.75" points="319,-80.5 329.15,-83.54 323.11,-74.84 319,-80.5"/>
</g>
<!-- 51507010066455 -->
<g id="node36" class="node">
<title>51507010066455</title>
<ellipse fill="none" stroke="#34262b" cx="348.15" cy="-53.6" rx="3.6" ry="3.6"/>
</g>
<!-- 023&#45;&gt;51507010066455 -->
<g id="edge42" class="edge">
<title>023&#45;&gt;51507010066455</title>
<path fill="none" stroke="#34262b" stroke-width="0.75" d="M290.64,-44.08C309.58,-47.27 335.9,-51.71 344.39,-53.14"/>
</g>
<!-- 48044556087693 -->
<g id="node37" class="node">
<title>48044556087693</title>
<ellipse fill="none" stroke="#34262b" cx="348.15" cy="-28.6" rx="3.6" ry="3.6"/>
<text text-anchor="middle" x="339.67" y="-7.9" font-family="Helvetica,sans-Serif" font-size="18.00" fill="#34262b">3</text>
</g>
<!-- 023&#45;&gt;48044556087693 -->
<g id="edge43" class="edge">
<title>023&#45;&gt;48044556087693</title>
<path fill="none" stroke="#34262b" stroke-width="0.75" d="M290.64,-37.38C309.58,-34.44 335.9,-30.35 344.39,-29.03"/>
</g>
<!-- 37598288701617 -->
<g id="node38" class="node">
<title>37598288701617</title>
<ellipse fill="none" stroke="#34262b" cx="348.15" cy="-3.6" rx="3.6" ry="3.6"/>
</g>
<!-- 023&#45;&gt;37598288701617 -->
<g id="edge44" class="edge">
<title>023&#45;&gt;37598288701617</title>
<path fill="none" stroke="#34262b" stroke-width="0.75" d="M289.03,-31.45C308.32,-22.21 336.44,-8.74 344.75,-4.75"/>
</g>
<!-- 080 -->
<g id="node5" class="node">
<title>080</title>
<ellipse fill="#ffc19c" stroke="#34262b" cx="1298.55" cy="-358.6" rx="21.6" ry="21.6"/>
<text text-anchor="middle" x="1298.55" y="-350.88" font-family="Helvetica,sans-Serif" font-size="18.00" fill="#34262b">080</text>
<text text-anchor="middle" x="1267.2" y="-319.9" font-family="Helvetica,sans-Serif" font-size="18.00" fill="#34262b">18</text>
</g>
<!-- 078 -->
<g id="node11" class="node">
<title>078</title>
<ellipse fill="#ffc19c" stroke="#34262b" cx="1377.75" cy="-401.6" rx="21.6" ry="21.6"/>
<text text-anchor="middle" x="1377.75" y="-393.88" font-family="Helvetica,sans-Serif" font-size="18.00" fill="#34262b">078</text>
<text text-anchor="middle" x="1346.4" y="-362.9" font-family="Helvetica,sans-Serif" font-size="18.00" fill="#34262b">19</text>
</g>
<!-- 080&#45;&gt;078 -->
<g id="edge22" class="edge">
<title>080&#45;&gt;078</title>
<path fill="none" stroke="#34262b" stroke-width="0.75" d="M1317.85,-368.79C1327.1,-373.95 1338.54,-380.32 1348.87,-386.07"/>
<polygon fill="#34262b" stroke="#34262b" stroke-width="0.75" points="1346.89,-388.97 1357.33,-390.78 1350.29,-382.86 1346.89,-388.97"/>
</g>
<!-- 29925361564672 -->
<g id="node52" class="node">
<title>29925361564672</title>
<ellipse fill="none" stroke="#34262b" cx="1377.75" cy="-358.6" rx="3.6" ry="3.6"/>
</g>
<!-- 080&#45;&gt;29925361564672 -->
<g id="edge58" class="edge">
<title>080&#45;&gt;29925361564672</title>
<path fill="none" stroke="#34262b" stroke-width="0.75" d="M1320.65,-358.6C1339.57,-358.6 1365.63,-358.6 1374.03,-358.6"/>
</g>
<!-- 18322049360738 -->
<g id="node53" class="node">
<title>18322049360738</title>
<ellipse fill="none" stroke="#34262b" cx="1377.75" cy="-333.6" rx="3.6" ry="3.6"/>
<text text-anchor="middle" x="1369.27" y="-312.9" font-family="Helvetica,sans-Serif" font-size="18.00" fill="#34262b">2</text>
</g>
<!-- 080&#45;&gt;18322049360738 -->
<g id="edge59" class="edge">
<title>080&#45;&gt;18322049360738</title>
<path fill="none" stroke="#34262b" stroke-width="0.75" d="M1319.43,-352.16C1338.37,-346.03 1365.25,-337.32 1373.93,-334.51"/>
</g>
<!-- 024 -->
<g id="node6" class="node">
<title>024</title>
<ellipse fill="#ffc19c" stroke="#34262b" cx="981.75" cy="-241.6" rx="21.6" ry="21.6"/>
<text text-anchor="middle" x="981.75" y="-233.88" font-family="Helvetica,sans-Serif" font-size="18.00" fill="#34262b">024</text>
<text text-anchor="middle" x="950.4" y="-202.9" font-family="Helvetica,sans-Serif" font-size="18.00" fill="#34262b">13</text>
</g>
<!-- 034 -->
<g id="node22" class="node">
<title>034</title>
<ellipse fill="#ffc19c" stroke="#34262b" cx="1060.95" cy="-297.6" rx="21.6" ry="21.6"/>
<text text-anchor="middle" x="1060.95" y="-289.88" font-family="Helvetica,sans-Serif" font-size="18.00" fill="#34262b">034</text>
<text text-anchor="middle" x="1029.6" y="-258.9" font-family="Helvetica,sans-Serif" font-size="18.00" fill="#34262b">14</text>
</g>
<!-- 024&#45;&gt;034 -->
<g id="edge14" class="edge">
<title>024&#45;&gt;034</title>
<path fill="none" stroke="#34262b" stroke-width="0.75" d="M1002.23,-249.78C1012.95,-256.58 1026.29,-266.17 1037.45,-275.08"/>
<polygon fill="#34262b" stroke="#34262b" stroke-width="0.75" points="1035.02,-277.61 1044.96,-281.28 1039.48,-272.21 1035.02,-277.61"/>
</g>
<!-- 024&#45;&gt;034 -->
<g id="edge15" class="edge">
<title>024&#45;&gt;034</title>
<path fill="none" stroke="#34262b" stroke-width="0.75" d="M996.91,-257.24C1006.6,-265.55 1019.77,-275.5 1031.57,-283.55"/>
<polygon fill="#34262b" stroke="#34262b" stroke-width="0.75" points="1029.42,-286.33 1039.7,-288.91 1033.28,-280.48 1029.42,-286.33"/>
</g>
<!-- 163024011428056 -->
<g id="node46" class="node">
<title>163024011428056</title>
<ellipse fill="none" stroke="#34262b" cx="1060.95" cy="-254.6" rx="3.6" ry="3.6"/>
</g>
<!-- 024&#45;&gt;163024011428056 -->
<g id="edge52" class="edge">
<title>024&#45;&gt;163024011428056</title>
<path fill="none" stroke="#34262b" stroke-width="0.75" d="M1003.44,-245.08C1022.38,-248.27 1048.7,-252.71 1057.19,-254.14"/>
</g>
<!-- 158940675065632 -->
<g id="node47" class="node">
<title>158940675065632</title>
<ellipse fill="none" stroke="#34262b" cx="1060.95" cy="-229.6" rx="3.6" ry="3.6"/>
</g>
<!-- 024&#45;&gt;158940675065632 -->
<g id="edge53" class="edge">
<title>024&#45;&gt;158940675065632</title>
<path fill="none" stroke="#34262b" stroke-width="0.75" d="M1003.44,-238.38C1022.38,-235.44 1048.7,-231.35 1057.19,-230.03"/>
</g>
<!-- 166516902594714 -->
<g id="node48" class="node">
<title>166516902594714</title>
<ellipse fill="none" stroke="#34262b" cx="1060.95" cy="-204.6" rx="3.6" ry="3.6"/>
<text text-anchor="middle" x="1052.47" y="-183.9" font-family="Helvetica,sans-Serif" font-size="18.00" fill="#34262b">4</text>
</g>
<!-- 024&#45;&gt;166516902594714 -->
<g id="edge54" class="edge">
<title>024&#45;&gt;166516902594714</title>
<path fill="none" stroke="#34262b" stroke-width="0.75" d="M1001.83,-232.45C1021.12,-223.21 1049.24,-209.74 1057.55,-205.75"/>
</g>
<!-- 165468115894776 -->
<g id="node49" class="node">
<title>165468115894776</title>
<ellipse fill="none" stroke="#34262b" cx="1060.95" cy="-179.6" rx="3.6" ry="3.6"/>
</g>
<!-- 024&#45;&gt;165468115894776 -->
<g id="edge55" class="edge">
<title>024&#45;&gt;165468115894776</title>
<path fill="none" stroke="#34262b" stroke-width="0.75" d="M997.92,-226.73C1008.94,-216.29 1024.47,-202.35 1039.35,-191.6 1045.39,-187.24 1053.12,-183.08 1057.18,-180.99"/>
</g>
<!-- 053 -->
<g id="node7" class="node">
<title>053</title>
<ellipse fill="#ffc19c" stroke="#34262b" cx="2486.55" cy="-642.6" rx="21.6" ry="21.6"/>
<text text-anchor="middle" x="2486.55" y="-634.88" font-family="Helvetica,sans-Serif" font-size="18.00" fill="#34262b">053</text>
<text text-anchor="middle" x="2455.2" y="-603.9" font-family="Helvetica,sans-Serif" font-size="18.00" fill="#34262b">34</text>
</g>
<!-- 053&#45;&gt;049 -->
<g id="edge41" class="edge">
<title>053&#45;&gt;049</title>
<path fill="none" stroke="#34262b" stroke-width="0.75" d="M2508.48,-642.6C2519.59,-642.6 2533.64,-642.6 2546.87,-642.6"/>
<polygon fill="#34262b" stroke="#34262b" stroke-width="0.75" points="2546.56,-646.1 2556.56,-642.6 2546.56,-639.1 2546.56,-646.1"/>
</g>
<!-- 075 -->
<g id="node8" class="node">
<title>075</title>
<ellipse fill="#ffc19c" stroke="#34262b" cx="1219.35" cy="-358.6" rx="21.6" ry="21.6"/>
<text text-anchor="middle" x="1219.35" y="-350.88" font-family="Helvetica,sans-Serif" font-size="18.00" fill="#34262b">075</text>
<text text-anchor="middle" x="1188" y="-319.9" font-family="Helvetica,sans-Serif" font-size="18.00" fill="#34262b">16</text>
</g>
<!-- 075&#45;&gt;080 -->
<g id="edge20" class="edge">
<title>075&#45;&gt;080</title>
<path fill="none" stroke="#34262b" stroke-width="0.75" d="M1241.45,-358.6C1248.85,-358.6 1257.34,-358.6 1265.44,-358.6"/>
<polygon fill="#34262b" stroke="#34262b" stroke-width="0.75" points="1265.35,-362.1 1275.35,-358.6 1265.35,-355.1 1265.35,-362.1"/>
</g>
<!-- 002 -->
<g id="node9" class="node">
<title>002</title>
<ellipse fill="#ffc19c" stroke="#34262b" cx="110.55" cy="-40.6" rx="21.6" ry="21.6"/>
<text text-anchor="middle" x="110.55" y="-32.88" font-family="Helvetica,sans-Serif" font-size="18.00" fill="#34262b">002</text>
<text text-anchor="middle" x="84.07" y="-1.9" font-family="Helvetica,sans-Serif" font-size="18.00" fill="#34262b">2</text>
</g>
<!-- 048 -->
<g id="node32" class="node">
<title>048</title>
<ellipse fill="#ffc19c" stroke="#34262b" cx="189.75" cy="-40.6" rx="21.6" ry="21.6"/>
<text text-anchor="middle" x="189.75" y="-32.88" font-family="Helvetica,sans-Serif" font-size="18.00" fill="#34262b">048</text>
<text text-anchor="middle" x="163.27" y="-1.9" font-family="Helvetica,sans-Serif" font-size="18.00" fill="#34262b">3</text>
</g>
<!-- 002&#45;&gt;048 -->
<g id="edge2" class="edge">
<title>002&#45;&gt;048</title>
<path fill="none" stroke="#34262b" stroke-width="0.75" d="M132.65,-40.6C140.05,-40.6 148.54,-40.6 156.64,-40.6"/>
<polygon fill="#34262b" stroke="#34262b" stroke-width="0.75" points="156.55,-44.1 166.55,-40.6 156.55,-37.1 156.55,-44.1"/>
</g>
<!-- 033&#45;&gt;024 -->
<g id="edge11" class="edge">
<title>033&#45;&gt;024</title>
<path fill="none" stroke="#34262b" stroke-width="0.75" d="M836.81,-211.81C847.05,-224.38 862.8,-240.43 880.95,-247.6 902.91,-256.28 929.72,-254.04 950.02,-250.03"/>
<polygon fill="#34262b" stroke="#34262b" stroke-width="0.75" points="950.74,-253.46 959.73,-247.86 949.21,-246.63 950.74,-253.46"/>
</g>
<!-- 025 -->
<g id="node13" class="node">
<title>025</title>
<ellipse fill="#ffc19c" stroke="#34262b" cx="902.55" cy="-216.6" rx="21.6" ry="21.6"/>
<text text-anchor="middle" x="902.55" y="-208.88" font-family="Helvetica,sans-Serif" font-size="18.00" fill="#34262b">025</text>
<text text-anchor="middle" x="871.2" y="-177.9" font-family="Helvetica,sans-Serif" font-size="18.00" fill="#34262b">12</text>
</g>
<!-- 033&#45;&gt;025 -->
<g id="edge12" class="edge">
<title>033&#45;&gt;025</title>
<path fill="none" stroke="#34262b" stroke-width="0.75" d="M844.63,-200.38C852.61,-202.65 861.95,-205.31 870.73,-207.82"/>
<polygon fill="#34262b" stroke="#34262b" stroke-width="0.75" points="869.73,-211.17 880.31,-210.55 871.65,-204.44 869.73,-211.17"/>
</g>
<!-- 138282073330312 -->
<g id="node44" class="node">
<title>138282073330312</title>
<ellipse fill="none" stroke="#34262b" cx="902.55" cy="-173.6" rx="3.6" ry="3.6"/>
</g>
<!-- 033&#45;&gt;138282073330312 -->
<g id="edge50" class="edge">
<title>033&#45;&gt;138282073330312</title>
<path fill="none" stroke="#34262b" stroke-width="0.75" d="M844.63,-189.08C863.58,-183.93 890.18,-176.69 898.76,-174.36"/>
</g>
<!-- 138996212731035 -->
<g id="node45" class="node">
<title>138996212731035</title>
<ellipse fill="none" stroke="#34262b" cx="902.55" cy="-148.6" rx="3.6" ry="3.6"/>
<text text-anchor="middle" x="894.07" y="-127.9" font-family="Helvetica,sans-Serif" font-size="18.00" fill="#34262b">2</text>
</g>
<!-- 033&#45;&gt;138996212731035 -->
<g id="edge51" class="edge">
<title>033&#45;&gt;138996212731035</title>
<path fill="none" stroke="#34262b" stroke-width="0.75" d="M842.41,-183.67C853.51,-176.97 868.03,-168.25 880.95,-160.6 887.36,-156.81 894.94,-152.42 898.88,-150.14"/>
</g>
<!-- 010 -->
<g id="node27" class="node">
<title>010</title>
<ellipse fill="#ffc19c" stroke="#34262b" cx="1456.95" cy="-456.6" rx="21.6" ry="21.6"/>
<text text-anchor="middle" x="1456.95" y="-448.88" font-family="Helvetica,sans-Serif" font-size="18.00" fill="#34262b">010</text>
<text text-anchor="middle" x="1425.6" y="-417.9" font-family="Helvetica,sans-Serif" font-size="18.00" fill="#34262b">20</text>
</g>
<!-- 078&#45;&gt;010 -->
<g id="edge23" class="edge">
<title>078&#45;&gt;010</title>
<path fill="none" stroke="#34262b" stroke-width="0.75" d="M1395.88,-413.81C1405.88,-420.93 1418.69,-430.05 1429.91,-438.05"/>
<polygon fill="#34262b" stroke="#34262b" stroke-width="0.75" points="1427.76,-440.82 1437.94,-443.77 1431.83,-435.12 1427.76,-440.82"/>
</g>
<!-- 30928237956437 -->
<g id="node54" class="node">
<title>30928237956437</title>
<ellipse fill="none" stroke="#34262b" cx="1456.95" cy="-413.6" rx="3.6" ry="3.6"/>
</g>
<!-- 078&#45;&gt;30928237956437 -->
<g id="edge60" class="edge">
<title>078&#45;&gt;30928237956437</title>
<path fill="none" stroke="#34262b" stroke-width="0.75" d="M1399.44,-404.82C1418.38,-407.76 1444.7,-411.85 1453.19,-413.17"/>
</g>
<!-- 30928237956025 -->
<g id="node55" class="node">
<title>30928237956025</title>
<ellipse fill="none" stroke="#34262b" cx="1456.95" cy="-388.6" rx="3.6" ry="3.6"/>
<text text-anchor="middle" x="1448.47" y="-367.9" font-family="Helvetica,sans-Serif" font-size="18.00" fill="#34262b">3</text>
</g>
<!-- 078&#45;&gt;30928237956025 -->
<g id="edge61" class="edge">
<title>078&#45;&gt;30928237956025</title>
<path fill="none" stroke="#34262b" stroke-width="0.75" d="M1399.44,-398.12C1418.38,-394.93 1444.7,-390.49 1453.19,-389.06"/>
</g>
<!-- 30928237956875 -->
<g id="node56" class="node">
<title>30928237956875</title>
<ellipse fill="none" stroke="#34262b" cx="1456.95" cy="-363.6" rx="3.6" ry="3.6"/>
</g>
<!-- 078&#45;&gt;30928237956875 -->
<g id="edge62" class="edge">
<title>078&#45;&gt;30928237956875</title>
<path fill="none" stroke="#34262b" stroke-width="0.75" d="M1397.44,-392.4C1416.72,-382.91 1445.12,-368.93 1453.52,-364.79"/>
</g>
<!-- 052 -->
<g id="node12" class="node">
<title>052</title>
<ellipse fill="#ffc19c" stroke="#34262b" cx="2486.55" cy="-581.6" rx="21.6" ry="21.6"/>
<text text-anchor="middle" x="2486.55" y="-573.88" font-family="Helvetica,sans-Serif" font-size="18.00" fill="#34262b">052</text>
<text text-anchor="middle" x="2455.2" y="-542.9" font-family="Helvetica,sans-Serif" font-size="18.00" fill="#34262b">33</text>
</g>
<!-- 052&#45;&gt;049 -->
<g id="edge40" class="edge">
<title>052&#45;&gt;049</title>
<path fill="none" stroke="#34262b" stroke-width="0.75" d="M2505.61,-592.51C2521.41,-602.05 2544.56,-616.03 2562.4,-626.79"/>
<polygon fill="#34262b" stroke="#34262b" stroke-width="0.75" points="2560.34,-629.64 2570.7,-631.81 2563.95,-623.65 2560.34,-629.64"/>
</g>
<!-- 025&#45;&gt;024 -->
<g id="edge13" class="edge">
<title>025&#45;&gt;024</title>
<path fill="none" stroke="#34262b" stroke-width="0.75" d="M923.43,-223.04C931.56,-225.67 941.15,-228.78 950.14,-231.69"/>
<polygon fill="#34262b" stroke="#34262b" stroke-width="0.75" points="949,-235 959.59,-234.75 951.15,-228.34 949,-235"/>
</g>
<!-- 099 -->
<g id="node14" class="node">
<title>099</title>
<ellipse fill="#ffc19c" stroke="#34262b" cx="585.75" cy="-173.6" rx="21.6" ry="21.6"/>
<text text-anchor="middle" x="585.75" y="-165.88" font-family="Helvetica,sans-Serif" font-size="18.00" fill="#34262b">099</text>
<text text-anchor="middle" x="559.27" y="-134.9" font-family="Helvetica,sans-Serif" font-size="18.00" fill="#34262b">8</text>
</g>
<!-- 073 -->
<g id="node30" class="node">
<title>073</title>
<ellipse fill="#ffc19c" stroke="#34262b" cx="664.95" cy="-194.6" rx="21.6" ry="21.6"/>
<text text-anchor="middle" x="664.95" y="-186.88" font-family="Helvetica,sans-Serif" font-size="18.00" fill="#34262b">073</text>
<text text-anchor="middle" x="638.47" y="-155.9" font-family="Helvetica,sans-Serif" font-size="18.00" fill="#34262b">9</text>
</g>
<!-- 099&#45;&gt;073 -->
<g id="edge8" class="edge">
<title>099&#45;&gt;073</title>
<path fill="none" stroke="#34262b" stroke-width="0.75" d="M607.03,-179.12C615.01,-181.29 624.35,-183.83 633.13,-186.22"/>
<polygon fill="#34262b" stroke="#34262b" stroke-width="0.75" points="632.14,-189.57 642.71,-188.82 633.98,-182.82 632.14,-189.57"/>
</g>
<!-- 14736651824382 -->
<g id="node43" class="node">
<title>14736651824382</title>
<ellipse fill="none" stroke="#34262b" cx="664.95" cy="-151.6" rx="3.6" ry="3.6"/>
<text text-anchor="middle" x="656.47" y="-130.9" font-family="Helvetica,sans-Serif" font-size="18.00" fill="#34262b">1</text>
</g>
<!-- 099&#45;&gt;14736651824382 -->
<g id="edge49" class="edge">
<title>099&#45;&gt;14736651824382</title>
<path fill="none" stroke="#34262b" stroke-width="0.75" d="M607.03,-167.82C625.98,-162.42 652.58,-154.84 661.16,-152.39"/>
</g>
<!-- 076 -->
<g id="node15" class="node">
<title>076</title>
<ellipse fill="#ffc19c" stroke="#34262b" cx="1219.35" cy="-297.6" rx="21.6" ry="21.6"/>
<text text-anchor="middle" x="1219.35" y="-289.88" font-family="Helvetica,sans-Serif" font-size="18.00" fill="#34262b">076</text>
<text text-anchor="middle" x="1188" y="-258.9" font-family="Helvetica,sans-Serif" font-size="18.00" fill="#34262b">17</text>
</g>
<!-- 076&#45;&gt;080 -->
<g id="edge21" class="edge">
<title>076&#45;&gt;080</title>
<path fill="none" stroke="#34262b" stroke-width="0.75" d="M1236.72,-310.54C1247.09,-318.73 1260.71,-329.49 1272.43,-338.75"/>
<polygon fill="#34262b" stroke="#34262b" stroke-width="0.75" points="1270.03,-341.31 1280.04,-344.77 1274.37,-335.82 1270.03,-341.31"/>
</g>
<!-- 032 -->
<g id="node16" class="node">
<title>032</title>
<ellipse fill="#ffc19c" stroke="#34262b" cx="1852.95" cy="-499.6" rx="21.6" ry="21.6"/>
<text text-anchor="middle" x="1852.95" y="-491.88" font-family="Helvetica,sans-Serif" font-size="18.00" fill="#34262b">032</text>
<text text-anchor="middle" x="1821.6" y="-460.9" font-family="Helvetica,sans-Serif" font-size="18.00" fill="#34262b">25</text>
</g>
<!-- 036 -->
<g id="node20" class="node">
<title>036</title>
<ellipse fill="#ffc19c" stroke="#34262b" cx="1932.15" cy="-555.6" rx="21.6" ry="21.6"/>
<text text-anchor="middle" x="1932.15" y="-547.88" font-family="Helvetica,sans-Serif" font-size="18.00" fill="#34262b">036</text>
<text text-anchor="middle" x="1900.8" y="-516.9" font-family="Helvetica,sans-Serif" font-size="18.00" fill="#34262b">26</text>
</g>
<!-- 032&#45;&gt;036 -->
<g id="edge30" class="edge">
<title>032&#45;&gt;036</title>
<path fill="none" stroke="#34262b" stroke-width="0.75" d="M1871.08,-512.03C1881.08,-519.28 1893.89,-528.57 1905.11,-536.71"/>
<polygon fill="#34262b" stroke="#34262b" stroke-width="0.75" points="1903,-539.5 1913.15,-542.54 1907.11,-533.84 1903,-539.5"/>
</g>
<!-- 48641777669212 -->
<g id="node59" class="node">
<title>48641777669212</title>
<ellipse fill="none" stroke="#34262b" cx="1932.15" cy="-512.6" rx="3.6" ry="3.6"/>
</g>
<!-- 032&#45;&gt;48641777669212 -->
<g id="edge65" class="edge">
<title>032&#45;&gt;48641777669212</title>
<path fill="none" stroke="#34262b" stroke-width="0.75" d="M1874.64,-503.08C1893.58,-506.27 1919.9,-510.71 1928.39,-512.14"/>
</g>
<!-- 38837902977585 -->
<g id="node60" class="node">
<title>38837902977585</title>
<ellipse fill="none" stroke="#34262b" cx="1932.15" cy="-487.6" rx="3.6" ry="3.6"/>
<text text-anchor="middle" x="1923.67" y="-466.9" font-family="Helvetica,sans-Serif" font-size="18.00" fill="#34262b">3</text>
</g>
<!-- 032&#45;&gt;38837902977585 -->
<g id="edge66" class="edge">
<title>032&#45;&gt;38837902977585</title>
<path fill="none" stroke="#34262b" stroke-width="0.75" d="M1874.64,-496.38C1893.58,-493.44 1919.9,-489.35 1928.39,-488.03"/>
</g>
<!-- 37919585688127 -->
<g id="node61" class="node">
<title>37919585688127</title>
<ellipse fill="none" stroke="#34262b" cx="1932.15" cy="-462.6" rx="3.6" ry="3.6"/>
</g>
<!-- 032&#45;&gt;37919585688127 -->
<g id="edge67" class="edge">
<title>032&#45;&gt;37919585688127</title>
<path fill="none" stroke="#34262b" stroke-width="0.75" d="M1873.03,-490.45C1892.32,-481.21 1920.44,-467.74 1928.75,-463.75"/>
</g>
<!-- 090 -->
<g id="node17" class="node">
<title>090</title>
<ellipse fill="#ffc19c" stroke="#34262b" cx="506.55" cy="-152.6" rx="21.6" ry="21.6"/>
<text text-anchor="middle" x="506.55" y="-144.88" font-family="Helvetica,sans-Serif" font-size="18.00" fill="#34262b">090</text>
<text text-anchor="middle" x="480.07" y="-113.9" font-family="Helvetica,sans-Serif" font-size="18.00" fill="#34262b">7</text>
</g>
<!-- 090&#45;&gt;099 -->
<g id="edge7" class="edge">
<title>090&#45;&gt;099</title>
<path fill="none" stroke="#34262b" stroke-width="0.75" d="M527.83,-158.12C535.81,-160.29 545.15,-162.83 553.93,-165.22"/>
<polygon fill="#34262b" stroke="#34262b" stroke-width="0.75" points="552.94,-168.57 563.51,-167.82 554.78,-161.82 552.94,-168.57"/>
</g>
<!-- 29469479875314 -->
<g id="node42" class="node">
<title>29469479875314</title>
<ellipse fill="none" stroke="#34262b" cx="585.75" cy="-130.6" rx="3.6" ry="3.6"/>
</g>
<!-- 090&#45;&gt;29469479875314 -->
<g id="edge48" class="edge">
<title>090&#45;&gt;29469479875314</title>
<path fill="none" stroke="#34262b" stroke-width="0.75" d="M527.83,-146.82C546.78,-141.42 573.38,-133.84 581.96,-131.39"/>
</g>
<!-- 086 -->
<g id="node18" class="node">
<title>086</title>
<ellipse fill="#ffc19c" stroke="#34262b" cx="1536.15" cy="-456.6" rx="21.6" ry="21.6"/>
<text text-anchor="middle" x="1536.15" y="-448.88" font-family="Helvetica,sans-Serif" font-size="18.00" fill="#34262b">086</text>
<text text-anchor="middle" x="1504.8" y="-417.9" font-family="Helvetica,sans-Serif" font-size="18.00" fill="#34262b">21</text>
</g>
<!-- 029 -->
<g id="node29" class="node">
<title>029</title>
<ellipse fill="#ffc19c" stroke="#34262b" cx="1615.35" cy="-456.6" rx="21.6" ry="21.6"/>
<text text-anchor="middle" x="1615.35" y="-448.88" font-family="Helvetica,sans-Serif" font-size="18.00" fill="#34262b">029</text>
<text text-anchor="middle" x="1584" y="-417.9" font-family="Helvetica,sans-Serif" font-size="18.00" fill="#34262b">22</text>
</g>
<!-- 086&#45;&gt;029 -->
<g id="edge25" class="edge">
<title>086&#45;&gt;029</title>
<path fill="none" stroke="#34262b" stroke-width="0.75" d="M1558.25,-456.6C1565.65,-456.6 1574.14,-456.6 1582.24,-456.6"/>
<polygon fill="#34262b" stroke="#34262b" stroke-width="0.75" points="1582.15,-460.1 1592.15,-456.6 1582.15,-453.1 1582.15,-460.1"/>
</g>
<!-- 069 -->
<g id="node19" class="node">
<title>069</title>
<ellipse fill="#ffc19c" stroke="#34262b" cx="427.35" cy="-96.6" rx="21.6" ry="21.6"/>
<text text-anchor="middle" x="427.35" y="-88.88" font-family="Helvetica,sans-Serif" font-size="18.00" fill="#34262b">069</text>
<text text-anchor="middle" x="400.87" y="-57.9" font-family="Helvetica,sans-Serif" font-size="18.00" fill="#34262b">6</text>
</g>
<!-- 069&#45;&gt;090 -->
<g id="edge6" class="edge">
<title>069&#45;&gt;090</title>
<path fill="none" stroke="#34262b" stroke-width="0.75" d="M445.48,-109.03C455.48,-116.28 468.29,-125.57 479.51,-133.71"/>
<polygon fill="#34262b" stroke="#34262b" stroke-width="0.75" points="477.4,-136.5 487.55,-139.54 481.51,-130.84 477.4,-136.5"/>
</g>
<!-- 70761173541257 -->
<g id="node39" class="node">
<title>70761173541257</title>
<ellipse fill="none" stroke="#34262b" cx="506.55" cy="-109.6" rx="3.6" ry="3.6"/>
</g>
<!-- 069&#45;&gt;70761173541257 -->
<g id="edge45" class="edge">
<title>069&#45;&gt;70761173541257</title>
<path fill="none" stroke="#34262b" stroke-width="0.75" d="M449.04,-100.08C467.98,-103.27 494.3,-107.71 502.79,-109.14"/>
</g>
<!-- 77405320603816 -->
<g id="node40" class="node">
<title>77405320603816</title>
<ellipse fill="none" stroke="#34262b" cx="506.55" cy="-84.6" rx="3.6" ry="3.6"/>
<text text-anchor="middle" x="498.07" y="-63.9" font-family="Helvetica,sans-Serif" font-size="18.00" fill="#34262b">3</text>
</g>
<!-- 069&#45;&gt;77405320603816 -->
<g id="edge46" class="edge">
<title>069&#45;&gt;77405320603816</title>
<path fill="none" stroke="#34262b" stroke-width="0.75" d="M449.04,-93.38C467.98,-90.44 494.3,-86.35 502.79,-85.03"/>
</g>
<!-- 73618022250895 -->
<g id="node41" class="node">
<title>73618022250895</title>
<ellipse fill="none" stroke="#34262b" cx="506.55" cy="-59.6" rx="3.6" ry="3.6"/>
</g>
<!-- 069&#45;&gt;73618022250895 -->
<g id="edge47" class="edge">
<title>069&#45;&gt;73618022250895</title>
<path fill="none" stroke="#34262b" stroke-width="0.75" d="M447.43,-87.45C466.72,-78.21 494.84,-64.74 503.15,-60.75"/>
</g>
<!-- 035 -->
<g id="node28" class="node">
<title>035</title>
<ellipse fill="#ffc19c" stroke="#34262b" cx="2011.35" cy="-598.6" rx="21.6" ry="21.6"/>
<text text-anchor="middle" x="2011.35" y="-590.88" font-family="Helvetica,sans-Serif" font-size="18.00" fill="#34262b">035</text>
<text text-anchor="middle" x="1980" y="-559.9" font-family="Helvetica,sans-Serif" font-size="18.00" fill="#34262b">27</text>
</g>
<!-- 036&#45;&gt;035 -->
<g id="edge31" class="edge">
<title>036&#45;&gt;035</title>
<path fill="none" stroke="#34262b" stroke-width="0.75" d="M1951.45,-565.79C1960.7,-570.95 1972.14,-577.32 1982.47,-583.07"/>
<polygon fill="#34262b" stroke="#34262b" stroke-width="0.75" points="1980.49,-585.97 1990.93,-587.78 1983.89,-579.86 1980.49,-585.97"/>
</g>
<!-- 131587263483309 -->
<g id="node62" class="node">
<title>131587263483309</title>
<ellipse fill="none" stroke="#34262b" cx="2011.35" cy="-555.6" rx="3.6" ry="3.6"/>
</g>
<!-- 036&#45;&gt;131587263483309 -->
<g id="edge68" class="edge">
<title>036&#45;&gt;131587263483309</title>
<path fill="none" stroke="#34262b" stroke-width="0.75" d="M1954.25,-555.6C1973.17,-555.6 1999.23,-555.6 2007.63,-555.6"/>
</g>
<!-- 132776239100886 -->
<g id="node63" class="node">
<title>132776239100886</title>
<ellipse fill="none" stroke="#34262b" cx="2011.35" cy="-530.6" rx="3.6" ry="3.6"/>
<text text-anchor="middle" x="2002.87" y="-509.9" font-family="Helvetica,sans-Serif" font-size="18.00" fill="#34262b">2</text>
</g>
<!-- 036&#45;&gt;132776239100886 -->
<g id="edge69" class="edge">
<title>036&#45;&gt;132776239100886</title>
<path fill="none" stroke="#34262b" stroke-width="0.75" d="M1953.03,-549.16C1971.97,-543.03 1998.85,-534.32 2007.53,-531.51"/>
</g>
<!-- 018 -->
<g id="node21" class="node">
<title>018</title>
<ellipse fill="#ffc19c" stroke="#34262b" cx="2248.95" cy="-620.6" rx="21.6" ry="21.6"/>
<text text-anchor="middle" x="2248.95" y="-612.88" font-family="Helvetica,sans-Serif" font-size="18.00" fill="#34262b">018</text>
<text text-anchor="middle" x="2217.6" y="-581.9" font-family="Helvetica,sans-Serif" font-size="18.00" fill="#34262b">30</text>
</g>
<!-- 018&#45;&gt;004 -->
<g id="edge35" class="edge">
<title>018&#45;&gt;004</title>
<path fill="none" stroke="#34262b" stroke-width="0.75" d="M2271.05,-620.6C2278.45,-620.6 2286.94,-620.6 2295.04,-620.6"/>
<polygon fill="#34262b" stroke="#34262b" stroke-width="0.75" points="2294.95,-624.1 2304.95,-620.6 2294.95,-617.1 2294.95,-624.1"/>
</g>
<!-- 091 -->
<g id="node24" class="node">
<title>091</title>
<ellipse fill="#ffc19c" stroke="#34262b" cx="1140.15" cy="-297.6" rx="21.6" ry="21.6"/>
<text text-anchor="middle" x="1140.15" y="-289.88" font-family="Helvetica,sans-Serif" font-size="18.00" fill="#34262b">091</text>
<text text-anchor="middle" x="1108.8" y="-258.9" font-family="Helvetica,sans-Serif" font-size="18.00" fill="#34262b">15</text>
</g>
<!-- 034&#45;&gt;091 -->
<g id="edge16" class="edge">
<title>034&#45;&gt;091</title>
<path fill="none" stroke="#34262b" stroke-width="0.75" d="M1083.05,-297.6C1090.45,-297.6 1098.94,-297.6 1107.04,-297.6"/>
<polygon fill="#34262b" stroke="#34262b" stroke-width="0.75" points="1106.95,-301.1 1116.95,-297.6 1106.95,-294.1 1106.95,-301.1"/>
</g>
<!-- 060&#45;&gt;069 -->
<g id="edge5" class="edge">
<title>060&#45;&gt;069</title>
<path fill="none" stroke="#34262b" stroke-width="0.75" d="M370.25,-96.6C377.65,-96.6 386.14,-96.6 394.24,-96.6"/>
<polygon fill="#34262b" stroke="#34262b" stroke-width="0.75" points="394.15,-100.1 404.15,-96.6 394.15,-93.1 394.15,-100.1"/>
</g>
<!-- 091&#45;&gt;080 -->
<g id="edge17" class="edge">
<title>091&#45;&gt;080</title>
<path fill="none" stroke="#34262b" stroke-width="0.75" d="M1147.28,-318.49C1155.03,-340.65 1170.74,-374.5 1197.75,-389.6 1221.13,-402.67 1250.73,-390.36 1271.6,-377.59"/>
<polygon fill="#34262b" stroke="#34262b" stroke-width="0.75" points="1273.39,-380.6 1279.86,-372.21 1269.57,-374.74 1273.39,-380.6"/>
</g>
<!-- 091&#45;&gt;075 -->
<g id="edge18" class="edge">
<title>091&#45;&gt;075</title>
<path fill="none" stroke="#34262b" stroke-width="0.75" d="M1157.52,-310.54C1167.89,-318.73 1181.51,-329.49 1193.23,-338.75"/>
<polygon fill="#34262b" stroke="#34262b" stroke-width="0.75" points="1190.83,-341.31 1200.84,-344.77 1195.17,-335.82 1190.83,-341.31"/>
</g>
<!-- 091&#45;&gt;076 -->
<g id="edge19" class="edge">
<title>091&#45;&gt;076</title>
<path fill="none" stroke="#34262b" stroke-width="0.75" d="M1162.25,-297.6C1169.65,-297.6 1178.14,-297.6 1186.24,-297.6"/>
<polygon fill="#34262b" stroke="#34262b" stroke-width="0.75" points="1186.15,-301.1 1196.15,-297.6 1186.15,-294.1 1186.15,-301.1"/>
</g>
<!-- 24023835813788 -->
<g id="node50" class="node">
<title>24023835813788</title>
<ellipse fill="none" stroke="#34262b" cx="1219.35" cy="-254.6" rx="3.6" ry="3.6"/>
</g>
<!-- 091&#45;&gt;24023835813788 -->
<g id="edge56" class="edge">
<title>091&#45;&gt;24023835813788</title>
<path fill="none" stroke="#34262b" stroke-width="0.75" d="M1159.45,-287.41C1178.71,-276.68 1207.4,-260.7 1215.9,-255.97"/>
</g>
<!-- 24056167280055 -->
<g id="node51" class="node">
<title>24056167280055</title>
<ellipse fill="none" stroke="#34262b" cx="1219.35" cy="-229.6" rx="3.6" ry="3.6"/>
<text text-anchor="middle" x="1210.87" y="-208.9" font-family="Helvetica,sans-Serif" font-size="18.00" fill="#34262b">3</text>
</g>
<!-- 091&#45;&gt;24056167280055 -->
<g id="edge57" class="edge">
<title>091&#45;&gt;24056167280055</title>
<path fill="none" stroke="#34262b" stroke-width="0.75" d="M1155.1,-281.77C1166.02,-269.91 1181.95,-253.71 1197.75,-241.6 1203.66,-237.07 1211.45,-232.98 1215.54,-230.95"/>
</g>
<!-- 046 -->
<g id="node25" class="node">
<title>046</title>
<ellipse fill="#ffc19c" stroke="#34262b" cx="2090.55" cy="-598.6" rx="21.6" ry="21.6"/>
<text text-anchor="middle" x="2090.55" y="-590.88" font-family="Helvetica,sans-Serif" font-size="18.00" fill="#34262b">046</text>
<text text-anchor="middle" x="2059.2" y="-559.9" font-family="Helvetica,sans-Serif" font-size="18.00" fill="#34262b">28</text>
</g>
<!-- 071 -->
<g id="node31" class="node">
<title>071</title>
<ellipse fill="#ffc19c" stroke="#34262b" cx="2169.75" cy="-620.6" rx="21.6" ry="21.6"/>
<text text-anchor="middle" x="2169.75" y="-612.88" font-family="Helvetica,sans-Serif" font-size="18.00" fill="#34262b">071</text>
<text text-anchor="middle" x="2138.4" y="-581.9" font-family="Helvetica,sans-Serif" font-size="18.00" fill="#34262b">29</text>
</g>
<!-- 046&#45;&gt;071 -->
<g id="edge33" class="edge">
<title>046&#45;&gt;071</title>
<path fill="none" stroke="#34262b" stroke-width="0.75" d="M2111.83,-604.38C2119.81,-606.65 2129.15,-609.31 2137.93,-611.82"/>
<polygon fill="#34262b" stroke="#34262b" stroke-width="0.75" points="2136.93,-615.17 2147.51,-614.55 2138.85,-608.44 2136.93,-615.17"/>
</g>
<!-- 197442822264005 -->
<g id="node64" class="node">
<title>197442822264005</title>
<ellipse fill="none" stroke="#34262b" cx="2169.75" cy="-577.6" rx="3.6" ry="3.6"/>
<text text-anchor="middle" x="2161.27" y="-556.9" font-family="Helvetica,sans-Serif" font-size="18.00" fill="#34262b">1</text>
</g>
<!-- 046&#45;&gt;197442822264005 -->
<g id="edge70" class="edge">
<title>046&#45;&gt;197442822264005</title>
<path fill="none" stroke="#34262b" stroke-width="0.75" d="M2111.83,-593.08C2130.78,-587.93 2157.38,-580.69 2165.96,-578.36"/>
</g>
<!-- 051&#45;&gt;049 -->
<g id="edge39" class="edge">
<title>051&#45;&gt;049</title>
<path fill="none" stroke="#34262b" stroke-width="0.75" d="M2425.24,-654.79C2436.02,-661.81 2450.62,-669.93 2464.95,-673.6 2497.4,-681.9 2534.7,-669.55 2559.76,-658.06"/>
<polygon fill="#34262b" stroke="#34262b" stroke-width="0.75" points="2561.21,-661.25 2568.69,-653.75 2558.16,-654.95 2561.21,-661.25"/>
</g>
<!-- 051&#45;&gt;053 -->
<g id="edge38" class="edge">
<title>051&#45;&gt;053</title>
<path fill="none" stroke="#34262b" stroke-width="0.75" d="M2429.45,-642.6C2436.85,-642.6 2445.34,-642.6 2453.44,-642.6"/>
<polygon fill="#34262b" stroke="#34262b" stroke-width="0.75" points="2453.35,-646.1 2463.35,-642.6 2453.35,-639.1 2453.35,-646.1"/>
</g>
<!-- 051&#45;&gt;052 -->
<g id="edge37" class="edge">
<title>051&#45;&gt;052</title>
<path fill="none" stroke="#34262b" stroke-width="0.75" d="M2424.72,-629.66C2435.09,-621.47 2448.71,-610.71 2460.43,-601.45"/>
<polygon fill="#34262b" stroke="#34262b" stroke-width="0.75" points="2462.37,-604.38 2468.04,-595.43 2458.03,-598.89 2462.37,-604.38"/>
</g>
<!-- 010&#45;&gt;086 -->
<g id="edge24" class="edge">
<title>010&#45;&gt;086</title>
<path fill="none" stroke="#34262b" stroke-width="0.75" d="M1479.05,-456.6C1486.45,-456.6 1494.94,-456.6 1503.04,-456.6"/>
<polygon fill="#34262b" stroke="#34262b" stroke-width="0.75" points="1502.95,-460.1 1512.95,-456.6 1502.95,-453.1 1502.95,-460.1"/>
</g>
<!-- 035&#45;&gt;046 -->
<g id="edge32" class="edge">
<title>035&#45;&gt;046</title>
<path fill="none" stroke="#34262b" stroke-width="0.75" d="M2033.45,-598.6C2040.85,-598.6 2049.34,-598.6 2057.44,-598.6"/>
<polygon fill="#34262b" stroke="#34262b" stroke-width="0.75" points="2057.35,-602.1 2067.35,-598.6 2057.35,-595.1 2057.35,-602.1"/>
</g>
<!-- 045 -->
<g id="node34" class="node">
<title>045</title>
<ellipse fill="#ffc19c" stroke="#34262b" cx="1694.55" cy="-456.6" rx="21.6" ry="21.6"/>
<text text-anchor="middle" x="1694.55" y="-448.88" font-family="Helvetica,sans-Serif" font-size="18.00" fill="#34262b">045</text>
<text text-anchor="middle" x="1663.2" y="-417.9" font-family="Helvetica,sans-Serif" font-size="18.00" fill="#34262b">23</text>
</g>
<!-- 029&#45;&gt;045 -->
<g id="edge26" class="edge">
<title>029&#45;&gt;045</title>
<path fill="none" stroke="#34262b" stroke-width="0.75" d="M1636.23,-450.61C1644.27,-449.9 1653.74,-449.69 1662.65,-449.97"/>
<polygon fill="#34262b" stroke="#34262b" stroke-width="0.75" points="1662.15,-453.45 1672.33,-450.53 1662.55,-446.46 1662.15,-453.45"/>
</g>
<!-- 029&#45;&gt;045 -->
<g id="edge27" class="edge">
<title>029&#45;&gt;045</title>
<path fill="none" stroke="#34262b" stroke-width="0.75" d="M1636.23,-462.59C1644.27,-463.3 1653.74,-463.51 1662.65,-463.23"/>
<polygon fill="#34262b" stroke="#34262b" stroke-width="0.75" points="1662.55,-466.74 1672.33,-462.67 1662.15,-459.75 1662.55,-466.74"/>
</g>
<!-- 073&#45;&gt;093 -->
<g id="edge9" class="edge">
<title>073&#45;&gt;093</title>
<path fill="none" stroke="#34262b" stroke-width="0.75" d="M687.05,-194.6C694.45,-194.6 702.94,-194.6 711.04,-194.6"/>
<polygon fill="#34262b" stroke="#34262b" stroke-width="0.75" points="710.95,-198.1 720.95,-194.6 710.95,-191.1 710.95,-198.1"/>
</g>
<!-- 071&#45;&gt;018 -->
<g id="edge34" class="edge">
<title>071&#45;&gt;018</title>
<path fill="none" stroke="#34262b" stroke-width="0.75" d="M2191.85,-620.6C2199.25,-620.6 2207.74,-620.6 2215.84,-620.6"/>
<polygon fill="#34262b" stroke="#34262b" stroke-width="0.75" points="2215.75,-624.1 2225.75,-620.6 2215.75,-617.1 2215.75,-624.1"/>
</g>
<!-- 048&#45;&gt;023 -->
<g id="edge3" class="edge">
<title>048&#45;&gt;023</title>
<path fill="none" stroke="#34262b" stroke-width="0.75" d="M211.85,-40.6C219.25,-40.6 227.74,-40.6 235.84,-40.6"/>
<polygon fill="#34262b" stroke="#34262b" stroke-width="0.75" points="235.75,-44.1 245.75,-40.6 235.75,-37.1 235.75,-44.1"/>
</g>
<!-- 012 -->
<g id="node33" class="node">
<title>012</title>
<ellipse fill="#ffc19c" stroke="#34262b" cx="1773.75" cy="-499.6" rx="21.6" ry="21.6"/>
<text text-anchor="middle" x="1773.75" y="-491.88" font-family="Helvetica,sans-Serif" font-size="18.00" fill="#34262b">012</text>
<text text-anchor="middle" x="1742.4" y="-460.9" font-family="Helvetica,sans-Serif" font-size="18.00" fill="#34262b">24</text>
</g>
<!-- 012&#45;&gt;032 -->
<g id="edge29" class="edge">
<title>012&#45;&gt;032</title>
<path fill="none" stroke="#34262b" stroke-width="0.75" d="M1795.85,-499.6C1803.25,-499.6 1811.74,-499.6 1819.84,-499.6"/>
<polygon fill="#34262b" stroke="#34262b" stroke-width="0.75" points="1819.75,-503.1 1829.75,-499.6 1819.75,-496.1 1819.75,-503.1"/>
</g>
<!-- 045&#45;&gt;012 -->
<g id="edge28" class="edge">
<title>045&#45;&gt;012</title>
<path fill="none" stroke="#34262b" stroke-width="0.75" d="M1713.85,-466.79C1723.1,-471.95 1734.54,-478.32 1744.87,-484.07"/>
<polygon fill="#34262b" stroke="#34262b" stroke-width="0.75" points="1742.89,-486.97 1753.33,-488.78 1746.29,-480.86 1742.89,-486.97"/>
</g>
<!-- 237566676404939 -->
<g id="node57" class="node">
<title>237566676404939</title>
<ellipse fill="none" stroke="#34262b" cx="1773.75" cy="-456.6" rx="3.6" ry="3.6"/>
</g>
<!-- 045&#45;&gt;237566676404939 -->
<g id="edge63" class="edge">
<title>045&#45;&gt;237566676404939</title>
<path fill="none" stroke="#34262b" stroke-width="0.75" d="M1716.65,-456.6C1735.57,-456.6 1761.63,-456.6 1770.03,-456.6"/>
</g>
<!-- 227797463040767 -->
<g id="node58" class="node">
<title>227797463040767</title>
<ellipse fill="none" stroke="#34262b" cx="1773.75" cy="-431.6" rx="3.6" ry="3.6"/>
<text text-anchor="middle" x="1765.27" y="-410.9" font-family="Helvetica,sans-Serif" font-size="18.00" fill="#34262b">2</text>
</g>
<!-- 045&#45;&gt;227797463040767 -->
<g id="edge64" class="edge">
<title>045&#45;&gt;227797463040767</title>
<path fill="none" stroke="#34262b" stroke-width="0.75" d="M1715.43,-450.16C1734.37,-444.03 1761.25,-435.32 1769.93,-432.51"/>
</g>
<!-- 042 -->
<g id="node35" class="node">
<title>042</title>
<ellipse fill="#dbde92" stroke="#34262b" cx="31.35" cy="-40.6" rx="21.6" ry="21.6"/>
<text text-anchor="middle" x="31.35" y="-32.88" font-family="Helvetica,sans-Serif" font-size="18.00" fill="#34262b">042</text>
<text text-anchor="middle" x="4.88" y="-1.9" font-family="Helvetica,sans-Serif" font-size="18.00" fill="#34262b">1</text>
</g>
<!-- 042&#45;&gt;002 -->
<g id="edge1" class="edge">
<title>042&#45;&gt;002</title>
<path fill="none" stroke="#34262b" stroke-width="0.75" d="M53.45,-40.6C60.85,-40.6 69.34,-40.6 77.44,-40.6"/>
<polygon fill="#34262b" stroke="#34262b" stroke-width="0.75" points="77.35,-44.1 87.35,-40.6 77.35,-37.1 77.35,-44.1"/>
</g>
</g>
</svg>
