<?xml version="1.0" encoding="UTF-8" standalone="no"?>
<!DOCTYPE svg PUBLIC "-//W3C//DTD SVG 1.1//EN"
 "http://www.w3.org/Graphics/SVG/1.1/DTD/svg11.dtd">
<!-- Generated by graphviz version 9.0.0 (20230911.1827)
 -->
<!-- Title: G Pages: 1 -->
<svg width="2396pt" height="378pt"
 viewBox="0.00 0.00 2395.65 377.80" xmlns="http://www.w3.org/2000/svg" xmlns:xlink="http://www.w3.org/1999/xlink">
<g id="graph0" class="graph" transform="scale(1 1) rotate(0) translate(4 373.8)">
<title>G</title>
<polygon fill="#fdfeff" stroke="none" points="-4,4 -4,-373.8 2391.65,-373.8 2391.65,4 -4,4"/>
<!-- 049 -->
<g id="node1" class="node">
<title>049</title>
<polygon fill="#fee548" stroke="#34262b" points="2387.65,-336.8 2352.95,-336.8 2342.22,-369.8 2331.5,-336.8 2296.8,-336.8 2324.87,-316.4 2314.15,-283.4 2342.22,-303.8 2370.3,-283.4 2359.57,-316.4 2387.65,-336.8"/>
<text text-anchor="middle" x="2342.22" y="-318.88" font-family="Helvetica,sans-Serif" font-size="18.00" fill="#34262b">049</text>
</g>
<!-- 002 -->
<g id="node2" class="node">
<title>002</title>
<ellipse fill="#ffc19c" stroke="#34262b" cx="100.8" cy="-265.6" rx="21.6" ry="21.6"/>
<text text-anchor="middle" x="100.8" y="-257.88" font-family="Helvetica,sans-Serif" font-size="18.00" fill="#34262b">002</text>
</g>
<!-- 048 -->
<g id="node3" class="node">
<title>048</title>
<ellipse fill="#ffc19c" stroke="#34262b" cx="180" cy="-265.6" rx="21.6" ry="21.6"/>
<text text-anchor="middle" x="180" y="-257.88" font-family="Helvetica,sans-Serif" font-size="18.00" fill="#34262b">048</text>
</g>
<!-- 002&#45;&gt;048 -->
<g id="edge2" class="edge">
<title>002&#45;&gt;048</title>
<path fill="none" stroke="#34262b" stroke-width="0.75" d="M122.9,-265.6C130.3,-265.6 138.79,-265.6 146.89,-265.6"/>
<polygon fill="#34262b" stroke="#34262b" stroke-width="0.75" points="146.8,-269.1 156.8,-265.6 146.8,-262.1 146.8,-269.1"/>
</g>
<!-- 023 -->
<g id="node4" class="node">
<title>023</title>
<ellipse fill="#ffc19c" stroke="#34262b" cx="259.2" cy="-265.6" rx="21.6" ry="21.6"/>
<text text-anchor="middle" x="259.2" y="-257.88" font-family="Helvetica,sans-Serif" font-size="18.00" fill="#34262b">023</text>
</g>
<!-- 048&#45;&gt;023 -->
<g id="edge3" class="edge">
<title>048&#45;&gt;023</title>
<path fill="none" stroke="#34262b" stroke-width="0.75" d="M202.1,-265.6C209.5,-265.6 217.99,-265.6 226.09,-265.6"/>
<polygon fill="#34262b" stroke="#34262b" stroke-width="0.75" points="226,-269.1 236,-265.6 226,-262.1 226,-269.1"/>
</g>
<!-- 060 -->
<g id="node5" class="node">
<title>060</title>
<ellipse fill="#ffc19c" stroke="#34262b" cx="338.4" cy="-265.6" rx="21.6" ry="21.6"/>
<text text-anchor="middle" x="338.4" y="-257.88" font-family="Helvetica,sans-Serif" font-size="18.00" fill="#34262b">060</text>
</g>
<!-- 023&#45;&gt;060 -->
<g id="edge4" class="edge">
<title>023&#45;&gt;060</title>
<path fill="none" stroke="#34262b" stroke-width="0.75" d="M281.3,-265.6C288.7,-265.6 297.19,-265.6 305.29,-265.6"/>
<polygon fill="#34262b" stroke="#34262b" stroke-width="0.75" points="305.2,-269.1 315.2,-265.6 305.2,-262.1 305.2,-269.1"/>
</g>
<!-- 069 -->
<g id="node6" class="node">
<title>069</title>
<ellipse fill="#ffc19c" stroke="#34262b" cx="417.6" cy="-265.6" rx="21.6" ry="21.6"/>
<text text-anchor="middle" x="417.6" y="-257.88" font-family="Helvetica,sans-Serif" font-size="18.00" fill="#34262b">069</text>
</g>
<!-- 060&#45;&gt;069 -->
<g id="edge5" class="edge">
<title>060&#45;&gt;069</title>
<path fill="none" stroke="#34262b" stroke-width="0.75" d="M360.5,-265.6C367.9,-265.6 376.39,-265.6 384.49,-265.6"/>
<polygon fill="#34262b" stroke="#34262b" stroke-width="0.75" points="384.4,-269.1 394.4,-265.6 384.4,-262.1 384.4,-269.1"/>
</g>
<!-- 090 -->
<g id="node7" class="node">
<title>090</title>
<ellipse fill="#ffc19c" stroke="#34262b" cx="496.8" cy="-265.6" rx="21.6" ry="21.6"/>
<text text-anchor="middle" x="496.8" y="-257.88" font-family="Helvetica,sans-Serif" font-size="18.00" fill="#34262b">090</text>
</g>
<!-- 069&#45;&gt;090 -->
<g id="edge6" class="edge">
<title>069&#45;&gt;090</title>
<path fill="none" stroke="#34262b" stroke-width="0.75" d="M439.7,-265.6C447.1,-265.6 455.59,-265.6 463.69,-265.6"/>
<polygon fill="#34262b" stroke="#34262b" stroke-width="0.75" points="463.6,-269.1 473.6,-265.6 463.6,-262.1 463.6,-269.1"/>
</g>
<!-- 099 -->
<g id="node8" class="node">
<title>099</title>
<ellipse fill="#ffc19c" stroke="#34262b" cx="576" cy="-265.6" rx="21.6" ry="21.6"/>
<text text-anchor="middle" x="576" y="-257.88" font-family="Helvetica,sans-Serif" font-size="18.00" fill="#34262b">099</text>
</g>
<!-- 090&#45;&gt;099 -->
<g id="edge7" class="edge">
<title>090&#45;&gt;099</title>
<path fill="none" stroke="#34262b" stroke-width="0.75" d="M504.65,-245.37C516.98,-230.19 543.18,-227.8 559.89,-238.17"/>
<polygon fill="#34262b" stroke="#34262b" stroke-width="0.75" points="557.35,-240.6 567.2,-244.5 561.93,-235.31 557.35,-240.6"/>
</g>
<!-- 090&#45;&gt;099 -->
<g id="edge8" class="edge">
<title>090&#45;&gt;099</title>
<path fill="none" stroke="#34262b" stroke-width="0.75" d="M511.6,-249.65C522.4,-245.23 537.7,-244.22 550.56,-246.61"/>
<polygon fill="#34262b" stroke="#34262b" stroke-width="0.75" points="549.39,-249.92 559.97,-249.28 551.3,-243.19 549.39,-249.92"/>
</g>
<!-- 090&#45;&gt;099 -->
<g id="edge9" class="edge">
<title>090&#45;&gt;099</title>
<path fill="none" stroke="#34262b" stroke-width="0.75" d="M517.68,-259.61C525.72,-258.9 535.19,-258.69 544.1,-258.97"/>
<polygon fill="#34262b" stroke="#34262b" stroke-width="0.75" points="543.6,-262.45 553.78,-259.53 544,-255.46 543.6,-262.45"/>
</g>
<!-- 090&#45;&gt;099 -->
<g id="edge10" class="edge">
<title>090&#45;&gt;099</title>
<path fill="none" stroke="#34262b" stroke-width="0.75" d="M517.68,-271.59C525.72,-272.3 535.19,-272.51 544.1,-272.23"/>
<polygon fill="#34262b" stroke="#34262b" stroke-width="0.75" points="544,-275.74 553.78,-271.67 543.6,-268.75 544,-275.74"/>
</g>
<!-- 090&#45;&gt;099 -->
<g id="edge11" class="edge">
<title>090&#45;&gt;099</title>
<path fill="none" stroke="#34262b" stroke-width="0.75" d="M511.6,-281.55C522.4,-285.97 537.7,-286.98 550.56,-284.59"/>
<polygon fill="#34262b" stroke="#34262b" stroke-width="0.75" points="551.3,-288.01 559.97,-281.92 549.39,-281.28 551.3,-288.01"/>
</g>
<!-- 090&#45;&gt;099 -->
<g id="edge12" class="edge">
<title>090&#45;&gt;099</title>
<path fill="none" stroke="#34262b" stroke-width="0.75" d="M504.65,-285.83C516.98,-301.01 543.18,-303.4 559.89,-293.03"/>
<polygon fill="#34262b" stroke="#34262b" stroke-width="0.75" points="561.93,-295.89 567.2,-286.7 557.35,-290.6 561.93,-295.89"/>
</g>
<!-- 29469479875314 -->
<g id="node31" class="node">
<title>29469479875314</title>
</g>
<!-- 090&#45;&gt;29469479875314 -->
<g id="edge35" class="edge">
<title>090&#45;&gt;29469479875314</title>
<path fill="none" stroke="#34262b" stroke-width="0.75" d="M514.17,-252.66C525.05,-244.07 539.5,-232.65 551.59,-223.1"/>
<ellipse fill="none" stroke="#34262b" stroke-width="0.75" cx="554.95" cy="-220.44" rx="4" ry="4"/>
</g>
<!-- 28936146647069 -->
<g id="node32" class="node">
<title>28936146647069</title>
</g>
<!-- 090&#45;&gt;28936146647069 -->
<g id="edge36" class="edge">
<title>090&#45;&gt;28936146647069</title>
<path fill="none" stroke="#34262b" stroke-width="0.75" d="M508.81,-247.1C520.02,-228.4 538.04,-198.75 554.4,-173.6 555.58,-171.79 556.8,-169.93 558.05,-168.07"/>
<ellipse fill="none" stroke="#34262b" stroke-width="0.75" cx="560.42" cy="-164.57" rx="4" ry="4"/>
</g>
<!-- 27750710965709 -->
<g id="node33" class="node">
<title>27750710965709</title>
</g>
<!-- 090&#45;&gt;27750710965709 -->
<g id="edge37" class="edge">
<title>090&#45;&gt;27750710965709</title>
<path fill="none" stroke="#34262b" stroke-width="0.75" d="M503.68,-244.87C512.6,-214.8 531.01,-157.74 554.4,-112.6 555.39,-110.69 556.49,-108.75 557.64,-106.83"/>
<ellipse fill="none" stroke="#34262b" stroke-width="0.75" cx="559.9" cy="-103.28" rx="4" ry="4"/>
</g>
<!-- 27856316173838 -->
<g id="node34" class="node">
<title>27856316173838</title>
</g>
<!-- 090&#45;&gt;27856316173838 -->
<g id="edge38" class="edge">
<title>090&#45;&gt;27856316173838</title>
<path fill="none" stroke="#34262b" stroke-width="0.75" d="M500.97,-244.12C507.35,-204.6 523.79,-118.32 554.4,-51.6 555.3,-49.64 556.32,-47.67 557.43,-45.73"/>
<ellipse fill="none" stroke="#34262b" stroke-width="0.75" cx="559.64" cy="-42.16" rx="4" ry="4"/>
</g>
<!-- 073 -->
<g id="node9" class="node">
<title>073</title>
<ellipse fill="#ffc19c" stroke="#34262b" cx="655.2" cy="-265.6" rx="21.6" ry="21.6"/>
<text text-anchor="middle" x="655.2" y="-257.88" font-family="Helvetica,sans-Serif" font-size="18.00" fill="#34262b">073</text>
</g>
<!-- 099&#45;&gt;073 -->
<g id="edge13" class="edge">
<title>099&#45;&gt;073</title>
<path fill="none" stroke="#34262b" stroke-width="0.75" d="M598.1,-265.6C605.5,-265.6 613.99,-265.6 622.09,-265.6"/>
<polygon fill="#34262b" stroke="#34262b" stroke-width="0.75" points="622,-269.1 632,-265.6 622,-262.1 622,-269.1"/>
</g>
<!-- 093 -->
<g id="node10" class="node">
<title>093</title>
<ellipse fill="#ffc19c" stroke="#34262b" cx="734.4" cy="-265.6" rx="21.6" ry="21.6"/>
<text text-anchor="middle" x="734.4" y="-257.88" font-family="Helvetica,sans-Serif" font-size="18.00" fill="#34262b">093</text>
</g>
<!-- 073&#45;&gt;093 -->
<g id="edge14" class="edge">
<title>073&#45;&gt;093</title>
<path fill="none" stroke="#34262b" stroke-width="0.75" d="M677.3,-265.6C684.7,-265.6 693.19,-265.6 701.29,-265.6"/>
<polygon fill="#34262b" stroke="#34262b" stroke-width="0.75" points="701.2,-269.1 711.2,-265.6 701.2,-262.1 701.2,-269.1"/>
</g>
<!-- 033 -->
<g id="node11" class="node">
<title>033</title>
<ellipse fill="#ffc19c" stroke="#34262b" cx="813.6" cy="-265.6" rx="21.6" ry="21.6"/>
<text text-anchor="middle" x="813.6" y="-257.88" font-family="Helvetica,sans-Serif" font-size="18.00" fill="#34262b">033</text>
</g>
<!-- 093&#45;&gt;033 -->
<g id="edge15" class="edge">
<title>093&#45;&gt;033</title>
<path fill="none" stroke="#34262b" stroke-width="0.75" d="M756.5,-265.6C763.9,-265.6 772.39,-265.6 780.49,-265.6"/>
<polygon fill="#34262b" stroke="#34262b" stroke-width="0.75" points="780.4,-269.1 790.4,-265.6 780.4,-262.1 780.4,-269.1"/>
</g>
<!-- 024 -->
<g id="node12" class="node">
<title>024</title>
<ellipse fill="#ffc19c" stroke="#34262b" cx="892.8" cy="-265.6" rx="21.6" ry="21.6"/>
<text text-anchor="middle" x="892.8" y="-257.88" font-family="Helvetica,sans-Serif" font-size="18.00" fill="#34262b">024</text>
</g>
<!-- 033&#45;&gt;024 -->
<g id="edge16" class="edge">
<title>033&#45;&gt;024</title>
<path fill="none" stroke="#34262b" stroke-width="0.75" d="M835.7,-265.6C843.1,-265.6 851.59,-265.6 859.69,-265.6"/>
<polygon fill="#34262b" stroke="#34262b" stroke-width="0.75" points="859.6,-269.1 869.6,-265.6 859.6,-262.1 859.6,-269.1"/>
</g>
<!-- 034 -->
<g id="node13" class="node">
<title>034</title>
<ellipse fill="#ffc19c" stroke="#34262b" cx="972" cy="-265.6" rx="21.6" ry="21.6"/>
<text text-anchor="middle" x="972" y="-257.88" font-family="Helvetica,sans-Serif" font-size="18.00" fill="#34262b">034</text>
</g>
<!-- 024&#45;&gt;034 -->
<g id="edge17" class="edge">
<title>024&#45;&gt;034</title>
<path fill="none" stroke="#34262b" stroke-width="0.75" d="M914.9,-265.6C922.3,-265.6 930.79,-265.6 938.89,-265.6"/>
<polygon fill="#34262b" stroke="#34262b" stroke-width="0.75" points="938.8,-269.1 948.8,-265.6 938.8,-262.1 938.8,-269.1"/>
</g>
<!-- 091 -->
<g id="node14" class="node">
<title>091</title>
<ellipse fill="#ffc19c" stroke="#34262b" cx="1051.2" cy="-265.6" rx="21.6" ry="21.6"/>
<text text-anchor="middle" x="1051.2" y="-257.88" font-family="Helvetica,sans-Serif" font-size="18.00" fill="#34262b">091</text>
</g>
<!-- 034&#45;&gt;091 -->
<g id="edge18" class="edge">
<title>034&#45;&gt;091</title>
<path fill="none" stroke="#34262b" stroke-width="0.75" d="M994.1,-265.6C1001.5,-265.6 1009.99,-265.6 1018.09,-265.6"/>
<polygon fill="#34262b" stroke="#34262b" stroke-width="0.75" points="1018,-269.1 1028,-265.6 1018,-262.1 1018,-269.1"/>
</g>
<!-- 080 -->
<g id="node15" class="node">
<title>080</title>
<ellipse fill="#ffc19c" stroke="#34262b" cx="1130.4" cy="-296.6" rx="21.6" ry="21.6"/>
<text text-anchor="middle" x="1130.4" y="-288.88" font-family="Helvetica,sans-Serif" font-size="18.00" fill="#34262b">080</text>
</g>
<!-- 091&#45;&gt;080 -->
<g id="edge19" class="edge">
<title>091&#45;&gt;080</title>
<path fill="none" stroke="#34262b" stroke-width="0.75" d="M1071.68,-273.42C1080.18,-276.84 1090.34,-280.92 1099.75,-284.69"/>
<polygon fill="#34262b" stroke="#34262b" stroke-width="0.75" points="1098.29,-287.88 1108.87,-288.36 1100.9,-281.38 1098.29,-287.88"/>
</g>
<!-- 24023835813788 -->
<g id="node35" class="node">
<title>24023835813788</title>
</g>
<!-- 091&#45;&gt;24023835813788 -->
<g id="edge39" class="edge">
<title>091&#45;&gt;24023835813788</title>
<path fill="none" stroke="#34262b" stroke-width="0.75" d="M1071.68,-258.03C1080.82,-254.48 1091.88,-250.18 1101.86,-246.3"/>
<ellipse fill="none" stroke="#34262b" stroke-width="0.75" cx="1105.85" cy="-244.75" rx="4" ry="4"/>
</g>
<!-- 078 -->
<g id="node16" class="node">
<title>078</title>
<ellipse fill="#ffc19c" stroke="#34262b" cx="1209.6" cy="-326.6" rx="21.6" ry="21.6"/>
<text text-anchor="middle" x="1209.6" y="-318.88" font-family="Helvetica,sans-Serif" font-size="18.00" fill="#34262b">078</text>
</g>
<!-- 080&#45;&gt;078 -->
<g id="edge20" class="edge">
<title>080&#45;&gt;078</title>
<path fill="none" stroke="#34262b" stroke-width="0.75" d="M1150.88,-304.17C1159.38,-307.47 1169.54,-311.42 1178.95,-315.08"/>
<polygon fill="#34262b" stroke="#34262b" stroke-width="0.75" points="1177.48,-318.26 1188.07,-318.62 1180.01,-311.74 1177.48,-318.26"/>
</g>
<!-- 29110816244045 -->
<g id="node36" class="node">
<title>29110816244045</title>
</g>
<!-- 080&#45;&gt;29110816244045 -->
<g id="edge40" class="edge">
<title>080&#45;&gt;29110816244045</title>
<path fill="none" stroke="#34262b" stroke-width="0.75" d="M1150.88,-288.78C1160.02,-285.11 1171.08,-280.67 1181.06,-276.66"/>
<ellipse fill="none" stroke="#34262b" stroke-width="0.75" cx="1185.07" cy="-275.05" rx="4" ry="4"/>
</g>
<!-- 010 -->
<g id="node17" class="node">
<title>010</title>
<ellipse fill="#ffc19c" stroke="#34262b" cx="1288.8" cy="-326.6" rx="21.6" ry="21.6"/>
<text text-anchor="middle" x="1288.8" y="-318.88" font-family="Helvetica,sans-Serif" font-size="18.00" fill="#34262b">010</text>
</g>
<!-- 078&#45;&gt;010 -->
<g id="edge21" class="edge">
<title>078&#45;&gt;010</title>
<path fill="none" stroke="#34262b" stroke-width="0.75" d="M1231.7,-326.6C1239.1,-326.6 1247.59,-326.6 1255.69,-326.6"/>
<polygon fill="#34262b" stroke="#34262b" stroke-width="0.75" points="1255.6,-330.1 1265.6,-326.6 1255.6,-323.1 1255.6,-330.1"/>
</g>
<!-- 086 -->
<g id="node18" class="node">
<title>086</title>
<ellipse fill="#ffc19c" stroke="#34262b" cx="1368" cy="-326.6" rx="21.6" ry="21.6"/>
<text text-anchor="middle" x="1368" y="-318.88" font-family="Helvetica,sans-Serif" font-size="18.00" fill="#34262b">086</text>
</g>
<!-- 010&#45;&gt;086 -->
<g id="edge22" class="edge">
<title>010&#45;&gt;086</title>
<path fill="none" stroke="#34262b" stroke-width="0.75" d="M1310.9,-326.6C1318.3,-326.6 1326.79,-326.6 1334.89,-326.6"/>
<polygon fill="#34262b" stroke="#34262b" stroke-width="0.75" points="1334.8,-330.1 1344.8,-326.6 1334.8,-323.1 1334.8,-330.1"/>
</g>
<!-- 029 -->
<g id="node19" class="node">
<title>029</title>
<ellipse fill="#ffc19c" stroke="#34262b" cx="1447.2" cy="-326.6" rx="21.6" ry="21.6"/>
<text text-anchor="middle" x="1447.2" y="-318.88" font-family="Helvetica,sans-Serif" font-size="18.00" fill="#34262b">029</text>
</g>
<!-- 086&#45;&gt;029 -->
<g id="edge23" class="edge">
<title>086&#45;&gt;029</title>
<path fill="none" stroke="#34262b" stroke-width="0.75" d="M1390.1,-326.6C1397.5,-326.6 1405.99,-326.6 1414.09,-326.6"/>
<polygon fill="#34262b" stroke="#34262b" stroke-width="0.75" points="1414,-330.1 1424,-326.6 1414,-323.1 1414,-330.1"/>
</g>
<!-- 045 -->
<g id="node20" class="node">
<title>045</title>
<ellipse fill="#ffc19c" stroke="#34262b" cx="1526.4" cy="-326.6" rx="21.6" ry="21.6"/>
<text text-anchor="middle" x="1526.4" y="-318.88" font-family="Helvetica,sans-Serif" font-size="18.00" fill="#34262b">045</text>
</g>
<!-- 029&#45;&gt;045 -->
<g id="edge24" class="edge">
<title>029&#45;&gt;045</title>
<path fill="none" stroke="#34262b" stroke-width="0.75" d="M1469.3,-326.6C1476.7,-326.6 1485.19,-326.6 1493.29,-326.6"/>
<polygon fill="#34262b" stroke="#34262b" stroke-width="0.75" points="1493.2,-330.1 1503.2,-326.6 1493.2,-323.1 1493.2,-330.1"/>
</g>
<!-- 012 -->
<g id="node21" class="node">
<title>012</title>
<ellipse fill="#ffc19c" stroke="#34262b" cx="1605.6" cy="-326.6" rx="21.6" ry="21.6"/>
<text text-anchor="middle" x="1605.6" y="-318.88" font-family="Helvetica,sans-Serif" font-size="18.00" fill="#34262b">012</text>
</g>
<!-- 045&#45;&gt;012 -->
<g id="edge25" class="edge">
<title>045&#45;&gt;012</title>
<path fill="none" stroke="#34262b" stroke-width="0.75" d="M1548.5,-326.6C1555.9,-326.6 1564.39,-326.6 1572.49,-326.6"/>
<polygon fill="#34262b" stroke="#34262b" stroke-width="0.75" points="1572.4,-330.1 1582.4,-326.6 1572.4,-323.1 1572.4,-330.1"/>
</g>
<!-- 032 -->
<g id="node22" class="node">
<title>032</title>
<ellipse fill="#ffc19c" stroke="#34262b" cx="1684.8" cy="-326.6" rx="21.6" ry="21.6"/>
<text text-anchor="middle" x="1684.8" y="-318.88" font-family="Helvetica,sans-Serif" font-size="18.00" fill="#34262b">032</text>
</g>
<!-- 012&#45;&gt;032 -->
<g id="edge26" class="edge">
<title>012&#45;&gt;032</title>
<path fill="none" stroke="#34262b" stroke-width="0.75" d="M1627.7,-326.6C1635.1,-326.6 1643.59,-326.6 1651.69,-326.6"/>
<polygon fill="#34262b" stroke="#34262b" stroke-width="0.75" points="1651.6,-330.1 1661.6,-326.6 1651.6,-323.1 1651.6,-330.1"/>
</g>
<!-- 036 -->
<g id="node23" class="node">
<title>036</title>
<ellipse fill="#ffc19c" stroke="#34262b" cx="1764" cy="-326.6" rx="21.6" ry="21.6"/>
<text text-anchor="middle" x="1764" y="-318.88" font-family="Helvetica,sans-Serif" font-size="18.00" fill="#34262b">036</text>
</g>
<!-- 032&#45;&gt;036 -->
<g id="edge27" class="edge">
<title>032&#45;&gt;036</title>
<path fill="none" stroke="#34262b" stroke-width="0.75" d="M1706.9,-326.6C1714.3,-326.6 1722.79,-326.6 1730.89,-326.6"/>
<polygon fill="#34262b" stroke="#34262b" stroke-width="0.75" points="1730.8,-330.1 1740.8,-326.6 1730.8,-323.1 1730.8,-330.1"/>
</g>
<!-- 035 -->
<g id="node24" class="node">
<title>035</title>
<ellipse fill="#ffc19c" stroke="#34262b" cx="1843.2" cy="-326.6" rx="21.6" ry="21.6"/>
<text text-anchor="middle" x="1843.2" y="-318.88" font-family="Helvetica,sans-Serif" font-size="18.00" fill="#34262b">035</text>
</g>
<!-- 036&#45;&gt;035 -->
<g id="edge28" class="edge">
<title>036&#45;&gt;035</title>
<path fill="none" stroke="#34262b" stroke-width="0.75" d="M1786.1,-326.6C1793.5,-326.6 1801.99,-326.6 1810.09,-326.6"/>
<polygon fill="#34262b" stroke="#34262b" stroke-width="0.75" points="1810,-330.1 1820,-326.6 1810,-323.1 1810,-330.1"/>
</g>
<!-- 046 -->
<g id="node25" class="node">
<title>046</title>
<ellipse fill="#ffc19c" stroke="#34262b" cx="1922.4" cy="-326.6" rx="21.6" ry="21.6"/>
<text text-anchor="middle" x="1922.4" y="-318.88" font-family="Helvetica,sans-Serif" font-size="18.00" fill="#34262b">046</text>
</g>
<!-- 035&#45;&gt;046 -->
<g id="edge29" class="edge">
<title>035&#45;&gt;046</title>
<path fill="none" stroke="#34262b" stroke-width="0.75" d="M1865.3,-326.6C1872.7,-326.6 1881.19,-326.6 1889.29,-326.6"/>
<polygon fill="#34262b" stroke="#34262b" stroke-width="0.75" points="1889.2,-330.1 1899.2,-326.6 1889.2,-323.1 1889.2,-330.1"/>
</g>
<!-- 071 -->
<g id="node26" class="node">
<title>071</title>
<ellipse fill="#ffc19c" stroke="#34262b" cx="2001.6" cy="-326.6" rx="21.6" ry="21.6"/>
<text text-anchor="middle" x="2001.6" y="-318.88" font-family="Helvetica,sans-Serif" font-size="18.00" fill="#34262b">071</text>
</g>
<!-- 046&#45;&gt;071 -->
<g id="edge30" class="edge">
<title>046&#45;&gt;071</title>
<path fill="none" stroke="#34262b" stroke-width="0.75" d="M1944.5,-326.6C1951.9,-326.6 1960.39,-326.6 1968.49,-326.6"/>
<polygon fill="#34262b" stroke="#34262b" stroke-width="0.75" points="1968.4,-330.1 1978.4,-326.6 1968.4,-323.1 1968.4,-330.1"/>
</g>
<!-- 018 -->
<g id="node27" class="node">
<title>018</title>
<ellipse fill="#ffc19c" stroke="#34262b" cx="2080.8" cy="-326.6" rx="21.6" ry="21.6"/>
<text text-anchor="middle" x="2080.8" y="-318.88" font-family="Helvetica,sans-Serif" font-size="18.00" fill="#34262b">018</text>
</g>
<!-- 071&#45;&gt;018 -->
<g id="edge31" class="edge">
<title>071&#45;&gt;018</title>
<path fill="none" stroke="#34262b" stroke-width="0.75" d="M2023.7,-326.6C2031.1,-326.6 2039.59,-326.6 2047.69,-326.6"/>
<polygon fill="#34262b" stroke="#34262b" stroke-width="0.75" points="2047.6,-330.1 2057.6,-326.6 2047.6,-323.1 2047.6,-330.1"/>
</g>
<!-- 004 -->
<g id="node28" class="node">
<title>004</title>
<ellipse fill="#ffc19c" stroke="#34262b" cx="2160" cy="-326.6" rx="21.6" ry="21.6"/>
<text text-anchor="middle" x="2160" y="-318.88" font-family="Helvetica,sans-Serif" font-size="18.00" fill="#34262b">004</text>
</g>
<!-- 018&#45;&gt;004 -->
<g id="edge32" class="edge">
<title>018&#45;&gt;004</title>
<path fill="none" stroke="#34262b" stroke-width="0.75" d="M2102.9,-326.6C2110.3,-326.6 2118.79,-326.6 2126.89,-326.6"/>
<polygon fill="#34262b" stroke="#34262b" stroke-width="0.75" points="2126.8,-330.1 2136.8,-326.6 2126.8,-323.1 2126.8,-330.1"/>
</g>
<!-- 051 -->
<g id="node29" class="node">
<title>051</title>
<ellipse fill="#ffc19c" stroke="#34262b" cx="2239.2" cy="-326.6" rx="21.6" ry="21.6"/>
<text text-anchor="middle" x="2239.2" y="-318.88" font-family="Helvetica,sans-Serif" font-size="18.00" fill="#34262b">051</text>
</g>
<!-- 004&#45;&gt;051 -->
<g id="edge33" class="edge">
<title>004&#45;&gt;051</title>
<path fill="none" stroke="#34262b" stroke-width="0.75" d="M2182.1,-326.6C2189.5,-326.6 2197.99,-326.6 2206.09,-326.6"/>
<polygon fill="#34262b" stroke="#34262b" stroke-width="0.75" points="2206,-330.1 2216,-326.6 2206,-323.1 2206,-330.1"/>
</g>
<!-- 051&#45;&gt;049 -->
<g id="edge34" class="edge">
<title>051&#45;&gt;049</title>
<path fill="none" stroke="#34262b" stroke-width="0.75" d="M2261.13,-326.6C2272.24,-326.6 2286.29,-326.6 2299.52,-326.6"/>
<polygon fill="#34262b" stroke="#34262b" stroke-width="0.75" points="2299.21,-330.1 2309.21,-326.6 2299.21,-323.1 2299.21,-330.1"/>
</g>
<!-- 042 -->
<g id="node30" class="node">
<title>042</title>
<ellipse fill="#dbde92" stroke="#34262b" cx="21.6" cy="-265.6" rx="21.6" ry="21.6"/>
<text text-anchor="middle" x="21.6" y="-257.88" font-family="Helvetica,sans-Serif" font-size="18.00" fill="#34262b">042</text>
</g>
<!-- 042&#45;&gt;002 -->
<g id="edge1" class="edge">
<title>042&#45;&gt;002</title>
<path fill="none" stroke="#34262b" stroke-width="0.75" d="M43.7,-265.6C51.1,-265.6 59.59,-265.6 67.69,-265.6"/>
<polygon fill="#34262b" stroke="#34262b" stroke-width="0.75" points="67.6,-269.1 77.6,-265.6 67.6,-262.1 67.6,-269.1"/>
</g>
</g>
</svg>
