<?xml version="1.0" encoding="utf-8"?>
<!-- Generated by Mocodo 4.3.2 -->
<svg width="604" height="180" viewBox="0 0 604 180" xmlns="http://www.w3.org/2000/svg">
<rect x="0" y="0" width="604" height="180" fill="none" stroke="none" stroke-width="0"/>

<!-- Entity VILLAGE -->
<g>
	<g>
		<rect x="42" y="45" width="80" height="28" fill="#FAA945" stroke="none" stroke-width="0" opacity="1"/>
		<rect x="42" y="73" width="80" height="62" fill="#FFB94E" stroke="none" stroke-width="0" opacity="1"/>
		<rect x="42" y="45" width="80" height="90" fill="none" stroke="#CB7E1F" stroke-width="3" opacity="1"/>
		<line x1="42" y1="73" x2="122" y2="73" stroke="#CB7E1F" stroke-width="1.5"/>
	</g>
	<text x="50" y="65.3" fill="#645530" font-family="Arial Black" font-size="13">VILLAGE</text>
	<text x="50" y="89.2" fill="#645530" font-family="Arial" font-size="14">villageid</text>
	<line x1="50" y1="92" x2="104" y2="92" stroke="#645530" stroke-width="1.2"/>
	<text x="50" y="107.2" fill="#645530" font-family="Arial" font-size="14">name</text>
	<text x="50" y="125.2" fill="#645530" font-family="Arial" font-size="14">#chief</text>
</g>

<!-- Entity INHABITANT -->
<g>
	<g>
		<rect x="254" y="9" width="110" height="28" fill="#FAA945" stroke="none" stroke-width="0" opacity="1"/>
		<rect x="254" y="37" width="110" height="134" fill="#FFB94E" stroke="none" stroke-width="0" opacity="1"/>
		<rect x="254" y="9" width="110" height="162" fill="none" stroke="#CB7E1F" stroke-width="3" opacity="1"/>
		<line x1="254" y1="37" x2="364" y2="37" stroke="#CB7E1F" stroke-width="1.5"/>
	</g>
	<text x="263" y="29.3" fill="#645530" font-family="Arial Black" font-size="13">INHABITANT</text>
	<text x="262" y="53.2" fill="#645530" font-family="Arial" font-size="14">personid</text>
	<line x1="262" y1="56" x2="319" y2="56" stroke="#645530" stroke-width="1.2"/>
	<text x="262" y="71.2" fill="#645530" font-family="Arial" font-size="14">name</text>
	<text x="262" y="89.2" fill="#645530" font-family="Arial" font-size="14">#villageid</text>
	<text x="262" y="107.2" fill="#645530" font-family="Arial" font-size="14">gender</text>
	<text x="262" y="125.2" fill="#645530" font-family="Arial" font-size="14">job</text>
	<text x="262" y="143.2" fill="#645530" font-family="Arial" font-size="14">gold</text>
	<text x="262" y="161.2" fill="#645530" font-family="Arial" font-size="14">state</text>
</g>

<!-- Entity ITEM -->
<g>
	<g>
		<rect x="496" y="54" width="66" height="28" fill="#FAA945" stroke="none" stroke-width="0" opacity="1"/>
		<rect x="496" y="82" width="66" height="44" fill="#FFB94E" stroke="none" stroke-width="0" opacity="1"/>
		<rect x="496" y="54" width="66" height="72" fill="none" stroke="#CB7E1F" stroke-width="3" opacity="1"/>
		<line x1="496" y1="82" x2="562" y2="82" stroke="#CB7E1F" stroke-width="1.5"/>
	</g>
	<text x="511" y="74.3" fill="#645530" font-family="Arial Black" font-size="13">ITEM</text>
	<text x="504" y="98.2" fill="#645530" font-family="Arial" font-size="14">item</text>
	<line x1="504" y1="101" x2="533" y2="101" stroke="#645530" stroke-width="1.2"/>
	<text x="504" y="116.2" fill="#645530" font-family="Arial" font-size="14">#owner</text>
</g>

<!-- Link from &quot;personid&quot; (VILLAGE) to &quot;personid&quot; (INHABITANT) -->
<path d="M122 123 C188 87 166 51 254 51" fill="none" stroke="#4C3D30" stroke-width="1.5"/>
<polygon points="254 51 242 57 246 51 242 45" fill="#4C3D30" stroke-width="0"/>
<circle cx="122" cy="123" r="3" stroke="#4C3D30" stroke-width="3" fill="#4C3D30"/>

<!-- Link from &quot;villageid&quot; (INHABITANT) to &quot;villageid&quot; (VILLAGE) -->
<path d="M254 87 C188 87 210 87 122 87" fill="none" stroke="#4C3D30" stroke-width="1.5"/>
<polygon points="122 87 134 81 130 87 134 93" fill="#4C3D30" stroke-width="0"/>
<circle cx="254" cy="87" r="3" stroke="#4C3D30" stroke-width="3" fill="#4C3D30"/>

<!-- Link from &quot;personid&quot; (ITEM) to &quot;personid&quot; (INHABITANT) -->
<path d="M496 114 C430 82.5 452 51 364 51" fill="none" stroke="#4C3D30" stroke-width="1.5"/>
<polygon points="364 51 376 45 372 51 376 57" fill="#4C3D30" stroke-width="0"/>
<circle cx="496" cy="114" r="3" stroke="#4C3D30" stroke-width="3" fill="#4C3D30"/>
</svg>