<?xml version="1.0" encoding="utf-8"?>
<!-- Generated by Mocodo 4.3.2 -->
<svg width="550" height="178" viewBox="0 0 550 178" xmlns="http://www.w3.org/2000/svg">
<rect x="0" y="0" width="550" height="178" fill="none" stroke="none" stroke-width="0"/>

<!-- Entity VILLAGE -->
<g>
	<g>
		<rect x="41" y="45" width="66" height="26" fill="#FFFFFF" stroke="none" stroke-width="0" opacity="1"/>
		<rect x="41" y="71" width="66" height="62" fill="#FFFFFF" stroke="none" stroke-width="0" opacity="1"/>
		<rect x="41" y="45" width="66" height="88" fill="none" stroke="#000000" stroke-width="1.5" opacity="1"/>
		<line x1="41" y1="71" x2="107" y2="71" stroke="#000000" stroke-width="1"/>
	</g>
	<text x="47" y="63.6" fill="#000000" font-family="Trebuchet MS" font-size="14">VILLAGE</text>
	<text x="46" y="89.6" fill="#000000" font-family="Trebuchet MS" font-size="14">villageid</text>
	<line x1="46" y1="92" x2="101" y2="92" stroke="#000000" stroke-width="1"/>
	<text x="46" y="107.6" fill="#000000" font-family="Trebuchet MS" font-size="14">name</text>
	<text x="46" y="125.6" fill="#000000" font-family="Trebuchet MS" font-size="14">#chief</text>
</g>

<!-- Entity INHABITANT -->
<g>
	<g>
		<rect x="235" y="9" width="88" height="26" fill="#FFFFFF" stroke="none" stroke-width="0" opacity="1"/>
		<rect x="235" y="35" width="88" height="134" fill="#FFFFFF" stroke="none" stroke-width="0" opacity="1"/>
		<rect x="235" y="9" width="88" height="160" fill="none" stroke="#000000" stroke-width="1.5" opacity="1"/>
		<line x1="235" y1="35" x2="323" y2="35" stroke="#000000" stroke-width="1"/>
	</g>
	<text x="240" y="27.6" fill="#000000" font-family="Trebuchet MS" font-size="14">INHABITANT</text>
	<text x="240" y="53.6" fill="#000000" font-family="Trebuchet MS" font-size="14">personid</text>
	<line x1="240" y1="56" x2="296" y2="56" stroke="#000000" stroke-width="1"/>
	<text x="240" y="71.6" fill="#000000" font-family="Trebuchet MS" font-size="14">name</text>
	<text x="240" y="89.6" fill="#000000" font-family="Trebuchet MS" font-size="14">#villageid</text>
	<text x="240" y="107.6" fill="#000000" font-family="Trebuchet MS" font-size="14">gender</text>
	<text x="240" y="125.6" fill="#000000" font-family="Trebuchet MS" font-size="14">job</text>
	<text x="240" y="143.6" fill="#000000" font-family="Trebuchet MS" font-size="14">gold</text>
	<text x="240" y="161.6" fill="#000000" font-family="Trebuchet MS" font-size="14">state</text>
</g>

<!-- Entity ITEM -->
<g>
	<g>
		<rect x="451" y="54" width="58" height="26" fill="#FFFFFF" stroke="none" stroke-width="0" opacity="1"/>
		<rect x="451" y="80" width="58" height="44" fill="#FFFFFF" stroke="none" stroke-width="0" opacity="1"/>
		<rect x="451" y="54" width="58" height="70" fill="none" stroke="#000000" stroke-width="1.5" opacity="1"/>
		<line x1="451" y1="80" x2="509" y2="80" stroke="#000000" stroke-width="1"/>
	</g>
	<text x="465" y="72.6" fill="#000000" font-family="Trebuchet MS" font-size="14">ITEM</text>
	<text x="456" y="98.6" fill="#000000" font-family="Trebuchet MS" font-size="14">item</text>
	<line x1="456" y1="101" x2="487" y2="101" stroke="#000000" stroke-width="1"/>
	<text x="456" y="116.6" fill="#000000" font-family="Trebuchet MS" font-size="14">#owner</text>
</g>

<!-- Link from &quot;personid&quot; (VILLAGE) to &quot;personid&quot; (INHABITANT) -->
<path d="M107 121 C171 85 149.67 49 235 49" fill="none" stroke="#000000" stroke-width="1"/>
<polygon points="235 49 223 55 227 49 223 43" fill="#000000" stroke-width="0"/>
<circle cx="107" cy="121" r="1.5" stroke="#000000" stroke-width="1.5" fill="#000000"/>

<!-- Link from &quot;villageid&quot; (INHABITANT) to &quot;villageid&quot; (VILLAGE) -->
<path d="M235 85 C171 85 192.33 85 107 85" fill="none" stroke="#000000" stroke-width="1"/>
<polygon points="107 85 119 79 115 85 119 91" fill="#000000" stroke-width="0"/>
<circle cx="235" cy="85" r="1.5" stroke="#000000" stroke-width="1.5" fill="#000000"/>

<!-- Link from &quot;personid&quot; (ITEM) to &quot;personid&quot; (INHABITANT) -->
<path d="M451 112 C387 80.5 408.33 49 323 49" fill="none" stroke="#000000" stroke-width="1"/>
<polygon points="323 49 335 43 331 49 335 55" fill="#000000" stroke-width="0"/>
<circle cx="451" cy="112" r="1.5" stroke="#000000" stroke-width="1.5" fill="#000000"/>
</svg>