<?xml version="1.0" encoding="UTF-8" standalone="no"?>
<!DOCTYPE svg PUBLIC "-//W3C//DTD SVG 1.1//EN"
 "http://www.w3.org/Graphics/SVG/1.1/DTD/svg11.dtd">
<!-- Generated by graphviz version 12.2.1 (20241206.2353)
 -->
<!-- Title: G Pages: 1 -->
<svg width="2643pt" height="683pt"
 viewBox="0.00 0.00 2643.00 682.80" xmlns="http://www.w3.org/2000/svg" xmlns:xlink="http://www.w3.org/1999/xlink">
<g id="graph0" class="graph" transform="scale(1 1) rotate(0) translate(4 678.8)">
<title>G</title>
<polygon fill="#fdfeff" stroke="none" points="-4,4 -4,-678.8 2639,-678.8 2639,4 -4,4"/>
<!-- 049 -->
<g id="node1" class="node">
<title>049</title>
<polygon fill="#fee548" stroke="#34262b" points="2635,-641.8 2600.3,-641.8 2589.57,-674.8 2578.85,-641.8 2544.15,-641.8 2572.22,-621.4 2561.5,-588.4 2589.57,-608.8 2617.65,-588.4 2606.92,-621.4 2635,-641.8"/>
<text text-anchor="middle" x="2589.57" y="-623.88" font-family="Helvetica,sans-Serif" font-size="18.00" fill="#34262b">049</text>
<text text-anchor="middle" x="2534.4" y="-571.3" font-family="Helvetica,sans-Serif" font-size="18.00" fill="#34262b">35</text>
</g>
<!-- 002 -->
<g id="node2" class="node">
<title>002</title>
<ellipse fill="#ffc19c" stroke="#34262b" cx="110.55" cy="-40.6" rx="21.6" ry="21.6"/>
<text text-anchor="middle" x="110.55" y="-32.88" font-family="Helvetica,sans-Serif" font-size="18.00" fill="#34262b">002</text>
<text text-anchor="middle" x="84.07" y="-1.9" font-family="Helvetica,sans-Serif" font-size="18.00" fill="#34262b">2</text>
</g>
<!-- 048 -->
<g id="node18" class="node">
<title>048</title>
<ellipse fill="#ffc19c" stroke="#34262b" cx="189.75" cy="-40.6" rx="21.6" ry="21.6"/>
<text text-anchor="middle" x="189.75" y="-32.88" font-family="Helvetica,sans-Serif" font-size="18.00" fill="#34262b">048</text>
<text text-anchor="middle" x="163.27" y="-1.9" font-family="Helvetica,sans-Serif" font-size="18.00" fill="#34262b">3</text>
</g>
<!-- 002&#45;&gt;048 -->
<g id="edge1" class="edge">
<title>002&#45;&gt;048</title>
<path fill="none" stroke="#34262b" stroke-width="0.75" d="M132.65,-40.6C140.05,-40.6 148.54,-40.6 156.64,-40.6"/>
<polygon fill="#34262b" stroke="#34262b" stroke-width="0.75" points="156.55,-44.1 166.55,-40.6 156.55,-37.1 156.55,-44.1"/>
</g>
<!-- 004 -->
<g id="node3" class="node">
<title>004</title>
<ellipse fill="#ffc19c" stroke="#34262b" cx="2328.15" cy="-609.6" rx="21.6" ry="21.6"/>
<text text-anchor="middle" x="2328.15" y="-601.88" font-family="Helvetica,sans-Serif" font-size="18.00" fill="#34262b">004</text>
<text text-anchor="middle" x="2296.8" y="-570.9" font-family="Helvetica,sans-Serif" font-size="18.00" fill="#34262b">31</text>
</g>
<!-- 051 -->
<g id="node19" class="node">
<title>051</title>
<ellipse fill="#ffc19c" stroke="#34262b" cx="2407.35" cy="-631.6" rx="21.6" ry="21.6"/>
<text text-anchor="middle" x="2407.35" y="-623.88" font-family="Helvetica,sans-Serif" font-size="18.00" fill="#34262b">051</text>
<text text-anchor="middle" x="2376" y="-592.9" font-family="Helvetica,sans-Serif" font-size="18.00" fill="#34262b">32</text>
</g>
<!-- 004&#45;&gt;051 -->
<g id="edge2" class="edge">
<title>004&#45;&gt;051</title>
<path fill="none" stroke="#34262b" stroke-width="0.75" d="M2349.43,-615.38C2357.41,-617.65 2366.75,-620.31 2375.53,-622.82"/>
<polygon fill="#34262b" stroke="#34262b" stroke-width="0.75" points="2374.53,-626.17 2385.11,-625.55 2376.45,-619.44 2374.53,-626.17"/>
</g>
<!-- 66225330703443 -->
<g id="node62" class="node">
<title>66225330703443</title>
<ellipse fill="none" stroke="#34262b" cx="2407.35" cy="-588.6" rx="3.6" ry="3.6"/>
<text text-anchor="middle" x="2398.87" y="-567.9" font-family="Helvetica,sans-Serif" font-size="18.00" fill="#34262b">1</text>
</g>
<!-- 004&#45;&gt;66225330703443 -->
<g id="edge42" class="edge">
<title>004&#45;&gt;66225330703443</title>
<path fill="none" stroke="#34262b" stroke-width="0.75" d="M2349.43,-604.08C2368.38,-598.93 2394.98,-591.69 2403.56,-589.36"/>
</g>
<!-- 010 -->
<g id="node4" class="node">
<title>010</title>
<ellipse fill="#ffc19c" stroke="#34262b" cx="1456.95" cy="-445.6" rx="21.6" ry="21.6"/>
<text text-anchor="middle" x="1456.95" y="-437.88" font-family="Helvetica,sans-Serif" font-size="18.00" fill="#34262b">010</text>
<text text-anchor="middle" x="1425.6" y="-406.9" font-family="Helvetica,sans-Serif" font-size="18.00" fill="#34262b">20</text>
</g>
<!-- 086 -->
<g id="node30" class="node">
<title>086</title>
<ellipse fill="#ffc19c" stroke="#34262b" cx="1536.15" cy="-445.6" rx="21.6" ry="21.6"/>
<text text-anchor="middle" x="1536.15" y="-437.88" font-family="Helvetica,sans-Serif" font-size="18.00" fill="#34262b">086</text>
<text text-anchor="middle" x="1504.8" y="-406.9" font-family="Helvetica,sans-Serif" font-size="18.00" fill="#34262b">21</text>
</g>
<!-- 010&#45;&gt;086 -->
<g id="edge3" class="edge">
<title>010&#45;&gt;086</title>
<path fill="none" stroke="#34262b" stroke-width="0.75" d="M1479.05,-445.6C1486.45,-445.6 1494.94,-445.6 1503.04,-445.6"/>
<polygon fill="#34262b" stroke="#34262b" stroke-width="0.75" points="1502.95,-449.1 1512.95,-445.6 1502.95,-442.1 1502.95,-449.1"/>
</g>
<!-- 012 -->
<g id="node5" class="node">
<title>012</title>
<ellipse fill="#ffc19c" stroke="#34262b" cx="1773.75" cy="-488.6" rx="21.6" ry="21.6"/>
<text text-anchor="middle" x="1773.75" y="-480.88" font-family="Helvetica,sans-Serif" font-size="18.00" fill="#34262b">012</text>
<text text-anchor="middle" x="1742.4" y="-449.9" font-family="Helvetica,sans-Serif" font-size="18.00" fill="#34262b">24</text>
</g>
<!-- 032 -->
<g id="node11" class="node">
<title>032</title>
<ellipse fill="#ffc19c" stroke="#34262b" cx="1852.95" cy="-488.6" rx="21.6" ry="21.6"/>
<text text-anchor="middle" x="1852.95" y="-480.88" font-family="Helvetica,sans-Serif" font-size="18.00" fill="#34262b">032</text>
<text text-anchor="middle" x="1821.6" y="-449.9" font-family="Helvetica,sans-Serif" font-size="18.00" fill="#34262b">25</text>
</g>
<!-- 012&#45;&gt;032 -->
<g id="edge4" class="edge">
<title>012&#45;&gt;032</title>
<path fill="none" stroke="#34262b" stroke-width="0.75" d="M1795.85,-488.6C1803.25,-488.6 1811.74,-488.6 1819.84,-488.6"/>
<polygon fill="#34262b" stroke="#34262b" stroke-width="0.75" points="1819.75,-492.1 1829.75,-488.6 1819.75,-485.1 1819.75,-492.1"/>
</g>
<!-- 018 -->
<g id="node6" class="node">
<title>018</title>
<ellipse fill="#ffc19c" stroke="#34262b" cx="2248.95" cy="-609.6" rx="21.6" ry="21.6"/>
<text text-anchor="middle" x="2248.95" y="-601.88" font-family="Helvetica,sans-Serif" font-size="18.00" fill="#34262b">018</text>
<text text-anchor="middle" x="2217.6" y="-570.9" font-family="Helvetica,sans-Serif" font-size="18.00" fill="#34262b">30</text>
</g>
<!-- 018&#45;&gt;004 -->
<g id="edge5" class="edge">
<title>018&#45;&gt;004</title>
<path fill="none" stroke="#34262b" stroke-width="0.75" d="M2271.05,-609.6C2278.45,-609.6 2286.94,-609.6 2295.04,-609.6"/>
<polygon fill="#34262b" stroke="#34262b" stroke-width="0.75" points="2294.95,-613.1 2304.95,-609.6 2294.95,-606.1 2294.95,-613.1"/>
</g>
<!-- 023 -->
<g id="node7" class="node">
<title>023</title>
<ellipse fill="#ffc19c" stroke="#34262b" cx="268.95" cy="-40.6" rx="21.6" ry="21.6"/>
<text text-anchor="middle" x="268.95" y="-32.88" font-family="Helvetica,sans-Serif" font-size="18.00" fill="#34262b">023</text>
<text text-anchor="middle" x="242.47" y="-1.9" font-family="Helvetica,sans-Serif" font-size="18.00" fill="#34262b">4</text>
</g>
<!-- 060 -->
<g id="node22" class="node">
<title>060</title>
<ellipse fill="#ffc19c" stroke="#34262b" cx="348.15" cy="-96.6" rx="21.6" ry="21.6"/>
<text text-anchor="middle" x="348.15" y="-88.88" font-family="Helvetica,sans-Serif" font-size="18.00" fill="#34262b">060</text>
<text text-anchor="middle" x="321.67" y="-57.9" font-family="Helvetica,sans-Serif" font-size="18.00" fill="#34262b">5</text>
</g>
<!-- 023&#45;&gt;060 -->
<g id="edge6" class="edge">
<title>023&#45;&gt;060</title>
<path fill="none" stroke="#34262b" stroke-width="0.75" d="M287.08,-53.03C297.08,-60.28 309.89,-69.57 321.11,-77.71"/>
<polygon fill="#34262b" stroke="#34262b" stroke-width="0.75" points="319,-80.5 329.15,-83.54 323.11,-74.84 319,-80.5"/>
</g>
<!-- 36544000811616 -->
<g id="node56" class="node">
<title>36544000811616</title>
<ellipse fill="none" stroke="#34262b" cx="348.15" cy="-53.6" rx="3.6" ry="3.6"/>
</g>
<!-- 023&#45;&gt;36544000811616 -->
<g id="edge43" class="edge">
<title>023&#45;&gt;36544000811616</title>
<path fill="none" stroke="#34262b" stroke-width="0.75" d="M290.64,-44.08C309.58,-47.27 335.9,-51.71 344.39,-53.14"/>
</g>
<!-- 48038106262884 -->
<g id="node60" class="node">
<title>48038106262884</title>
<ellipse fill="none" stroke="#34262b" cx="348.15" cy="-28.6" rx="3.6" ry="3.6"/>
<text text-anchor="middle" x="339.67" y="-7.9" font-family="Helvetica,sans-Serif" font-size="18.00" fill="#34262b">3</text>
</g>
<!-- 023&#45;&gt;48038106262884 -->
<g id="edge44" class="edge">
<title>023&#45;&gt;48038106262884</title>
<path fill="none" stroke="#34262b" stroke-width="0.75" d="M290.64,-37.38C309.58,-34.44 335.9,-30.35 344.39,-29.03"/>
</g>
<!-- 49634567641071 -->
<g id="node61" class="node">
<title>49634567641071</title>
<ellipse fill="none" stroke="#34262b" cx="348.15" cy="-3.6" rx="3.6" ry="3.6"/>
</g>
<!-- 023&#45;&gt;49634567641071 -->
<g id="edge45" class="edge">
<title>023&#45;&gt;49634567641071</title>
<path fill="none" stroke="#34262b" stroke-width="0.75" d="M289.03,-31.45C308.32,-22.21 336.44,-8.74 344.75,-4.75"/>
</g>
<!-- 024 -->
<g id="node8" class="node">
<title>024</title>
<ellipse fill="#ffc19c" stroke="#34262b" cx="981.75" cy="-241.6" rx="21.6" ry="21.6"/>
<text text-anchor="middle" x="981.75" y="-233.88" font-family="Helvetica,sans-Serif" font-size="18.00" fill="#34262b">024</text>
<text text-anchor="middle" x="950.4" y="-202.9" font-family="Helvetica,sans-Serif" font-size="18.00" fill="#34262b">13</text>
</g>
<!-- 034 -->
<g id="node13" class="node">
<title>034</title>
<ellipse fill="#ffc19c" stroke="#34262b" cx="1060.95" cy="-297.6" rx="21.6" ry="21.6"/>
<text text-anchor="middle" x="1060.95" y="-289.88" font-family="Helvetica,sans-Serif" font-size="18.00" fill="#34262b">034</text>
<text text-anchor="middle" x="1029.6" y="-258.9" font-family="Helvetica,sans-Serif" font-size="18.00" fill="#34262b">14</text>
</g>
<!-- 024&#45;&gt;034 -->
<g id="edge7" class="edge">
<title>024&#45;&gt;034</title>
<path fill="none" stroke="#34262b" stroke-width="0.75" d="M1002.23,-249.78C1012.95,-256.58 1026.29,-266.17 1037.45,-275.08"/>
<polygon fill="#34262b" stroke="#34262b" stroke-width="0.75" points="1035.02,-277.61 1044.96,-281.28 1039.48,-272.21 1035.02,-277.61"/>
</g>
<!-- 024&#45;&gt;034 -->
<g id="edge8" class="edge">
<title>024&#45;&gt;034</title>
<path fill="none" stroke="#34262b" stroke-width="0.75" d="M996.91,-257.24C1006.6,-265.55 1019.77,-275.5 1031.57,-283.55"/>
<polygon fill="#34262b" stroke="#34262b" stroke-width="0.75" points="1029.42,-286.33 1039.7,-288.91 1033.28,-280.48 1029.42,-286.33"/>
</g>
<!-- 161728381954968 -->
<g id="node40" class="node">
<title>161728381954968</title>
<ellipse fill="none" stroke="#34262b" cx="1060.95" cy="-254.6" rx="3.6" ry="3.6"/>
</g>
<!-- 024&#45;&gt;161728381954968 -->
<g id="edge46" class="edge">
<title>024&#45;&gt;161728381954968</title>
<path fill="none" stroke="#34262b" stroke-width="0.75" d="M1003.44,-245.08C1022.38,-248.27 1048.7,-252.71 1057.19,-254.14"/>
</g>
<!-- 165711365329111 -->
<g id="node42" class="node">
<title>165711365329111</title>
<ellipse fill="none" stroke="#34262b" cx="1060.95" cy="-229.6" rx="3.6" ry="3.6"/>
<text text-anchor="middle" x="1052.47" y="-208.9" font-family="Helvetica,sans-Serif" font-size="18.00" fill="#34262b">4</text>
</g>
<!-- 024&#45;&gt;165711365329111 -->
<g id="edge47" class="edge">
<title>024&#45;&gt;165711365329111</title>
<path fill="none" stroke="#34262b" stroke-width="0.75" d="M1003.44,-238.38C1022.38,-235.44 1048.7,-231.35 1057.19,-230.03"/>
</g>
<!-- 165881901973859 -->
<g id="node43" class="node">
<title>165881901973859</title>
<ellipse fill="none" stroke="#34262b" cx="1060.95" cy="-204.6" rx="3.6" ry="3.6"/>
</g>
<!-- 024&#45;&gt;165881901973859 -->
<g id="edge48" class="edge">
<title>024&#45;&gt;165881901973859</title>
<path fill="none" stroke="#34262b" stroke-width="0.75" d="M1001.83,-232.45C1021.12,-223.21 1049.24,-209.74 1057.55,-205.75"/>
</g>
<!-- 166447123487581 -->
<g id="node44" class="node">
<title>166447123487581</title>
<ellipse fill="none" stroke="#34262b" cx="1060.95" cy="-179.6" rx="3.6" ry="3.6"/>
</g>
<!-- 024&#45;&gt;166447123487581 -->
<g id="edge49" class="edge">
<title>024&#45;&gt;166447123487581</title>
<path fill="none" stroke="#34262b" stroke-width="0.75" d="M997.92,-226.73C1008.94,-216.29 1024.47,-202.35 1039.35,-191.6 1045.39,-187.24 1053.12,-183.08 1057.18,-180.99"/>
</g>
<!-- 025 -->
<g id="node9" class="node">
<title>025</title>
<ellipse fill="#ffc19c" stroke="#34262b" cx="902.55" cy="-216.6" rx="21.6" ry="21.6"/>
<text text-anchor="middle" x="902.55" y="-208.88" font-family="Helvetica,sans-Serif" font-size="18.00" fill="#34262b">025</text>
<text text-anchor="middle" x="871.2" y="-177.9" font-family="Helvetica,sans-Serif" font-size="18.00" fill="#34262b">12</text>
</g>
<!-- 025&#45;&gt;024 -->
<g id="edge9" class="edge">
<title>025&#45;&gt;024</title>
<path fill="none" stroke="#34262b" stroke-width="0.75" d="M923.43,-223.04C931.56,-225.67 941.15,-228.78 950.14,-231.69"/>
<polygon fill="#34262b" stroke="#34262b" stroke-width="0.75" points="949,-235 959.59,-234.75 951.15,-228.34 949,-235"/>
</g>
<!-- 029 -->
<g id="node10" class="node">
<title>029</title>
<ellipse fill="#ffc19c" stroke="#34262b" cx="1615.35" cy="-445.6" rx="21.6" ry="21.6"/>
<text text-anchor="middle" x="1615.35" y="-437.88" font-family="Helvetica,sans-Serif" font-size="18.00" fill="#34262b">029</text>
<text text-anchor="middle" x="1584" y="-406.9" font-family="Helvetica,sans-Serif" font-size="18.00" fill="#34262b">22</text>
</g>
<!-- 045 -->
<g id="node16" class="node">
<title>045</title>
<ellipse fill="#ffc19c" stroke="#34262b" cx="1694.55" cy="-445.6" rx="21.6" ry="21.6"/>
<text text-anchor="middle" x="1694.55" y="-437.88" font-family="Helvetica,sans-Serif" font-size="18.00" fill="#34262b">045</text>
<text text-anchor="middle" x="1663.2" y="-406.9" font-family="Helvetica,sans-Serif" font-size="18.00" fill="#34262b">23</text>
</g>
<!-- 029&#45;&gt;045 -->
<g id="edge10" class="edge">
<title>029&#45;&gt;045</title>
<path fill="none" stroke="#34262b" stroke-width="0.75" d="M1636.23,-439.61C1644.27,-438.9 1653.74,-438.69 1662.65,-438.97"/>
<polygon fill="#34262b" stroke="#34262b" stroke-width="0.75" points="1662.15,-442.45 1672.33,-439.53 1662.55,-435.46 1662.15,-442.45"/>
</g>
<!-- 029&#45;&gt;045 -->
<g id="edge11" class="edge">
<title>029&#45;&gt;045</title>
<path fill="none" stroke="#34262b" stroke-width="0.75" d="M1636.23,-451.59C1644.27,-452.3 1653.74,-452.51 1662.65,-452.23"/>
<polygon fill="#34262b" stroke="#34262b" stroke-width="0.75" points="1662.55,-455.74 1672.33,-451.67 1662.15,-448.75 1662.55,-455.74"/>
</g>
<!-- 036 -->
<g id="node15" class="node">
<title>036</title>
<ellipse fill="#ffc19c" stroke="#34262b" cx="1932.15" cy="-544.6" rx="21.6" ry="21.6"/>
<text text-anchor="middle" x="1932.15" y="-536.88" font-family="Helvetica,sans-Serif" font-size="18.00" fill="#34262b">036</text>
<text text-anchor="middle" x="1900.8" y="-505.9" font-family="Helvetica,sans-Serif" font-size="18.00" fill="#34262b">26</text>
</g>
<!-- 032&#45;&gt;036 -->
<g id="edge12" class="edge">
<title>032&#45;&gt;036</title>
<path fill="none" stroke="#34262b" stroke-width="0.75" d="M1871.08,-501.03C1881.08,-508.28 1893.89,-517.57 1905.11,-525.71"/>
<polygon fill="#34262b" stroke="#34262b" stroke-width="0.75" points="1903,-528.5 1913.15,-531.54 1907.11,-522.84 1903,-528.5"/>
</g>
<!-- 39735907674280 -->
<g id="node57" class="node">
<title>39735907674280</title>
<ellipse fill="none" stroke="#34262b" cx="1932.15" cy="-501.6" rx="3.6" ry="3.6"/>
</g>
<!-- 032&#45;&gt;39735907674280 -->
<g id="edge50" class="edge">
<title>032&#45;&gt;39735907674280</title>
<path fill="none" stroke="#34262b" stroke-width="0.75" d="M1874.64,-492.08C1893.58,-495.27 1919.9,-499.71 1928.39,-501.14"/>
</g>
<!-- 39891969235649 -->
<g id="node58" class="node">
<title>39891969235649</title>
<ellipse fill="none" stroke="#34262b" cx="1932.15" cy="-476.6" rx="3.6" ry="3.6"/>
</g>
<!-- 032&#45;&gt;39891969235649 -->
<g id="edge51" class="edge">
<title>032&#45;&gt;39891969235649</title>
<path fill="none" stroke="#34262b" stroke-width="0.75" d="M1874.64,-485.38C1893.58,-482.44 1919.9,-478.35 1928.39,-477.03"/>
</g>
<!-- 40030811180335 -->
<g id="node59" class="node">
<title>40030811180335</title>
<ellipse fill="none" stroke="#34262b" cx="1932.15" cy="-451.6" rx="3.6" ry="3.6"/>
<text text-anchor="middle" x="1923.67" y="-430.9" font-family="Helvetica,sans-Serif" font-size="18.00" fill="#34262b">3</text>
</g>
<!-- 032&#45;&gt;40030811180335 -->
<g id="edge52" class="edge">
<title>032&#45;&gt;40030811180335</title>
<path fill="none" stroke="#34262b" stroke-width="0.75" d="M1873.03,-479.45C1892.32,-470.21 1920.44,-456.74 1928.75,-452.75"/>
</g>
<!-- 033 -->
<g id="node12" class="node">
<title>033</title>
<ellipse fill="#ffc19c" stroke="#34262b" cx="823.35" cy="-194.6" rx="21.6" ry="21.6"/>
<text text-anchor="middle" x="823.35" y="-186.88" font-family="Helvetica,sans-Serif" font-size="18.00" fill="#34262b">033</text>
<text text-anchor="middle" x="792.75" y="-155.9" font-family="Helvetica,sans-Serif" font-size="18.00" fill="#34262b">11</text>
</g>
<!-- 033&#45;&gt;024 -->
<g id="edge13" class="edge">
<title>033&#45;&gt;024</title>
<path fill="none" stroke="#34262b" stroke-width="0.75" d="M836.81,-211.81C847.05,-224.38 862.8,-240.43 880.95,-247.6 902.91,-256.28 929.72,-254.04 950.02,-250.03"/>
<polygon fill="#34262b" stroke="#34262b" stroke-width="0.75" points="950.74,-253.46 959.73,-247.86 949.21,-246.63 950.74,-253.46"/>
</g>
<!-- 033&#45;&gt;025 -->
<g id="edge14" class="edge">
<title>033&#45;&gt;025</title>
<path fill="none" stroke="#34262b" stroke-width="0.75" d="M844.63,-200.38C852.61,-202.65 861.95,-205.31 870.73,-207.82"/>
<polygon fill="#34262b" stroke="#34262b" stroke-width="0.75" points="869.73,-211.17 880.31,-210.55 871.65,-204.44 869.73,-211.17"/>
</g>
<!-- 133844634368524 -->
<g id="node38" class="node">
<title>133844634368524</title>
<ellipse fill="none" stroke="#34262b" cx="902.55" cy="-173.6" rx="3.6" ry="3.6"/>
<text text-anchor="middle" x="894.07" y="-152.9" font-family="Helvetica,sans-Serif" font-size="18.00" fill="#34262b">2</text>
</g>
<!-- 033&#45;&gt;133844634368524 -->
<g id="edge53" class="edge">
<title>033&#45;&gt;133844634368524</title>
<path fill="none" stroke="#34262b" stroke-width="0.75" d="M844.63,-189.08C863.58,-183.93 890.18,-176.69 898.76,-174.36"/>
</g>
<!-- 137567818264690 -->
<g id="node39" class="node">
<title>137567818264690</title>
<ellipse fill="none" stroke="#34262b" cx="902.55" cy="-148.6" rx="3.6" ry="3.6"/>
</g>
<!-- 033&#45;&gt;137567818264690 -->
<g id="edge54" class="edge">
<title>033&#45;&gt;137567818264690</title>
<path fill="none" stroke="#34262b" stroke-width="0.75" d="M842.41,-183.67C853.51,-176.97 868.03,-168.25 880.95,-160.6 887.36,-156.81 894.94,-152.42 898.88,-150.14"/>
</g>
<!-- 091 -->
<g id="node32" class="node">
<title>091</title>
<ellipse fill="#ffc19c" stroke="#34262b" cx="1140.15" cy="-297.6" rx="21.6" ry="21.6"/>
<text text-anchor="middle" x="1140.15" y="-289.88" font-family="Helvetica,sans-Serif" font-size="18.00" fill="#34262b">091</text>
<text text-anchor="middle" x="1108.8" y="-258.9" font-family="Helvetica,sans-Serif" font-size="18.00" fill="#34262b">15</text>
</g>
<!-- 034&#45;&gt;091 -->
<g id="edge15" class="edge">
<title>034&#45;&gt;091</title>
<path fill="none" stroke="#34262b" stroke-width="0.75" d="M1083.05,-297.6C1090.45,-297.6 1098.94,-297.6 1107.04,-297.6"/>
<polygon fill="#34262b" stroke="#34262b" stroke-width="0.75" points="1106.95,-301.1 1116.95,-297.6 1106.95,-294.1 1106.95,-301.1"/>
</g>
<!-- 035 -->
<g id="node14" class="node">
<title>035</title>
<ellipse fill="#ffc19c" stroke="#34262b" cx="2011.35" cy="-587.6" rx="21.6" ry="21.6"/>
<text text-anchor="middle" x="2011.35" y="-579.88" font-family="Helvetica,sans-Serif" font-size="18.00" fill="#34262b">035</text>
<text text-anchor="middle" x="1980" y="-548.9" font-family="Helvetica,sans-Serif" font-size="18.00" fill="#34262b">27</text>
</g>
<!-- 046 -->
<g id="node17" class="node">
<title>046</title>
<ellipse fill="#ffc19c" stroke="#34262b" cx="2090.55" cy="-587.6" rx="21.6" ry="21.6"/>
<text text-anchor="middle" x="2090.55" y="-579.88" font-family="Helvetica,sans-Serif" font-size="18.00" fill="#34262b">046</text>
<text text-anchor="middle" x="2059.2" y="-548.9" font-family="Helvetica,sans-Serif" font-size="18.00" fill="#34262b">28</text>
</g>
<!-- 035&#45;&gt;046 -->
<g id="edge16" class="edge">
<title>035&#45;&gt;046</title>
<path fill="none" stroke="#34262b" stroke-width="0.75" d="M2033.45,-587.6C2040.85,-587.6 2049.34,-587.6 2057.44,-587.6"/>
<polygon fill="#34262b" stroke="#34262b" stroke-width="0.75" points="2057.35,-591.1 2067.35,-587.6 2057.35,-584.1 2057.35,-591.1"/>
</g>
<!-- 036&#45;&gt;035 -->
<g id="edge17" class="edge">
<title>036&#45;&gt;035</title>
<path fill="none" stroke="#34262b" stroke-width="0.75" d="M1951.45,-554.79C1960.7,-559.95 1972.14,-566.32 1982.47,-572.07"/>
<polygon fill="#34262b" stroke="#34262b" stroke-width="0.75" points="1980.49,-574.97 1990.93,-576.78 1983.89,-568.86 1980.49,-574.97"/>
</g>
<!-- 128750693527757 -->
<g id="node36" class="node">
<title>128750693527757</title>
<ellipse fill="none" stroke="#34262b" cx="2011.35" cy="-544.6" rx="3.6" ry="3.6"/>
</g>
<!-- 036&#45;&gt;128750693527757 -->
<g id="edge55" class="edge">
<title>036&#45;&gt;128750693527757</title>
<path fill="none" stroke="#34262b" stroke-width="0.75" d="M1954.25,-544.6C1973.17,-544.6 1999.23,-544.6 2007.63,-544.6"/>
</g>
<!-- 130035311163695 -->
<g id="node37" class="node">
<title>130035311163695</title>
<ellipse fill="none" stroke="#34262b" cx="2011.35" cy="-519.6" rx="3.6" ry="3.6"/>
<text text-anchor="middle" x="2002.87" y="-498.9" font-family="Helvetica,sans-Serif" font-size="18.00" fill="#34262b">2</text>
</g>
<!-- 036&#45;&gt;130035311163695 -->
<g id="edge56" class="edge">
<title>036&#45;&gt;130035311163695</title>
<path fill="none" stroke="#34262b" stroke-width="0.75" d="M1953.03,-538.16C1971.97,-532.03 1998.85,-523.32 2007.53,-520.51"/>
</g>
<!-- 045&#45;&gt;012 -->
<g id="edge19" class="edge">
<title>045&#45;&gt;012</title>
<path fill="none" stroke="#34262b" stroke-width="0.75" d="M1713.85,-455.79C1723.1,-460.95 1734.54,-467.32 1744.87,-473.07"/>
<polygon fill="#34262b" stroke="#34262b" stroke-width="0.75" points="1742.89,-475.97 1753.33,-477.78 1746.29,-469.86 1742.89,-475.97"/>
</g>
<!-- 234350336086754 -->
<g id="node48" class="node">
<title>234350336086754</title>
<ellipse fill="none" stroke="#34262b" cx="1773.75" cy="-445.6" rx="3.6" ry="3.6"/>
<text text-anchor="middle" x="1765.27" y="-424.9" font-family="Helvetica,sans-Serif" font-size="18.00" fill="#34262b">2</text>
</g>
<!-- 045&#45;&gt;234350336086754 -->
<g id="edge57" class="edge">
<title>045&#45;&gt;234350336086754</title>
<path fill="none" stroke="#34262b" stroke-width="0.75" d="M1716.65,-445.6C1735.57,-445.6 1761.63,-445.6 1770.03,-445.6"/>
</g>
<!-- 237791690290201 -->
<g id="node49" class="node">
<title>237791690290201</title>
<ellipse fill="none" stroke="#34262b" cx="1773.75" cy="-420.6" rx="3.6" ry="3.6"/>
</g>
<!-- 045&#45;&gt;237791690290201 -->
<g id="edge58" class="edge">
<title>045&#45;&gt;237791690290201</title>
<path fill="none" stroke="#34262b" stroke-width="0.75" d="M1715.43,-439.16C1734.37,-433.03 1761.25,-424.32 1769.93,-421.51"/>
</g>
<!-- 071 -->
<g id="node24" class="node">
<title>071</title>
<ellipse fill="#ffc19c" stroke="#34262b" cx="2169.75" cy="-609.6" rx="21.6" ry="21.6"/>
<text text-anchor="middle" x="2169.75" y="-601.88" font-family="Helvetica,sans-Serif" font-size="18.00" fill="#34262b">071</text>
<text text-anchor="middle" x="2138.4" y="-570.9" font-family="Helvetica,sans-Serif" font-size="18.00" fill="#34262b">29</text>
</g>
<!-- 046&#45;&gt;071 -->
<g id="edge20" class="edge">
<title>046&#45;&gt;071</title>
<path fill="none" stroke="#34262b" stroke-width="0.75" d="M2111.83,-593.38C2119.81,-595.65 2129.15,-598.31 2137.93,-600.82"/>
<polygon fill="#34262b" stroke="#34262b" stroke-width="0.75" points="2136.93,-604.17 2147.51,-603.55 2138.85,-597.44 2136.93,-604.17"/>
</g>
<!-- 203589828702201 -->
<g id="node46" class="node">
<title>203589828702201</title>
<ellipse fill="none" stroke="#34262b" cx="2169.75" cy="-566.6" rx="3.6" ry="3.6"/>
<text text-anchor="middle" x="2161.27" y="-545.9" font-family="Helvetica,sans-Serif" font-size="18.00" fill="#34262b">1</text>
</g>
<!-- 046&#45;&gt;203589828702201 -->
<g id="edge59" class="edge">
<title>046&#45;&gt;203589828702201</title>
<path fill="none" stroke="#34262b" stroke-width="0.75" d="M2111.83,-582.08C2130.78,-576.93 2157.38,-569.69 2165.96,-567.36"/>
</g>
<!-- 048&#45;&gt;023 -->
<g id="edge21" class="edge">
<title>048&#45;&gt;023</title>
<path fill="none" stroke="#34262b" stroke-width="0.75" d="M211.85,-40.6C219.25,-40.6 227.74,-40.6 235.84,-40.6"/>
<polygon fill="#34262b" stroke="#34262b" stroke-width="0.75" points="235.75,-44.1 245.75,-40.6 235.75,-37.1 235.75,-44.1"/>
</g>
<!-- 051&#45;&gt;049 -->
<g id="edge22" class="edge">
<title>051&#45;&gt;049</title>
<path fill="none" stroke="#34262b" stroke-width="0.75" d="M2425.24,-643.79C2436.02,-650.81 2450.62,-658.93 2464.95,-662.6 2497.4,-670.9 2534.7,-658.55 2559.76,-647.06"/>
<polygon fill="#34262b" stroke="#34262b" stroke-width="0.75" points="2561.21,-650.25 2568.69,-642.75 2558.16,-643.95 2561.21,-650.25"/>
</g>
<!-- 052 -->
<g id="node20" class="node">
<title>052</title>
<ellipse fill="#ffc19c" stroke="#34262b" cx="2486.55" cy="-631.6" rx="21.6" ry="21.6"/>
<text text-anchor="middle" x="2486.55" y="-623.88" font-family="Helvetica,sans-Serif" font-size="18.00" fill="#34262b">052</text>
<text text-anchor="middle" x="2455.2" y="-592.9" font-family="Helvetica,sans-Serif" font-size="18.00" fill="#34262b">33</text>
</g>
<!-- 051&#45;&gt;052 -->
<g id="edge23" class="edge">
<title>051&#45;&gt;052</title>
<path fill="none" stroke="#34262b" stroke-width="0.75" d="M2429.45,-631.6C2436.85,-631.6 2445.34,-631.6 2453.44,-631.6"/>
<polygon fill="#34262b" stroke="#34262b" stroke-width="0.75" points="2453.35,-635.1 2463.35,-631.6 2453.35,-628.1 2453.35,-635.1"/>
</g>
<!-- 053 -->
<g id="node21" class="node">
<title>053</title>
<ellipse fill="#ffc19c" stroke="#34262b" cx="2486.55" cy="-570.6" rx="21.6" ry="21.6"/>
<text text-anchor="middle" x="2486.55" y="-562.88" font-family="Helvetica,sans-Serif" font-size="18.00" fill="#34262b">053</text>
<text text-anchor="middle" x="2455.2" y="-531.9" font-family="Helvetica,sans-Serif" font-size="18.00" fill="#34262b">34</text>
</g>
<!-- 051&#45;&gt;053 -->
<g id="edge24" class="edge">
<title>051&#45;&gt;053</title>
<path fill="none" stroke="#34262b" stroke-width="0.75" d="M2424.72,-618.66C2435.09,-610.47 2448.71,-599.71 2460.43,-590.45"/>
<polygon fill="#34262b" stroke="#34262b" stroke-width="0.75" points="2462.37,-593.38 2468.04,-584.43 2458.03,-587.89 2462.37,-593.38"/>
</g>
<!-- 052&#45;&gt;049 -->
<g id="edge25" class="edge">
<title>052&#45;&gt;049</title>
<path fill="none" stroke="#34262b" stroke-width="0.75" d="M2508.48,-631.6C2519.59,-631.6 2533.64,-631.6 2546.87,-631.6"/>
<polygon fill="#34262b" stroke="#34262b" stroke-width="0.75" points="2546.56,-635.1 2556.56,-631.6 2546.56,-628.1 2546.56,-635.1"/>
</g>
<!-- 053&#45;&gt;049 -->
<g id="edge26" class="edge">
<title>053&#45;&gt;049</title>
<path fill="none" stroke="#34262b" stroke-width="0.75" d="M2505.61,-581.51C2521.41,-591.05 2544.56,-605.03 2562.4,-615.79"/>
<polygon fill="#34262b" stroke="#34262b" stroke-width="0.75" points="2560.34,-618.64 2570.7,-620.81 2563.95,-612.65 2560.34,-618.64"/>
</g>
<!-- 069 -->
<g id="node23" class="node">
<title>069</title>
<ellipse fill="#ffc19c" stroke="#34262b" cx="427.35" cy="-96.6" rx="21.6" ry="21.6"/>
<text text-anchor="middle" x="427.35" y="-88.88" font-family="Helvetica,sans-Serif" font-size="18.00" fill="#34262b">069</text>
<text text-anchor="middle" x="400.87" y="-57.9" font-family="Helvetica,sans-Serif" font-size="18.00" fill="#34262b">6</text>
</g>
<!-- 060&#45;&gt;069 -->
<g id="edge27" class="edge">
<title>060&#45;&gt;069</title>
<path fill="none" stroke="#34262b" stroke-width="0.75" d="M370.25,-96.6C377.65,-96.6 386.14,-96.6 394.24,-96.6"/>
<polygon fill="#34262b" stroke="#34262b" stroke-width="0.75" points="394.15,-100.1 404.15,-96.6 394.15,-93.1 394.15,-100.1"/>
</g>
<!-- 090 -->
<g id="node31" class="node">
<title>090</title>
<ellipse fill="#ffc19c" stroke="#34262b" cx="506.55" cy="-152.6" rx="21.6" ry="21.6"/>
<text text-anchor="middle" x="506.55" y="-144.88" font-family="Helvetica,sans-Serif" font-size="18.00" fill="#34262b">090</text>
<text text-anchor="middle" x="480.07" y="-113.9" font-family="Helvetica,sans-Serif" font-size="18.00" fill="#34262b">7</text>
</g>
<!-- 069&#45;&gt;090 -->
<g id="edge28" class="edge">
<title>069&#45;&gt;090</title>
<path fill="none" stroke="#34262b" stroke-width="0.75" d="M445.48,-109.03C455.48,-116.28 468.29,-125.57 479.51,-133.71"/>
<polygon fill="#34262b" stroke="#34262b" stroke-width="0.75" points="477.4,-136.5 487.55,-139.54 481.51,-130.84 477.4,-136.5"/>
</g>
<!-- 70387888034034 -->
<g id="node63" class="node">
<title>70387888034034</title>
<ellipse fill="none" stroke="#34262b" cx="506.55" cy="-109.6" rx="3.6" ry="3.6"/>
</g>
<!-- 069&#45;&gt;70387888034034 -->
<g id="edge60" class="edge">
<title>069&#45;&gt;70387888034034</title>
<path fill="none" stroke="#34262b" stroke-width="0.75" d="M449.04,-100.08C467.98,-103.27 494.3,-107.71 502.79,-109.14"/>
</g>
<!-- 73596625706163 -->
<g id="node64" class="node">
<title>73596625706163</title>
<ellipse fill="none" stroke="#34262b" cx="506.55" cy="-84.6" rx="3.6" ry="3.6"/>
</g>
<!-- 069&#45;&gt;73596625706163 -->
<g id="edge61" class="edge">
<title>069&#45;&gt;73596625706163</title>
<path fill="none" stroke="#34262b" stroke-width="0.75" d="M449.04,-93.38C467.98,-90.44 494.3,-86.35 502.79,-85.03"/>
</g>
<!-- 76307533465793 -->
<g id="node65" class="node">
<title>76307533465793</title>
<ellipse fill="none" stroke="#34262b" cx="506.55" cy="-59.6" rx="3.6" ry="3.6"/>
<text text-anchor="middle" x="498.07" y="-38.9" font-family="Helvetica,sans-Serif" font-size="18.00" fill="#34262b">3</text>
</g>
<!-- 069&#45;&gt;76307533465793 -->
<g id="edge62" class="edge">
<title>069&#45;&gt;76307533465793</title>
<path fill="none" stroke="#34262b" stroke-width="0.75" d="M447.43,-87.45C466.72,-78.21 494.84,-64.74 503.15,-60.75"/>
</g>
<!-- 071&#45;&gt;018 -->
<g id="edge29" class="edge">
<title>071&#45;&gt;018</title>
<path fill="none" stroke="#34262b" stroke-width="0.75" d="M2191.85,-609.6C2199.25,-609.6 2207.74,-609.6 2215.84,-609.6"/>
<polygon fill="#34262b" stroke="#34262b" stroke-width="0.75" points="2215.75,-613.1 2225.75,-609.6 2215.75,-606.1 2215.75,-613.1"/>
</g>
<!-- 073 -->
<g id="node25" class="node">
<title>073</title>
<ellipse fill="#ffc19c" stroke="#34262b" cx="664.95" cy="-194.6" rx="21.6" ry="21.6"/>
<text text-anchor="middle" x="664.95" y="-186.88" font-family="Helvetica,sans-Serif" font-size="18.00" fill="#34262b">073</text>
<text text-anchor="middle" x="638.47" y="-155.9" font-family="Helvetica,sans-Serif" font-size="18.00" fill="#34262b">9</text>
</g>
<!-- 093 -->
<g id="node33" class="node">
<title>093</title>
<ellipse fill="#ffc19c" stroke="#34262b" cx="744.15" cy="-194.6" rx="21.6" ry="21.6"/>
<text text-anchor="middle" x="744.15" y="-186.88" font-family="Helvetica,sans-Serif" font-size="18.00" fill="#34262b">093</text>
<text text-anchor="middle" x="712.8" y="-155.9" font-family="Helvetica,sans-Serif" font-size="18.00" fill="#34262b">10</text>
</g>
<!-- 073&#45;&gt;093 -->
<g id="edge30" class="edge">
<title>073&#45;&gt;093</title>
<path fill="none" stroke="#34262b" stroke-width="0.75" d="M687.05,-194.6C694.45,-194.6 702.94,-194.6 711.04,-194.6"/>
<polygon fill="#34262b" stroke="#34262b" stroke-width="0.75" points="710.95,-198.1 720.95,-194.6 710.95,-191.1 710.95,-198.1"/>
</g>
<!-- 075 -->
<g id="node26" class="node">
<title>075</title>
<ellipse fill="#ffc19c" stroke="#34262b" cx="1219.35" cy="-408.6" rx="21.6" ry="21.6"/>
<text text-anchor="middle" x="1219.35" y="-400.88" font-family="Helvetica,sans-Serif" font-size="18.00" fill="#34262b">075</text>
<text text-anchor="middle" x="1188" y="-369.9" font-family="Helvetica,sans-Serif" font-size="18.00" fill="#34262b">16</text>
</g>
<!-- 080 -->
<g id="node29" class="node">
<title>080</title>
<ellipse fill="#ffc19c" stroke="#34262b" cx="1298.55" cy="-347.6" rx="21.6" ry="21.6"/>
<text text-anchor="middle" x="1298.55" y="-339.88" font-family="Helvetica,sans-Serif" font-size="18.00" fill="#34262b">080</text>
<text text-anchor="middle" x="1267.2" y="-308.9" font-family="Helvetica,sans-Serif" font-size="18.00" fill="#34262b">18</text>
</g>
<!-- 075&#45;&gt;080 -->
<g id="edge31" class="edge">
<title>075&#45;&gt;080</title>
<path fill="none" stroke="#34262b" stroke-width="0.75" d="M1236.72,-395.66C1247.09,-387.47 1260.71,-376.71 1272.43,-367.45"/>
<polygon fill="#34262b" stroke="#34262b" stroke-width="0.75" points="1274.37,-370.38 1280.04,-361.43 1270.03,-364.89 1274.37,-370.38"/>
</g>
<!-- 076 -->
<g id="node27" class="node">
<title>076</title>
<ellipse fill="#ffc19c" stroke="#34262b" cx="1219.35" cy="-347.6" rx="21.6" ry="21.6"/>
<text text-anchor="middle" x="1219.35" y="-339.88" font-family="Helvetica,sans-Serif" font-size="18.00" fill="#34262b">076</text>
<text text-anchor="middle" x="1188" y="-308.9" font-family="Helvetica,sans-Serif" font-size="18.00" fill="#34262b">17</text>
</g>
<!-- 076&#45;&gt;080 -->
<g id="edge32" class="edge">
<title>076&#45;&gt;080</title>
<path fill="none" stroke="#34262b" stroke-width="0.75" d="M1241.45,-347.6C1248.85,-347.6 1257.34,-347.6 1265.44,-347.6"/>
<polygon fill="#34262b" stroke="#34262b" stroke-width="0.75" points="1265.35,-351.1 1275.35,-347.6 1265.35,-344.1 1265.35,-351.1"/>
</g>
<!-- 078 -->
<g id="node28" class="node">
<title>078</title>
<ellipse fill="#ffc19c" stroke="#34262b" cx="1377.75" cy="-390.6" rx="21.6" ry="21.6"/>
<text text-anchor="middle" x="1377.75" y="-382.88" font-family="Helvetica,sans-Serif" font-size="18.00" fill="#34262b">078</text>
<text text-anchor="middle" x="1346.4" y="-351.9" font-family="Helvetica,sans-Serif" font-size="18.00" fill="#34262b">19</text>
</g>
<!-- 078&#45;&gt;010 -->
<g id="edge33" class="edge">
<title>078&#45;&gt;010</title>
<path fill="none" stroke="#34262b" stroke-width="0.75" d="M1395.88,-402.81C1405.88,-409.93 1418.69,-419.05 1429.91,-427.05"/>
<polygon fill="#34262b" stroke="#34262b" stroke-width="0.75" points="1427.76,-429.82 1437.94,-432.77 1431.83,-424.12 1427.76,-429.82"/>
</g>
<!-- 34691307360644 -->
<g id="node53" class="node">
<title>34691307360644</title>
<ellipse fill="none" stroke="#34262b" cx="1456.95" cy="-402.6" rx="3.6" ry="3.6"/>
</g>
<!-- 078&#45;&gt;34691307360644 -->
<g id="edge63" class="edge">
<title>078&#45;&gt;34691307360644</title>
<path fill="none" stroke="#34262b" stroke-width="0.75" d="M1399.44,-393.82C1418.38,-396.76 1444.7,-400.85 1453.19,-402.17"/>
</g>
<!-- 34691307363378 -->
<g id="node54" class="node">
<title>34691307363378</title>
<ellipse fill="none" stroke="#34262b" cx="1456.95" cy="-377.6" rx="3.6" ry="3.6"/>
<text text-anchor="middle" x="1448.47" y="-356.9" font-family="Helvetica,sans-Serif" font-size="18.00" fill="#34262b">3</text>
</g>
<!-- 078&#45;&gt;34691307363378 -->
<g id="edge64" class="edge">
<title>078&#45;&gt;34691307363378</title>
<path fill="none" stroke="#34262b" stroke-width="0.75" d="M1399.44,-387.12C1418.38,-383.93 1444.7,-379.49 1453.19,-378.06"/>
</g>
<!-- 34691307364334 -->
<g id="node55" class="node">
<title>34691307364334</title>
<ellipse fill="none" stroke="#34262b" cx="1456.95" cy="-352.6" rx="3.6" ry="3.6"/>
</g>
<!-- 078&#45;&gt;34691307364334 -->
<g id="edge65" class="edge">
<title>078&#45;&gt;34691307364334</title>
<path fill="none" stroke="#34262b" stroke-width="0.75" d="M1397.44,-381.4C1416.72,-371.91 1445.12,-357.93 1453.52,-353.79"/>
</g>
<!-- 080&#45;&gt;078 -->
<g id="edge34" class="edge">
<title>080&#45;&gt;078</title>
<path fill="none" stroke="#34262b" stroke-width="0.75" d="M1317.85,-357.79C1327.1,-362.95 1338.54,-369.32 1348.87,-375.07"/>
<polygon fill="#34262b" stroke="#34262b" stroke-width="0.75" points="1346.89,-377.97 1357.33,-379.78 1350.29,-371.86 1346.89,-377.97"/>
</g>
<!-- 17913110945546 -->
<g id="node45" class="node">
<title>17913110945546</title>
<ellipse fill="none" stroke="#34262b" cx="1377.75" cy="-347.6" rx="3.6" ry="3.6"/>
<text text-anchor="middle" x="1369.27" y="-326.9" font-family="Helvetica,sans-Serif" font-size="18.00" fill="#34262b">2</text>
</g>
<!-- 080&#45;&gt;17913110945546 -->
<g id="edge66" class="edge">
<title>080&#45;&gt;17913110945546</title>
<path fill="none" stroke="#34262b" stroke-width="0.75" d="M1320.65,-347.6C1339.57,-347.6 1365.63,-347.6 1374.03,-347.6"/>
</g>
<!-- 28860022323271 -->
<g id="node51" class="node">
<title>28860022323271</title>
<ellipse fill="none" stroke="#34262b" cx="1377.75" cy="-322.6" rx="3.6" ry="3.6"/>
</g>
<!-- 080&#45;&gt;28860022323271 -->
<g id="edge67" class="edge">
<title>080&#45;&gt;28860022323271</title>
<path fill="none" stroke="#34262b" stroke-width="0.75" d="M1319.43,-341.16C1338.37,-335.03 1365.25,-326.32 1373.93,-323.51"/>
</g>
<!-- 086&#45;&gt;029 -->
<g id="edge35" class="edge">
<title>086&#45;&gt;029</title>
<path fill="none" stroke="#34262b" stroke-width="0.75" d="M1558.25,-445.6C1565.65,-445.6 1574.14,-445.6 1582.24,-445.6"/>
<polygon fill="#34262b" stroke="#34262b" stroke-width="0.75" points="1582.15,-449.1 1592.15,-445.6 1582.15,-442.1 1582.15,-449.1"/>
</g>
<!-- 099 -->
<g id="node34" class="node">
<title>099</title>
<ellipse fill="#ffc19c" stroke="#34262b" cx="585.75" cy="-173.6" rx="21.6" ry="21.6"/>
<text text-anchor="middle" x="585.75" y="-165.88" font-family="Helvetica,sans-Serif" font-size="18.00" fill="#34262b">099</text>
<text text-anchor="middle" x="559.27" y="-134.9" font-family="Helvetica,sans-Serif" font-size="18.00" fill="#34262b">8</text>
</g>
<!-- 090&#45;&gt;099 -->
<g id="edge36" class="edge">
<title>090&#45;&gt;099</title>
<path fill="none" stroke="#34262b" stroke-width="0.75" d="M527.83,-158.12C535.81,-160.29 545.15,-162.83 553.93,-165.22"/>
<polygon fill="#34262b" stroke="#34262b" stroke-width="0.75" points="552.94,-168.57 563.51,-167.82 554.78,-161.82 552.94,-168.57"/>
</g>
<!-- 30529521407667 -->
<g id="node52" class="node">
<title>30529521407667</title>
<ellipse fill="none" stroke="#34262b" cx="585.75" cy="-130.6" rx="3.6" ry="3.6"/>
</g>
<!-- 090&#45;&gt;30529521407667 -->
<g id="edge68" class="edge">
<title>090&#45;&gt;30529521407667</title>
<path fill="none" stroke="#34262b" stroke-width="0.75" d="M527.83,-146.82C546.78,-141.42 573.38,-133.84 581.96,-131.39"/>
</g>
<!-- 091&#45;&gt;075 -->
<g id="edge37" class="edge">
<title>091&#45;&gt;075</title>
<path fill="none" stroke="#34262b" stroke-width="0.75" d="M1153.21,-314.94C1165.72,-332.92 1185.42,-361.25 1199.88,-382.05"/>
<polygon fill="#34262b" stroke="#34262b" stroke-width="0.75" points="1196.89,-383.87 1205.47,-390.08 1202.63,-379.87 1196.89,-383.87"/>
</g>
<!-- 091&#45;&gt;076 -->
<g id="edge38" class="edge">
<title>091&#45;&gt;076</title>
<path fill="none" stroke="#34262b" stroke-width="0.75" d="M1158.67,-308.95C1168.37,-315.23 1180.64,-323.17 1191.52,-330.23"/>
<polygon fill="#34262b" stroke="#34262b" stroke-width="0.75" points="1189.39,-333.01 1199.68,-335.51 1193.19,-327.14 1189.39,-333.01"/>
</g>
<!-- 091&#45;&gt;080 -->
<g id="edge39" class="edge">
<title>091&#45;&gt;080</title>
<path fill="none" stroke="#34262b" stroke-width="0.75" d="M1161.91,-299.64C1182.45,-302.09 1214.55,-307.13 1240.95,-316.6 1250.91,-320.17 1261.23,-325.33 1270.28,-330.42"/>
<polygon fill="#34262b" stroke="#34262b" stroke-width="0.75" points="1268.5,-333.43 1278.9,-335.47 1272.04,-327.39 1268.5,-333.43"/>
</g>
<!-- 23228768719000 -->
<g id="node47" class="node">
<title>23228768719000</title>
<ellipse fill="none" stroke="#34262b" cx="1219.35" cy="-265.6" rx="3.6" ry="3.6"/>
</g>
<!-- 091&#45;&gt;23228768719000 -->
<g id="edge69" class="edge">
<title>091&#45;&gt;23228768719000</title>
<path fill="none" stroke="#34262b" stroke-width="0.75" d="M1160.63,-289.53C1179.57,-281.67 1206.72,-270.42 1215.5,-266.78"/>
</g>
<!-- 25263687649022 -->
<g id="node50" class="node">
<title>25263687649022</title>
<ellipse fill="none" stroke="#34262b" cx="1219.35" cy="-240.6" rx="3.6" ry="3.6"/>
<text text-anchor="middle" x="1210.87" y="-219.9" font-family="Helvetica,sans-Serif" font-size="18.00" fill="#34262b">3</text>
</g>
<!-- 091&#45;&gt;25263687649022 -->
<g id="edge70" class="edge">
<title>091&#45;&gt;25263687649022</title>
<path fill="none" stroke="#34262b" stroke-width="0.75" d="M1157.02,-283.96C1168.12,-274.69 1183.45,-262.38 1197.75,-252.6 1203.9,-248.4 1211.59,-244.17 1215.61,-242.03"/>
</g>
<!-- 093&#45;&gt;033 -->
<g id="edge40" class="edge">
<title>093&#45;&gt;033</title>
<path fill="none" stroke="#34262b" stroke-width="0.75" d="M766.25,-194.6C773.65,-194.6 782.14,-194.6 790.24,-194.6"/>
<polygon fill="#34262b" stroke="#34262b" stroke-width="0.75" points="790.15,-198.1 800.15,-194.6 790.15,-191.1 790.15,-198.1"/>
</g>
<!-- 099&#45;&gt;073 -->
<g id="edge41" class="edge">
<title>099&#45;&gt;073</title>
<path fill="none" stroke="#34262b" stroke-width="0.75" d="M607.03,-179.12C615.01,-181.29 624.35,-183.83 633.13,-186.22"/>
<polygon fill="#34262b" stroke="#34262b" stroke-width="0.75" points="632.14,-189.57 642.71,-188.82 633.98,-182.82 632.14,-189.57"/>
</g>
<!-- 16427621247298 -->
<g id="node41" class="node">
<title>16427621247298</title>
<ellipse fill="none" stroke="#34262b" cx="664.95" cy="-151.6" rx="3.6" ry="3.6"/>
<text text-anchor="middle" x="656.47" y="-130.9" font-family="Helvetica,sans-Serif" font-size="18.00" fill="#34262b">1</text>
</g>
<!-- 099&#45;&gt;16427621247298 -->
<g id="edge71" class="edge">
<title>099&#45;&gt;16427621247298</title>
<path fill="none" stroke="#34262b" stroke-width="0.75" d="M607.03,-167.82C625.98,-162.42 652.58,-154.84 661.16,-152.39"/>
</g>
<!-- 042 -->
<g id="node35" class="node">
<title>042</title>
<ellipse fill="#dbde92" stroke="#34262b" cx="31.35" cy="-40.6" rx="21.6" ry="21.6"/>
<text text-anchor="middle" x="31.35" y="-32.88" font-family="Helvetica,sans-Serif" font-size="18.00" fill="#34262b">042</text>
<text text-anchor="middle" x="4.88" y="-1.9" font-family="Helvetica,sans-Serif" font-size="18.00" fill="#34262b">1</text>
</g>
<!-- 042&#45;&gt;002 -->
<g id="edge18" class="edge">
<title>042&#45;&gt;002</title>
<path fill="none" stroke="#34262b" stroke-width="0.75" d="M53.45,-40.6C60.85,-40.6 69.34,-40.6 77.44,-40.6"/>
<polygon fill="#34262b" stroke="#34262b" stroke-width="0.75" points="77.35,-44.1 87.35,-40.6 77.35,-37.1 77.35,-44.1"/>
</g>
</g>
</svg>
