<?xml version="1.0" encoding="UTF-8" standalone="no"?>
<!DOCTYPE svg PUBLIC "-//W3C//DTD SVG 1.1//EN"
 "http://www.w3.org/Graphics/SVG/1.1/DTD/svg11.dtd">
<!-- Generated by graphviz version 9.0.0 (20230911.1827)
 -->
<!-- Title: G Pages: 1 -->
<svg width="2633pt" height="1046pt"
 viewBox="0.00 0.00 2633.25 1045.80" xmlns="http://www.w3.org/2000/svg" xmlns:xlink="http://www.w3.org/1999/xlink">
<g id="graph0" class="graph" transform="scale(1 1) rotate(0) translate(4 1041.8)">
<title>G</title>
<polygon fill="#fdfeff" stroke="none" points="-4,4 -4,-1041.8 2629.25,-1041.8 2629.25,4 -4,4"/>
<!-- 049 -->
<g id="node1" class="node">
<title>049</title>
<polygon fill="#fee548" stroke="#34262b" points="2625.25,-1004.8 2590.55,-1004.8 2579.82,-1037.8 2569.1,-1004.8 2534.4,-1004.8 2562.47,-984.4 2551.75,-951.4 2579.82,-971.8 2607.9,-951.4 2597.17,-984.4 2625.25,-1004.8"/>
<text text-anchor="middle" x="2579.82" y="-986.88" font-family="Helvetica,sans-Serif" font-size="18.00" fill="#34262b">049</text>
</g>
<!-- 002 -->
<g id="node2" class="node">
<title>002</title>
<ellipse fill="#ffc19c" stroke="#34262b" cx="100.8" cy="-112.6" rx="21.6" ry="21.6"/>
<text text-anchor="middle" x="100.8" y="-104.88" font-family="Helvetica,sans-Serif" font-size="18.00" fill="#34262b">002</text>
</g>
<!-- 048 -->
<g id="node3" class="node">
<title>048</title>
<ellipse fill="#ffc19c" stroke="#34262b" cx="180" cy="-112.6" rx="21.6" ry="21.6"/>
<text text-anchor="middle" x="180" y="-104.88" font-family="Helvetica,sans-Serif" font-size="18.00" fill="#34262b">048</text>
</g>
<!-- 002&#45;&gt;048 -->
<g id="edge2" class="edge">
<title>002&#45;&gt;048</title>
<path fill="none" stroke="#34262b" stroke-width="0.75" d="M122.9,-112.6C130.3,-112.6 138.79,-112.6 146.89,-112.6"/>
<polygon fill="#34262b" stroke="#34262b" stroke-width="0.75" points="146.8,-116.1 156.8,-112.6 146.8,-109.1 146.8,-116.1"/>
</g>
<!-- 023 -->
<g id="node4" class="node">
<title>023</title>
<ellipse fill="#ffc19c" stroke="#34262b" cx="259.2" cy="-112.6" rx="21.6" ry="21.6"/>
<text text-anchor="middle" x="259.2" y="-104.88" font-family="Helvetica,sans-Serif" font-size="18.00" fill="#34262b">023</text>
</g>
<!-- 048&#45;&gt;023 -->
<g id="edge3" class="edge">
<title>048&#45;&gt;023</title>
<path fill="none" stroke="#34262b" stroke-width="0.75" d="M202.1,-112.6C209.5,-112.6 217.99,-112.6 226.09,-112.6"/>
<polygon fill="#34262b" stroke="#34262b" stroke-width="0.75" points="226,-116.1 236,-112.6 226,-109.1 226,-116.1"/>
</g>
<!-- 060 -->
<g id="node5" class="node">
<title>060</title>
<ellipse fill="#ffc19c" stroke="#34262b" cx="338.4" cy="-204.6" rx="21.6" ry="21.6"/>
<text text-anchor="middle" x="338.4" y="-196.88" font-family="Helvetica,sans-Serif" font-size="18.00" fill="#34262b">060</text>
</g>
<!-- 023&#45;&gt;060 -->
<g id="edge4" class="edge">
<title>023&#45;&gt;060</title>
<path fill="none" stroke="#34262b" stroke-width="0.75" d="M273.65,-128.63C285.53,-142.79 303.05,-163.66 316.71,-179.95"/>
<polygon fill="#34262b" stroke="#34262b" stroke-width="0.75" points="314.01,-182.17 323.12,-187.58 319.37,-177.67 314.01,-182.17"/>
</g>
<!-- 49008030805805 -->
<g id="node36" class="node">
<title>49008030805805</title>
</g>
<!-- 023&#45;&gt;49008030805805 -->
<g id="edge42" class="edge">
<title>023&#45;&gt;49008030805805</title>
<path fill="none" stroke="#34262b" stroke-width="0.75" d="M279.68,-120.42C288.82,-124.09 299.88,-128.53 309.86,-132.54"/>
<ellipse fill="none" stroke="#34262b" stroke-width="0.75" cx="313.87" cy="-134.15" rx="4" ry="4"/>
</g>
<!-- 47228972247943 -->
<g id="node37" class="node">
<title>47228972247943</title>
</g>
<!-- 023&#45;&gt;47228972247943 -->
<g id="edge43" class="edge">
<title>023&#45;&gt;47228972247943</title>
<path fill="none" stroke="#34262b" stroke-width="0.75" d="M279.68,-105.03C288.82,-101.48 299.88,-97.18 309.86,-93.3"/>
<ellipse fill="none" stroke="#34262b" stroke-width="0.75" cx="313.85" cy="-91.75" rx="4" ry="4"/>
</g>
<!-- 51880209807809 -->
<g id="node38" class="node">
<title>51880209807809</title>
</g>
<!-- 023&#45;&gt;51880209807809 -->
<g id="edge44" class="edge">
<title>023&#45;&gt;51880209807809</title>
<path fill="none" stroke="#34262b" stroke-width="0.75" d="M274,-96.33C286.3,-81.84 304.41,-60.48 318.14,-44.31"/>
<ellipse fill="none" stroke="#34262b" stroke-width="0.75" cx="320.89" cy="-41.06" rx="4" ry="4"/>
</g>
<!-- 069 -->
<g id="node6" class="node">
<title>069</title>
<ellipse fill="#ffc19c" stroke="#34262b" cx="417.6" cy="-204.6" rx="21.6" ry="21.6"/>
<text text-anchor="middle" x="417.6" y="-196.88" font-family="Helvetica,sans-Serif" font-size="18.00" fill="#34262b">069</text>
</g>
<!-- 060&#45;&gt;069 -->
<g id="edge5" class="edge">
<title>060&#45;&gt;069</title>
<path fill="none" stroke="#34262b" stroke-width="0.75" d="M360.5,-204.6C367.9,-204.6 376.39,-204.6 384.49,-204.6"/>
<polygon fill="#34262b" stroke="#34262b" stroke-width="0.75" points="384.4,-208.1 394.4,-204.6 384.4,-201.1 384.4,-208.1"/>
</g>
<!-- 090 -->
<g id="node7" class="node">
<title>090</title>
<ellipse fill="#ffc19c" stroke="#34262b" cx="496.8" cy="-296.6" rx="21.6" ry="21.6"/>
<text text-anchor="middle" x="496.8" y="-288.88" font-family="Helvetica,sans-Serif" font-size="18.00" fill="#34262b">090</text>
</g>
<!-- 069&#45;&gt;090 -->
<g id="edge6" class="edge">
<title>069&#45;&gt;090</title>
<path fill="none" stroke="#34262b" stroke-width="0.75" d="M432.05,-220.63C443.93,-234.79 461.45,-255.66 475.11,-271.95"/>
<polygon fill="#34262b" stroke="#34262b" stroke-width="0.75" points="472.41,-274.17 481.52,-279.58 477.77,-269.67 472.41,-274.17"/>
</g>
<!-- 70704759633788 -->
<g id="node39" class="node">
<title>70704759633788</title>
</g>
<!-- 069&#45;&gt;70704759633788 -->
<g id="edge45" class="edge">
<title>069&#45;&gt;70704759633788</title>
<path fill="none" stroke="#34262b" stroke-width="0.75" d="M438.08,-212.42C447.22,-216.09 458.28,-220.53 468.26,-224.54"/>
<ellipse fill="none" stroke="#34262b" stroke-width="0.75" cx="472.27" cy="-226.15" rx="4" ry="4"/>
</g>
<!-- 75245509379022 -->
<g id="node40" class="node">
<title>75245509379022</title>
</g>
<!-- 069&#45;&gt;75245509379022 -->
<g id="edge46" class="edge">
<title>069&#45;&gt;75245509379022</title>
<path fill="none" stroke="#34262b" stroke-width="0.75" d="M438.08,-197.03C447.22,-193.48 458.28,-189.18 468.26,-185.3"/>
<ellipse fill="none" stroke="#34262b" stroke-width="0.75" cx="472.25" cy="-183.75" rx="4" ry="4"/>
</g>
<!-- 72879560548572 -->
<g id="node41" class="node">
<title>72879560548572</title>
</g>
<!-- 069&#45;&gt;72879560548572 -->
<g id="edge47" class="edge">
<title>069&#45;&gt;72879560548572</title>
<path fill="none" stroke="#34262b" stroke-width="0.75" d="M432.4,-188.33C444.7,-173.84 462.81,-152.48 476.54,-136.31"/>
<ellipse fill="none" stroke="#34262b" stroke-width="0.75" cx="479.29" cy="-133.06" rx="4" ry="4"/>
</g>
<!-- 099 -->
<g id="node8" class="node">
<title>099</title>
<ellipse fill="#ffc19c" stroke="#34262b" cx="576" cy="-326.6" rx="21.6" ry="21.6"/>
<text text-anchor="middle" x="576" y="-318.88" font-family="Helvetica,sans-Serif" font-size="18.00" fill="#34262b">099</text>
</g>
<!-- 090&#45;&gt;099 -->
<g id="edge7" class="edge">
<title>090&#45;&gt;099</title>
<path fill="none" stroke="#34262b" stroke-width="0.75" d="M517.28,-304.17C525.78,-307.47 535.94,-311.42 545.35,-315.08"/>
<polygon fill="#34262b" stroke="#34262b" stroke-width="0.75" points="543.88,-318.26 554.47,-318.62 546.41,-311.74 543.88,-318.26"/>
</g>
<!-- 30707931916007 -->
<g id="node42" class="node">
<title>30707931916007</title>
</g>
<!-- 090&#45;&gt;30707931916007 -->
<g id="edge48" class="edge">
<title>090&#45;&gt;30707931916007</title>
<path fill="none" stroke="#34262b" stroke-width="0.75" d="M517.28,-288.78C526.42,-285.11 537.48,-280.67 547.46,-276.66"/>
<ellipse fill="none" stroke="#34262b" stroke-width="0.75" cx="551.47" cy="-275.05" rx="4" ry="4"/>
</g>
<!-- 073 -->
<g id="node9" class="node">
<title>073</title>
<ellipse fill="#ffc19c" stroke="#34262b" cx="655.2" cy="-357.6" rx="21.6" ry="21.6"/>
<text text-anchor="middle" x="655.2" y="-349.88" font-family="Helvetica,sans-Serif" font-size="18.00" fill="#34262b">073</text>
</g>
<!-- 099&#45;&gt;073 -->
<g id="edge8" class="edge">
<title>099&#45;&gt;073</title>
<path fill="none" stroke="#34262b" stroke-width="0.75" d="M596.48,-334.42C604.98,-337.84 615.14,-341.92 624.55,-345.69"/>
<polygon fill="#34262b" stroke="#34262b" stroke-width="0.75" points="623.09,-348.88 633.67,-349.36 625.7,-342.38 623.09,-348.88"/>
</g>
<!-- 100208571032 -->
<g id="node43" class="node">
<title>100208571032</title>
</g>
<!-- 099&#45;&gt;100208571032 -->
<g id="edge49" class="edge">
<title>099&#45;&gt;100208571032</title>
<path fill="none" stroke="#34262b" stroke-width="0.75" d="M596.48,-319.03C605.62,-315.48 616.68,-311.18 626.66,-307.3"/>
<ellipse fill="none" stroke="#34262b" stroke-width="0.75" cx="630.65" cy="-305.75" rx="4" ry="4"/>
</g>
<!-- 093 -->
<g id="node10" class="node">
<title>093</title>
<ellipse fill="#ffc19c" stroke="#34262b" cx="734.4" cy="-357.6" rx="21.6" ry="21.6"/>
<text text-anchor="middle" x="734.4" y="-349.88" font-family="Helvetica,sans-Serif" font-size="18.00" fill="#34262b">093</text>
</g>
<!-- 073&#45;&gt;093 -->
<g id="edge9" class="edge">
<title>073&#45;&gt;093</title>
<path fill="none" stroke="#34262b" stroke-width="0.75" d="M677.3,-357.6C684.7,-357.6 693.19,-357.6 701.29,-357.6"/>
<polygon fill="#34262b" stroke="#34262b" stroke-width="0.75" points="701.2,-361.1 711.2,-357.6 701.2,-354.1 701.2,-361.1"/>
</g>
<!-- 033 -->
<g id="node11" class="node">
<title>033</title>
<ellipse fill="#ffc19c" stroke="#34262b" cx="813.6" cy="-357.6" rx="21.6" ry="21.6"/>
<text text-anchor="middle" x="813.6" y="-349.88" font-family="Helvetica,sans-Serif" font-size="18.00" fill="#34262b">033</text>
</g>
<!-- 093&#45;&gt;033 -->
<g id="edge10" class="edge">
<title>093&#45;&gt;033</title>
<path fill="none" stroke="#34262b" stroke-width="0.75" d="M756.5,-357.6C763.9,-357.6 772.39,-357.6 780.49,-357.6"/>
<polygon fill="#34262b" stroke="#34262b" stroke-width="0.75" points="780.4,-361.1 790.4,-357.6 780.4,-354.1 780.4,-361.1"/>
</g>
<!-- 024 -->
<g id="node12" class="node">
<title>024</title>
<ellipse fill="#ffc19c" stroke="#34262b" cx="972" cy="-413.6" rx="21.6" ry="21.6"/>
<text text-anchor="middle" x="972" y="-405.88" font-family="Helvetica,sans-Serif" font-size="18.00" fill="#34262b">024</text>
</g>
<!-- 033&#45;&gt;024 -->
<g id="edge11" class="edge">
<title>033&#45;&gt;024</title>
<path fill="none" stroke="#34262b" stroke-width="0.75" d="M825.39,-376.15C835.2,-391.01 851.2,-410.78 871.2,-419.6 892.91,-429.18 919.89,-426.82 940.32,-422.54"/>
<polygon fill="#34262b" stroke="#34262b" stroke-width="0.75" points="940.89,-426 949.82,-420.28 939.28,-419.18 940.89,-426"/>
</g>
<!-- 025 -->
<g id="node13" class="node">
<title>025</title>
<ellipse fill="#ffc19c" stroke="#34262b" cx="892.8" cy="-388.6" rx="21.6" ry="21.6"/>
<text text-anchor="middle" x="892.8" y="-380.88" font-family="Helvetica,sans-Serif" font-size="18.00" fill="#34262b">025</text>
</g>
<!-- 033&#45;&gt;025 -->
<g id="edge12" class="edge">
<title>033&#45;&gt;025</title>
<path fill="none" stroke="#34262b" stroke-width="0.75" d="M834.08,-365.42C842.58,-368.84 852.74,-372.92 862.15,-376.69"/>
<polygon fill="#34262b" stroke="#34262b" stroke-width="0.75" points="860.69,-379.88 871.27,-380.36 863.3,-373.38 860.69,-379.88"/>
</g>
<!-- 137567818264690 -->
<g id="node44" class="node">
<title>137567818264690</title>
</g>
<!-- 033&#45;&gt;137567818264690 -->
<g id="edge50" class="edge">
<title>033&#45;&gt;137567818264690</title>
<path fill="none" stroke="#34262b" stroke-width="0.75" d="M834.08,-350.03C843.22,-346.48 854.28,-342.18 864.26,-338.3"/>
<ellipse fill="none" stroke="#34262b" stroke-width="0.75" cx="868.25" cy="-336.75" rx="4" ry="4"/>
</g>
<!-- 133239413310346 -->
<g id="node45" class="node">
<title>133239413310346</title>
</g>
<!-- 033&#45;&gt;133239413310346 -->
<g id="edge51" class="edge">
<title>033&#45;&gt;133239413310346</title>
<path fill="none" stroke="#34262b" stroke-width="0.75" d="M828.4,-341.33C840.7,-326.84 858.81,-305.48 872.54,-289.31"/>
<ellipse fill="none" stroke="#34262b" stroke-width="0.75" cx="875.29" cy="-286.06" rx="4" ry="4"/>
</g>
<!-- 034 -->
<g id="node14" class="node">
<title>034</title>
<ellipse fill="#ffc19c" stroke="#34262b" cx="1051.2" cy="-505.6" rx="21.6" ry="21.6"/>
<text text-anchor="middle" x="1051.2" y="-497.88" font-family="Helvetica,sans-Serif" font-size="18.00" fill="#34262b">034</text>
</g>
<!-- 024&#45;&gt;034 -->
<g id="edge14" class="edge">
<title>024&#45;&gt;034</title>
<path fill="none" stroke="#34262b" stroke-width="0.75" d="M989,-427.07C1001.71,-440.74 1019.47,-461.84 1032.59,-478.84"/>
<polygon fill="#34262b" stroke="#34262b" stroke-width="0.75" points="1029.47,-480.51 1038.29,-486.38 1035.05,-476.29 1029.47,-480.51"/>
</g>
<!-- 024&#45;&gt;034 -->
<g id="edge15" class="edge">
<title>024&#45;&gt;034</title>
<path fill="none" stroke="#34262b" stroke-width="0.75" d="M984.06,-431.68C995.11,-446.7 1012.43,-467.81 1026.58,-483.73"/>
<polygon fill="#34262b" stroke="#34262b" stroke-width="0.75" points="1023.98,-486.07 1033.29,-491.12 1029.16,-481.37 1023.98,-486.07"/>
</g>
<!-- 166386341405502 -->
<g id="node46" class="node">
<title>166386341405502</title>
</g>
<!-- 024&#45;&gt;166386341405502 -->
<g id="edge52" class="edge">
<title>024&#45;&gt;166386341405502</title>
<path fill="none" stroke="#34262b" stroke-width="0.75" d="M992.48,-421.42C1001.62,-425.09 1012.68,-429.53 1022.66,-433.54"/>
<ellipse fill="none" stroke="#34262b" stroke-width="0.75" cx="1026.67" cy="-435.15" rx="4" ry="4"/>
</g>
<!-- 160930575842630 -->
<g id="node47" class="node">
<title>160930575842630</title>
</g>
<!-- 024&#45;&gt;160930575842630 -->
<g id="edge53" class="edge">
<title>024&#45;&gt;160930575842630</title>
<path fill="none" stroke="#34262b" stroke-width="0.75" d="M992.48,-406.03C1001.62,-402.48 1012.68,-398.18 1022.66,-394.3"/>
<ellipse fill="none" stroke="#34262b" stroke-width="0.75" cx="1026.65" cy="-392.75" rx="4" ry="4"/>
</g>
<!-- 165298064089045 -->
<g id="node48" class="node">
<title>165298064089045</title>
</g>
<!-- 024&#45;&gt;165298064089045 -->
<g id="edge54" class="edge">
<title>024&#45;&gt;165298064089045</title>
<path fill="none" stroke="#34262b" stroke-width="0.75" d="M986.8,-397.33C999.1,-382.84 1017.21,-361.48 1030.94,-345.31"/>
<ellipse fill="none" stroke="#34262b" stroke-width="0.75" cx="1033.69" cy="-342.06" rx="4" ry="4"/>
</g>
<!-- 165869401788831 -->
<g id="node49" class="node">
<title>165869401788831</title>
</g>
<!-- 024&#45;&gt;165869401788831 -->
<g id="edge55" class="edge">
<title>024&#45;&gt;165869401788831</title>
<path fill="none" stroke="#34262b" stroke-width="0.75" d="M981.04,-393.65C991.22,-369.07 1009.83,-326.29 1029.6,-291.6 1030.67,-289.73 1031.82,-287.82 1033.01,-285.92"/>
<ellipse fill="none" stroke="#34262b" stroke-width="0.75" cx="1035.32" cy="-282.39" rx="4" ry="4"/>
</g>
<!-- 025&#45;&gt;024 -->
<g id="edge13" class="edge">
<title>025&#45;&gt;024</title>
<path fill="none" stroke="#34262b" stroke-width="0.75" d="M913.68,-395.04C921.81,-397.67 931.4,-400.78 940.39,-403.69"/>
<polygon fill="#34262b" stroke="#34262b" stroke-width="0.75" points="939.25,-407 949.84,-406.75 941.4,-400.34 939.25,-407"/>
</g>
<!-- 091 -->
<g id="node15" class="node">
<title>091</title>
<ellipse fill="#ffc19c" stroke="#34262b" cx="1130.4" cy="-505.6" rx="21.6" ry="21.6"/>
<text text-anchor="middle" x="1130.4" y="-497.88" font-family="Helvetica,sans-Serif" font-size="18.00" fill="#34262b">091</text>
</g>
<!-- 034&#45;&gt;091 -->
<g id="edge16" class="edge">
<title>034&#45;&gt;091</title>
<path fill="none" stroke="#34262b" stroke-width="0.75" d="M1073.3,-505.6C1080.7,-505.6 1089.19,-505.6 1097.29,-505.6"/>
<polygon fill="#34262b" stroke="#34262b" stroke-width="0.75" points="1097.2,-509.1 1107.2,-505.6 1097.2,-502.1 1097.2,-509.1"/>
</g>
<!-- 080 -->
<g id="node16" class="node">
<title>080</title>
<ellipse fill="#ffc19c" stroke="#34262b" cx="1288.8" cy="-566.6" rx="21.6" ry="21.6"/>
<text text-anchor="middle" x="1288.8" y="-558.88" font-family="Helvetica,sans-Serif" font-size="18.00" fill="#34262b">080</text>
</g>
<!-- 091&#45;&gt;080 -->
<g id="edge17" class="edge">
<title>091&#45;&gt;080</title>
<path fill="none" stroke="#34262b" stroke-width="0.75" d="M1137.53,-526.49C1145.28,-548.65 1160.99,-582.5 1188,-597.6 1211.38,-610.67 1240.98,-598.36 1261.85,-585.59"/>
<polygon fill="#34262b" stroke="#34262b" stroke-width="0.75" points="1263.64,-588.6 1270.11,-580.21 1259.82,-582.74 1263.64,-588.6"/>
</g>
<!-- 075 -->
<g id="node17" class="node">
<title>075</title>
<ellipse fill="#ffc19c" stroke="#34262b" cx="1209.6" cy="-566.6" rx="21.6" ry="21.6"/>
<text text-anchor="middle" x="1209.6" y="-558.88" font-family="Helvetica,sans-Serif" font-size="18.00" fill="#34262b">075</text>
</g>
<!-- 091&#45;&gt;075 -->
<g id="edge18" class="edge">
<title>091&#45;&gt;075</title>
<path fill="none" stroke="#34262b" stroke-width="0.75" d="M1147.77,-518.54C1158.14,-526.73 1171.76,-537.49 1183.48,-546.75"/>
<polygon fill="#34262b" stroke="#34262b" stroke-width="0.75" points="1181.08,-549.31 1191.09,-552.77 1185.42,-543.82 1181.08,-549.31"/>
</g>
<!-- 076 -->
<g id="node18" class="node">
<title>076</title>
<ellipse fill="#ffc19c" stroke="#34262b" cx="1209.6" cy="-505.6" rx="21.6" ry="21.6"/>
<text text-anchor="middle" x="1209.6" y="-497.88" font-family="Helvetica,sans-Serif" font-size="18.00" fill="#34262b">076</text>
</g>
<!-- 091&#45;&gt;076 -->
<g id="edge19" class="edge">
<title>091&#45;&gt;076</title>
<path fill="none" stroke="#34262b" stroke-width="0.75" d="M1152.5,-505.6C1159.9,-505.6 1168.39,-505.6 1176.49,-505.6"/>
<polygon fill="#34262b" stroke="#34262b" stroke-width="0.75" points="1176.4,-509.1 1186.4,-505.6 1176.4,-502.1 1176.4,-509.1"/>
</g>
<!-- 25468836221693 -->
<g id="node50" class="node">
<title>25468836221693</title>
</g>
<!-- 091&#45;&gt;25468836221693 -->
<g id="edge56" class="edge">
<title>091&#45;&gt;25468836221693</title>
<path fill="none" stroke="#34262b" stroke-width="0.75" d="M1147.77,-492.66C1158.65,-484.07 1173.1,-472.65 1185.19,-463.1"/>
<ellipse fill="none" stroke="#34262b" stroke-width="0.75" cx="1188.55" cy="-460.44" rx="4" ry="4"/>
</g>
<!-- 27366575987011 -->
<g id="node51" class="node">
<title>27366575987011</title>
</g>
<!-- 091&#45;&gt;27366575987011 -->
<g id="edge57" class="edge">
<title>091&#45;&gt;27366575987011</title>
<path fill="none" stroke="#34262b" stroke-width="0.75" d="M1142.41,-487.1C1153.62,-468.4 1171.64,-438.75 1188,-413.6 1189.18,-411.79 1190.4,-409.93 1191.65,-408.07"/>
<ellipse fill="none" stroke="#34262b" stroke-width="0.75" cx="1194.02" cy="-404.57" rx="4" ry="4"/>
</g>
<!-- 078 -->
<g id="node19" class="node">
<title>078</title>
<ellipse fill="#ffc19c" stroke="#34262b" cx="1368" cy="-627.6" rx="21.6" ry="21.6"/>
<text text-anchor="middle" x="1368" y="-619.88" font-family="Helvetica,sans-Serif" font-size="18.00" fill="#34262b">078</text>
</g>
<!-- 080&#45;&gt;078 -->
<g id="edge22" class="edge">
<title>080&#45;&gt;078</title>
<path fill="none" stroke="#34262b" stroke-width="0.75" d="M1306.17,-579.54C1316.54,-587.73 1330.16,-598.49 1341.88,-607.75"/>
<polygon fill="#34262b" stroke="#34262b" stroke-width="0.75" points="1339.48,-610.31 1349.49,-613.77 1343.82,-604.82 1339.48,-610.31"/>
</g>
<!-- 26601435332568 -->
<g id="node52" class="node">
<title>26601435332568</title>
</g>
<!-- 080&#45;&gt;26601435332568 -->
<g id="edge58" class="edge">
<title>080&#45;&gt;26601435332568</title>
<path fill="none" stroke="#34262b" stroke-width="0.75" d="M1310.9,-566.6C1319.07,-566.6 1328.56,-566.6 1337.39,-566.6"/>
<ellipse fill="none" stroke="#34262b" stroke-width="0.75" cx="1341.56" cy="-566.6" rx="4" ry="4"/>
</g>
<!-- 17913110945546 -->
<g id="node53" class="node">
<title>17913110945546</title>
</g>
<!-- 080&#45;&gt;17913110945546 -->
<g id="edge59" class="edge">
<title>080&#45;&gt;17913110945546</title>
<path fill="none" stroke="#34262b" stroke-width="0.75" d="M1306.17,-553.66C1317.05,-545.07 1331.5,-533.65 1343.59,-524.1"/>
<ellipse fill="none" stroke="#34262b" stroke-width="0.75" cx="1346.95" cy="-521.44" rx="4" ry="4"/>
</g>
<!-- 075&#45;&gt;080 -->
<g id="edge20" class="edge">
<title>075&#45;&gt;080</title>
<path fill="none" stroke="#34262b" stroke-width="0.75" d="M1231.7,-566.6C1239.1,-566.6 1247.59,-566.6 1255.69,-566.6"/>
<polygon fill="#34262b" stroke="#34262b" stroke-width="0.75" points="1255.6,-570.1 1265.6,-566.6 1255.6,-563.1 1255.6,-570.1"/>
</g>
<!-- 076&#45;&gt;080 -->
<g id="edge21" class="edge">
<title>076&#45;&gt;080</title>
<path fill="none" stroke="#34262b" stroke-width="0.75" d="M1226.97,-518.54C1237.34,-526.73 1250.96,-537.49 1262.68,-546.75"/>
<polygon fill="#34262b" stroke="#34262b" stroke-width="0.75" points="1260.28,-549.31 1270.29,-552.77 1264.62,-543.82 1260.28,-549.31"/>
</g>
<!-- 010 -->
<g id="node20" class="node">
<title>010</title>
<ellipse fill="#ffc19c" stroke="#34262b" cx="1447.2" cy="-718.6" rx="21.6" ry="21.6"/>
<text text-anchor="middle" x="1447.2" y="-710.88" font-family="Helvetica,sans-Serif" font-size="18.00" fill="#34262b">010</text>
</g>
<!-- 078&#45;&gt;010 -->
<g id="edge23" class="edge">
<title>078&#45;&gt;010</title>
<path fill="none" stroke="#34262b" stroke-width="0.75" d="M1382.8,-643.87C1394.66,-657.84 1411.93,-678.2 1425.45,-694.14"/>
<polygon fill="#34262b" stroke="#34262b" stroke-width="0.75" points="1422.65,-696.24 1431.78,-701.61 1427.98,-691.72 1422.65,-696.24"/>
</g>
<!-- 34387157037311 -->
<g id="node54" class="node">
<title>34387157037311</title>
</g>
<!-- 078&#45;&gt;34387157037311 -->
<g id="edge60" class="edge">
<title>078&#45;&gt;34387157037311</title>
<path fill="none" stroke="#34262b" stroke-width="0.75" d="M1388.48,-635.17C1397.62,-638.72 1408.68,-643.02 1418.66,-646.9"/>
<ellipse fill="none" stroke="#34262b" stroke-width="0.75" cx="1422.65" cy="-648.45" rx="4" ry="4"/>
</g>
<!-- 34387157037507 -->
<g id="node55" class="node">
<title>34387157037507</title>
</g>
<!-- 078&#45;&gt;34387157037507 -->
<g id="edge61" class="edge">
<title>078&#45;&gt;34387157037507</title>
<path fill="none" stroke="#34262b" stroke-width="0.75" d="M1388.48,-619.78C1397.62,-616.11 1408.68,-611.67 1418.66,-607.66"/>
<ellipse fill="none" stroke="#34262b" stroke-width="0.75" cx="1422.67" cy="-606.05" rx="4" ry="4"/>
</g>
<!-- 34387157037717 -->
<g id="node56" class="node">
<title>34387157037717</title>
</g>
<!-- 078&#45;&gt;34387157037717 -->
<g id="edge62" class="edge">
<title>078&#45;&gt;34387157037717</title>
<path fill="none" stroke="#34262b" stroke-width="0.75" d="M1382.45,-611.57C1394.88,-596.76 1413.48,-574.59 1427.38,-558.02"/>
<ellipse fill="none" stroke="#34262b" stroke-width="0.75" cx="1429.84" cy="-555.1" rx="4" ry="4"/>
</g>
<!-- 086 -->
<g id="node21" class="node">
<title>086</title>
<ellipse fill="#ffc19c" stroke="#34262b" cx="1526.4" cy="-718.6" rx="21.6" ry="21.6"/>
<text text-anchor="middle" x="1526.4" y="-710.88" font-family="Helvetica,sans-Serif" font-size="18.00" fill="#34262b">086</text>
</g>
<!-- 010&#45;&gt;086 -->
<g id="edge24" class="edge">
<title>010&#45;&gt;086</title>
<path fill="none" stroke="#34262b" stroke-width="0.75" d="M1469.3,-718.6C1476.7,-718.6 1485.19,-718.6 1493.29,-718.6"/>
<polygon fill="#34262b" stroke="#34262b" stroke-width="0.75" points="1493.2,-722.1 1503.2,-718.6 1493.2,-715.1 1493.2,-722.1"/>
</g>
<!-- 029 -->
<g id="node22" class="node">
<title>029</title>
<ellipse fill="#ffc19c" stroke="#34262b" cx="1605.6" cy="-718.6" rx="21.6" ry="21.6"/>
<text text-anchor="middle" x="1605.6" y="-710.88" font-family="Helvetica,sans-Serif" font-size="18.00" fill="#34262b">029</text>
</g>
<!-- 086&#45;&gt;029 -->
<g id="edge25" class="edge">
<title>086&#45;&gt;029</title>
<path fill="none" stroke="#34262b" stroke-width="0.75" d="M1548.5,-718.6C1555.9,-718.6 1564.39,-718.6 1572.49,-718.6"/>
<polygon fill="#34262b" stroke="#34262b" stroke-width="0.75" points="1572.4,-722.1 1582.4,-718.6 1572.4,-715.1 1572.4,-722.1"/>
</g>
<!-- 045 -->
<g id="node23" class="node">
<title>045</title>
<ellipse fill="#ffc19c" stroke="#34262b" cx="1684.8" cy="-718.6" rx="21.6" ry="21.6"/>
<text text-anchor="middle" x="1684.8" y="-710.88" font-family="Helvetica,sans-Serif" font-size="18.00" fill="#34262b">045</text>
</g>
<!-- 029&#45;&gt;045 -->
<g id="edge26" class="edge">
<title>029&#45;&gt;045</title>
<path fill="none" stroke="#34262b" stroke-width="0.75" d="M1626.48,-712.61C1634.52,-711.9 1643.99,-711.69 1652.9,-711.97"/>
<polygon fill="#34262b" stroke="#34262b" stroke-width="0.75" points="1652.4,-715.45 1662.58,-712.53 1652.8,-708.46 1652.4,-715.45"/>
</g>
<!-- 029&#45;&gt;045 -->
<g id="edge27" class="edge">
<title>029&#45;&gt;045</title>
<path fill="none" stroke="#34262b" stroke-width="0.75" d="M1626.48,-724.59C1634.52,-725.3 1643.99,-725.51 1652.9,-725.23"/>
<polygon fill="#34262b" stroke="#34262b" stroke-width="0.75" points="1652.8,-728.74 1662.58,-724.67 1652.4,-721.75 1652.8,-728.74"/>
</g>
<!-- 012 -->
<g id="node24" class="node">
<title>012</title>
<ellipse fill="#ffc19c" stroke="#34262b" cx="1764" cy="-779.6" rx="21.6" ry="21.6"/>
<text text-anchor="middle" x="1764" y="-771.88" font-family="Helvetica,sans-Serif" font-size="18.00" fill="#34262b">012</text>
</g>
<!-- 045&#45;&gt;012 -->
<g id="edge28" class="edge">
<title>045&#45;&gt;012</title>
<path fill="none" stroke="#34262b" stroke-width="0.75" d="M1702.17,-731.54C1712.54,-739.73 1726.16,-750.49 1737.88,-759.75"/>
<polygon fill="#34262b" stroke="#34262b" stroke-width="0.75" points="1735.48,-762.31 1745.49,-765.77 1739.82,-756.82 1735.48,-762.31"/>
</g>
<!-- 239201739003301 -->
<g id="node57" class="node">
<title>239201739003301</title>
</g>
<!-- 045&#45;&gt;239201739003301 -->
<g id="edge63" class="edge">
<title>045&#45;&gt;239201739003301</title>
<path fill="none" stroke="#34262b" stroke-width="0.75" d="M1706.9,-718.6C1715.07,-718.6 1724.56,-718.6 1733.39,-718.6"/>
<ellipse fill="none" stroke="#34262b" stroke-width="0.75" cx="1737.56" cy="-718.6" rx="4" ry="4"/>
</g>
<!-- 228517756804227 -->
<g id="node58" class="node">
<title>228517756804227</title>
</g>
<!-- 045&#45;&gt;228517756804227 -->
<g id="edge64" class="edge">
<title>045&#45;&gt;228517756804227</title>
<path fill="none" stroke="#34262b" stroke-width="0.75" d="M1702.17,-705.66C1713.05,-697.07 1727.5,-685.65 1739.59,-676.1"/>
<ellipse fill="none" stroke="#34262b" stroke-width="0.75" cx="1742.95" cy="-673.44" rx="4" ry="4"/>
</g>
<!-- 032 -->
<g id="node25" class="node">
<title>032</title>
<ellipse fill="#ffc19c" stroke="#34262b" cx="1843.2" cy="-779.6" rx="21.6" ry="21.6"/>
<text text-anchor="middle" x="1843.2" y="-771.88" font-family="Helvetica,sans-Serif" font-size="18.00" fill="#34262b">032</text>
</g>
<!-- 012&#45;&gt;032 -->
<g id="edge29" class="edge">
<title>012&#45;&gt;032</title>
<path fill="none" stroke="#34262b" stroke-width="0.75" d="M1786.1,-779.6C1793.5,-779.6 1801.99,-779.6 1810.09,-779.6"/>
<polygon fill="#34262b" stroke="#34262b" stroke-width="0.75" points="1810,-783.1 1820,-779.6 1810,-776.1 1810,-783.1"/>
</g>
<!-- 036 -->
<g id="node26" class="node">
<title>036</title>
<ellipse fill="#ffc19c" stroke="#34262b" cx="1922.4" cy="-871.6" rx="21.6" ry="21.6"/>
<text text-anchor="middle" x="1922.4" y="-863.88" font-family="Helvetica,sans-Serif" font-size="18.00" fill="#34262b">036</text>
</g>
<!-- 032&#45;&gt;036 -->
<g id="edge30" class="edge">
<title>032&#45;&gt;036</title>
<path fill="none" stroke="#34262b" stroke-width="0.75" d="M1857.65,-795.63C1869.53,-809.79 1887.05,-830.66 1900.71,-846.95"/>
<polygon fill="#34262b" stroke="#34262b" stroke-width="0.75" points="1898.01,-849.17 1907.12,-854.58 1903.37,-844.67 1898.01,-849.17"/>
</g>
<!-- 41267390156266 -->
<g id="node59" class="node">
<title>41267390156266</title>
</g>
<!-- 032&#45;&gt;41267390156266 -->
<g id="edge65" class="edge">
<title>032&#45;&gt;41267390156266</title>
<path fill="none" stroke="#34262b" stroke-width="0.75" d="M1863.68,-787.42C1872.82,-791.09 1883.88,-795.53 1893.86,-799.54"/>
<ellipse fill="none" stroke="#34262b" stroke-width="0.75" cx="1897.87" cy="-801.15" rx="4" ry="4"/>
</g>
<!-- 39668153149439 -->
<g id="node60" class="node">
<title>39668153149439</title>
</g>
<!-- 032&#45;&gt;39668153149439 -->
<g id="edge66" class="edge">
<title>032&#45;&gt;39668153149439</title>
<path fill="none" stroke="#34262b" stroke-width="0.75" d="M1863.68,-772.03C1872.82,-768.48 1883.88,-764.18 1893.86,-760.3"/>
<ellipse fill="none" stroke="#34262b" stroke-width="0.75" cx="1897.85" cy="-758.75" rx="4" ry="4"/>
</g>
<!-- 40092150478088 -->
<g id="node61" class="node">
<title>40092150478088</title>
</g>
<!-- 032&#45;&gt;40092150478088 -->
<g id="edge67" class="edge">
<title>032&#45;&gt;40092150478088</title>
<path fill="none" stroke="#34262b" stroke-width="0.75" d="M1858,-763.33C1870.3,-748.84 1888.41,-727.48 1902.14,-711.31"/>
<ellipse fill="none" stroke="#34262b" stroke-width="0.75" cx="1904.89" cy="-708.06" rx="4" ry="4"/>
</g>
<!-- 035 -->
<g id="node27" class="node">
<title>035</title>
<ellipse fill="#ffc19c" stroke="#34262b" cx="2001.6" cy="-932.6" rx="21.6" ry="21.6"/>
<text text-anchor="middle" x="2001.6" y="-924.88" font-family="Helvetica,sans-Serif" font-size="18.00" fill="#34262b">035</text>
</g>
<!-- 036&#45;&gt;035 -->
<g id="edge31" class="edge">
<title>036&#45;&gt;035</title>
<path fill="none" stroke="#34262b" stroke-width="0.75" d="M1939.77,-884.54C1950.14,-892.73 1963.76,-903.49 1975.48,-912.75"/>
<polygon fill="#34262b" stroke="#34262b" stroke-width="0.75" points="1973.08,-915.31 1983.09,-918.77 1977.42,-909.82 1973.08,-915.31"/>
</g>
<!-- 127399335350240 -->
<g id="node62" class="node">
<title>127399335350240</title>
</g>
<!-- 036&#45;&gt;127399335350240 -->
<g id="edge68" class="edge">
<title>036&#45;&gt;127399335350240</title>
<path fill="none" stroke="#34262b" stroke-width="0.75" d="M1944.5,-871.6C1952.67,-871.6 1962.16,-871.6 1970.99,-871.6"/>
<ellipse fill="none" stroke="#34262b" stroke-width="0.75" cx="1975.16" cy="-871.6" rx="4" ry="4"/>
</g>
<!-- 132242591777783 -->
<g id="node63" class="node">
<title>132242591777783</title>
</g>
<!-- 036&#45;&gt;132242591777783 -->
<g id="edge69" class="edge">
<title>036&#45;&gt;132242591777783</title>
<path fill="none" stroke="#34262b" stroke-width="0.75" d="M1939.77,-858.66C1950.65,-850.07 1965.1,-838.65 1977.19,-829.1"/>
<ellipse fill="none" stroke="#34262b" stroke-width="0.75" cx="1980.55" cy="-826.44" rx="4" ry="4"/>
</g>
<!-- 046 -->
<g id="node28" class="node">
<title>046</title>
<ellipse fill="#ffc19c" stroke="#34262b" cx="2080.8" cy="-932.6" rx="21.6" ry="21.6"/>
<text text-anchor="middle" x="2080.8" y="-924.88" font-family="Helvetica,sans-Serif" font-size="18.00" fill="#34262b">046</text>
</g>
<!-- 035&#45;&gt;046 -->
<g id="edge32" class="edge">
<title>035&#45;&gt;046</title>
<path fill="none" stroke="#34262b" stroke-width="0.75" d="M2023.7,-932.6C2031.1,-932.6 2039.59,-932.6 2047.69,-932.6"/>
<polygon fill="#34262b" stroke="#34262b" stroke-width="0.75" points="2047.6,-936.1 2057.6,-932.6 2047.6,-929.1 2047.6,-936.1"/>
</g>
<!-- 071 -->
<g id="node29" class="node">
<title>071</title>
<ellipse fill="#ffc19c" stroke="#34262b" cx="2160" cy="-963.6" rx="21.6" ry="21.6"/>
<text text-anchor="middle" x="2160" y="-955.88" font-family="Helvetica,sans-Serif" font-size="18.00" fill="#34262b">071</text>
</g>
<!-- 046&#45;&gt;071 -->
<g id="edge33" class="edge">
<title>046&#45;&gt;071</title>
<path fill="none" stroke="#34262b" stroke-width="0.75" d="M2101.28,-940.42C2109.78,-943.84 2119.94,-947.92 2129.35,-951.69"/>
<polygon fill="#34262b" stroke="#34262b" stroke-width="0.75" points="2127.89,-954.88 2138.47,-955.36 2130.5,-948.38 2127.89,-954.88"/>
</g>
<!-- 203631832624186 -->
<g id="node64" class="node">
<title>203631832624186</title>
</g>
<!-- 046&#45;&gt;203631832624186 -->
<g id="edge70" class="edge">
<title>046&#45;&gt;203631832624186</title>
<path fill="none" stroke="#34262b" stroke-width="0.75" d="M2101.28,-925.03C2110.42,-921.48 2121.48,-917.18 2131.46,-913.3"/>
<ellipse fill="none" stroke="#34262b" stroke-width="0.75" cx="2135.45" cy="-911.75" rx="4" ry="4"/>
</g>
<!-- 018 -->
<g id="node30" class="node">
<title>018</title>
<ellipse fill="#ffc19c" stroke="#34262b" cx="2239.2" cy="-963.6" rx="21.6" ry="21.6"/>
<text text-anchor="middle" x="2239.2" y="-955.88" font-family="Helvetica,sans-Serif" font-size="18.00" fill="#34262b">018</text>
</g>
<!-- 071&#45;&gt;018 -->
<g id="edge34" class="edge">
<title>071&#45;&gt;018</title>
<path fill="none" stroke="#34262b" stroke-width="0.75" d="M2182.1,-963.6C2189.5,-963.6 2197.99,-963.6 2206.09,-963.6"/>
<polygon fill="#34262b" stroke="#34262b" stroke-width="0.75" points="2206,-967.1 2216,-963.6 2206,-960.1 2206,-967.1"/>
</g>
<!-- 004 -->
<g id="node31" class="node">
<title>004</title>
<ellipse fill="#ffc19c" stroke="#34262b" cx="2318.4" cy="-963.6" rx="21.6" ry="21.6"/>
<text text-anchor="middle" x="2318.4" y="-955.88" font-family="Helvetica,sans-Serif" font-size="18.00" fill="#34262b">004</text>
</g>
<!-- 018&#45;&gt;004 -->
<g id="edge35" class="edge">
<title>018&#45;&gt;004</title>
<path fill="none" stroke="#34262b" stroke-width="0.75" d="M2261.3,-963.6C2268.7,-963.6 2277.19,-963.6 2285.29,-963.6"/>
<polygon fill="#34262b" stroke="#34262b" stroke-width="0.75" points="2285.2,-967.1 2295.2,-963.6 2285.2,-960.1 2285.2,-967.1"/>
</g>
<!-- 051 -->
<g id="node32" class="node">
<title>051</title>
<ellipse fill="#ffc19c" stroke="#34262b" cx="2397.6" cy="-994.6" rx="21.6" ry="21.6"/>
<text text-anchor="middle" x="2397.6" y="-986.88" font-family="Helvetica,sans-Serif" font-size="18.00" fill="#34262b">051</text>
</g>
<!-- 004&#45;&gt;051 -->
<g id="edge36" class="edge">
<title>004&#45;&gt;051</title>
<path fill="none" stroke="#34262b" stroke-width="0.75" d="M2338.88,-971.42C2347.38,-974.84 2357.54,-978.92 2366.95,-982.69"/>
<polygon fill="#34262b" stroke="#34262b" stroke-width="0.75" points="2365.49,-985.88 2376.07,-986.36 2368.1,-979.38 2365.49,-985.88"/>
</g>
<!-- 55810895967275 -->
<g id="node65" class="node">
<title>55810895967275</title>
</g>
<!-- 004&#45;&gt;55810895967275 -->
<g id="edge71" class="edge">
<title>004&#45;&gt;55810895967275</title>
<path fill="none" stroke="#34262b" stroke-width="0.75" d="M2338.88,-956.03C2348.02,-952.48 2359.08,-948.18 2369.06,-944.3"/>
<ellipse fill="none" stroke="#34262b" stroke-width="0.75" cx="2373.05" cy="-942.75" rx="4" ry="4"/>
</g>
<!-- 051&#45;&gt;049 -->
<g id="edge39" class="edge">
<title>051&#45;&gt;049</title>
<path fill="none" stroke="#34262b" stroke-width="0.75" d="M2415.49,-1006.79C2426.27,-1013.81 2440.87,-1021.93 2455.2,-1025.6 2487.65,-1033.9 2524.95,-1021.55 2550.01,-1010.06"/>
<polygon fill="#34262b" stroke="#34262b" stroke-width="0.75" points="2551.46,-1013.25 2558.94,-1005.75 2548.41,-1006.95 2551.46,-1013.25"/>
</g>
<!-- 052 -->
<g id="node33" class="node">
<title>052</title>
<ellipse fill="#ffc19c" stroke="#34262b" cx="2476.8" cy="-994.6" rx="21.6" ry="21.6"/>
<text text-anchor="middle" x="2476.8" y="-986.88" font-family="Helvetica,sans-Serif" font-size="18.00" fill="#34262b">052</text>
</g>
<!-- 051&#45;&gt;052 -->
<g id="edge37" class="edge">
<title>051&#45;&gt;052</title>
<path fill="none" stroke="#34262b" stroke-width="0.75" d="M2419.7,-994.6C2427.1,-994.6 2435.59,-994.6 2443.69,-994.6"/>
<polygon fill="#34262b" stroke="#34262b" stroke-width="0.75" points="2443.6,-998.1 2453.6,-994.6 2443.6,-991.1 2443.6,-998.1"/>
</g>
<!-- 053 -->
<g id="node34" class="node">
<title>053</title>
<ellipse fill="#ffc19c" stroke="#34262b" cx="2476.8" cy="-933.6" rx="21.6" ry="21.6"/>
<text text-anchor="middle" x="2476.8" y="-925.88" font-family="Helvetica,sans-Serif" font-size="18.00" fill="#34262b">053</text>
</g>
<!-- 051&#45;&gt;053 -->
<g id="edge38" class="edge">
<title>051&#45;&gt;053</title>
<path fill="none" stroke="#34262b" stroke-width="0.75" d="M2414.97,-981.66C2425.34,-973.47 2438.96,-962.71 2450.68,-953.45"/>
<polygon fill="#34262b" stroke="#34262b" stroke-width="0.75" points="2452.62,-956.38 2458.29,-947.43 2448.28,-950.89 2452.62,-956.38"/>
</g>
<!-- 052&#45;&gt;049 -->
<g id="edge40" class="edge">
<title>052&#45;&gt;049</title>
<path fill="none" stroke="#34262b" stroke-width="0.75" d="M2498.73,-994.6C2509.84,-994.6 2523.89,-994.6 2537.12,-994.6"/>
<polygon fill="#34262b" stroke="#34262b" stroke-width="0.75" points="2536.81,-998.1 2546.81,-994.6 2536.81,-991.1 2536.81,-998.1"/>
</g>
<!-- 053&#45;&gt;049 -->
<g id="edge41" class="edge">
<title>053&#45;&gt;049</title>
<path fill="none" stroke="#34262b" stroke-width="0.75" d="M2495.86,-944.51C2511.66,-954.05 2534.81,-968.03 2552.65,-978.79"/>
<polygon fill="#34262b" stroke="#34262b" stroke-width="0.75" points="2550.59,-981.64 2560.95,-983.81 2554.2,-975.65 2550.59,-981.64"/>
</g>
<!-- 042 -->
<g id="node35" class="node">
<title>042</title>
<ellipse fill="#dbde92" stroke="#34262b" cx="21.6" cy="-112.6" rx="21.6" ry="21.6"/>
<text text-anchor="middle" x="21.6" y="-104.88" font-family="Helvetica,sans-Serif" font-size="18.00" fill="#34262b">042</text>
</g>
<!-- 042&#45;&gt;002 -->
<g id="edge1" class="edge">
<title>042&#45;&gt;002</title>
<path fill="none" stroke="#34262b" stroke-width="0.75" d="M43.7,-112.6C51.1,-112.6 59.59,-112.6 67.69,-112.6"/>
<polygon fill="#34262b" stroke="#34262b" stroke-width="0.75" points="67.6,-116.1 77.6,-112.6 67.6,-109.1 67.6,-116.1"/>
</g>
</g>
</svg>
