<?xml version="1.0" encoding="UTF-8" standalone="no"?>
<!DOCTYPE svg PUBLIC "-//W3C//DTD SVG 1.1//EN"
 "http://www.w3.org/Graphics/SVG/1.1/DTD/svg11.dtd">
<!-- Generated by graphviz version 11.0.0 (20240428.1522)
 -->
<!-- Title: G Pages: 1 -->
<svg width="2633pt" height="1045pt"
 viewBox="0.00 0.00 2633.25 1044.80" xmlns="http://www.w3.org/2000/svg" xmlns:xlink="http://www.w3.org/1999/xlink">
<g id="graph0" class="graph" transform="scale(1 1) rotate(0) translate(4 1040.8)">
<title>G</title>
<polygon fill="#fdfeff" stroke="none" points="-4,4 -4,-1040.8 2629.25,-1040.8 2629.25,4 -4,4"/>
<!-- 049 -->
<g id="node1" class="node">
<title>049</title>
<polygon fill="#fee548" stroke="#34262b" points="2625.25,-1003.8 2590.55,-1003.8 2579.82,-1036.8 2569.1,-1003.8 2534.4,-1003.8 2562.47,-983.4 2551.75,-950.4 2579.82,-970.8 2607.9,-950.4 2597.17,-983.4 2625.25,-1003.8"/>
<text text-anchor="middle" x="2579.82" y="-985.87" font-family="Helvetica,sans-Serif" font-size="18.00" fill="#34262b">049</text>
</g>
<!-- 002 -->
<g id="node2" class="node">
<title>002</title>
<ellipse fill="#ffc19c" stroke="#34262b" cx="100.8" cy="-112.6" rx="21.6" ry="21.6"/>
<text text-anchor="middle" x="100.8" y="-104.87" font-family="Helvetica,sans-Serif" font-size="18.00" fill="#34262b">002</text>
</g>
<!-- 048 -->
<g id="node3" class="node">
<title>048</title>
<ellipse fill="#ffc19c" stroke="#34262b" cx="180" cy="-112.6" rx="21.6" ry="21.6"/>
<text text-anchor="middle" x="180" y="-104.87" font-family="Helvetica,sans-Serif" font-size="18.00" fill="#34262b">048</text>
</g>
<!-- 002&#45;&gt;048 -->
<g id="edge2" class="edge">
<title>002&#45;&gt;048</title>
<path fill="none" stroke="#34262b" stroke-width="0.75" d="M122.9,-112.6C130.3,-112.6 138.79,-112.6 146.89,-112.6"/>
<polygon fill="#34262b" stroke="#34262b" stroke-width="0.75" points="146.8,-116.1 156.8,-112.6 146.8,-109.1 146.8,-116.1"/>
</g>
<!-- 023 -->
<g id="node4" class="node">
<title>023</title>
<ellipse fill="#ffc19c" stroke="#34262b" cx="259.2" cy="-112.6" rx="21.6" ry="21.6"/>
<text text-anchor="middle" x="259.2" y="-104.87" font-family="Helvetica,sans-Serif" font-size="18.00" fill="#34262b">023</text>
</g>
<!-- 048&#45;&gt;023 -->
<g id="edge3" class="edge">
<title>048&#45;&gt;023</title>
<path fill="none" stroke="#34262b" stroke-width="0.75" d="M202.1,-112.6C209.5,-112.6 217.99,-112.6 226.09,-112.6"/>
<polygon fill="#34262b" stroke="#34262b" stroke-width="0.75" points="226,-116.1 236,-112.6 226,-109.1 226,-116.1"/>
</g>
<!-- 060 -->
<g id="node5" class="node">
<title>060</title>
<ellipse fill="#ffc19c" stroke="#34262b" cx="338.4" cy="-204.6" rx="21.6" ry="21.6"/>
<text text-anchor="middle" x="338.4" y="-196.87" font-family="Helvetica,sans-Serif" font-size="18.00" fill="#34262b">060</text>
</g>
<!-- 023&#45;&gt;060 -->
<g id="edge4" class="edge">
<title>023&#45;&gt;060</title>
<path fill="none" stroke="#34262b" stroke-width="0.75" d="M273.65,-128.63C285.53,-142.79 303.05,-163.66 316.71,-179.95"/>
<polygon fill="#34262b" stroke="#34262b" stroke-width="0.75" points="314.01,-182.17 323.12,-187.58 319.37,-177.67 314.01,-182.17"/>
</g>
<!-- 49634567641071 -->
<g id="node36" class="node">
<title>49634567641071</title>
</g>
<!-- 023&#45;&gt;49634567641071 -->
<g id="edge42" class="edge">
<title>023&#45;&gt;49634567641071</title>
<path fill="none" stroke="#34262b" stroke-width="0.75" d="M279.68,-120.42C288.82,-124.09 299.88,-128.53 309.86,-132.54"/>
<ellipse fill="none" stroke="#34262b" stroke-width="0.75" cx="313.87" cy="-134.15" rx="4" ry="4"/>
</g>
<!-- 48038106262884 -->
<g id="node37" class="node">
<title>48038106262884</title>
</g>
<!-- 023&#45;&gt;48038106262884 -->
<g id="edge43" class="edge">
<title>023&#45;&gt;48038106262884</title>
<path fill="none" stroke="#34262b" stroke-width="0.75" d="M279.68,-105.03C288.82,-101.48 299.88,-97.18 309.86,-93.3"/>
<ellipse fill="none" stroke="#34262b" stroke-width="0.75" cx="313.85" cy="-91.75" rx="4" ry="4"/>
</g>
<!-- 36544000811616 -->
<g id="node38" class="node">
<title>36544000811616</title>
</g>
<!-- 023&#45;&gt;36544000811616 -->
<g id="edge44" class="edge">
<title>023&#45;&gt;36544000811616</title>
<path fill="none" stroke="#34262b" stroke-width="0.75" d="M274,-96.33C286.3,-81.84 304.41,-60.48 318.14,-44.31"/>
<ellipse fill="none" stroke="#34262b" stroke-width="0.75" cx="320.89" cy="-41.06" rx="4" ry="4"/>
</g>
<!-- 069 -->
<g id="node6" class="node">
<title>069</title>
<ellipse fill="#ffc19c" stroke="#34262b" cx="417.6" cy="-204.6" rx="21.6" ry="21.6"/>
<text text-anchor="middle" x="417.6" y="-196.87" font-family="Helvetica,sans-Serif" font-size="18.00" fill="#34262b">069</text>
</g>
<!-- 060&#45;&gt;069 -->
<g id="edge5" class="edge">
<title>060&#45;&gt;069</title>
<path fill="none" stroke="#34262b" stroke-width="0.75" d="M360.5,-204.6C367.9,-204.6 376.39,-204.6 384.49,-204.6"/>
<polygon fill="#34262b" stroke="#34262b" stroke-width="0.75" points="384.4,-208.1 394.4,-204.6 384.4,-201.1 384.4,-208.1"/>
</g>
<!-- 090 -->
<g id="node7" class="node">
<title>090</title>
<ellipse fill="#ffc19c" stroke="#34262b" cx="496.8" cy="-296.6" rx="21.6" ry="21.6"/>
<text text-anchor="middle" x="496.8" y="-288.87" font-family="Helvetica,sans-Serif" font-size="18.00" fill="#34262b">090</text>
</g>
<!-- 069&#45;&gt;090 -->
<g id="edge6" class="edge">
<title>069&#45;&gt;090</title>
<path fill="none" stroke="#34262b" stroke-width="0.75" d="M432.05,-220.63C443.93,-234.79 461.45,-255.66 475.11,-271.95"/>
<polygon fill="#34262b" stroke="#34262b" stroke-width="0.75" points="472.41,-274.17 481.52,-279.58 477.77,-269.67 472.41,-274.17"/>
</g>
<!-- 70387888034034 -->
<g id="node39" class="node">
<title>70387888034034</title>
</g>
<!-- 069&#45;&gt;70387888034034 -->
<g id="edge45" class="edge">
<title>069&#45;&gt;70387888034034</title>
<path fill="none" stroke="#34262b" stroke-width="0.75" d="M438.08,-212.42C447.22,-216.09 458.28,-220.53 468.26,-224.54"/>
<ellipse fill="none" stroke="#34262b" stroke-width="0.75" cx="472.27" cy="-226.15" rx="4" ry="4"/>
</g>
<!-- 76307533465793 -->
<g id="node40" class="node">
<title>76307533465793</title>
</g>
<!-- 069&#45;&gt;76307533465793 -->
<g id="edge46" class="edge">
<title>069&#45;&gt;76307533465793</title>
<path fill="none" stroke="#34262b" stroke-width="0.75" d="M438.08,-197.03C447.22,-193.48 458.28,-189.18 468.26,-185.3"/>
<ellipse fill="none" stroke="#34262b" stroke-width="0.75" cx="472.25" cy="-183.75" rx="4" ry="4"/>
</g>
<!-- 73596625706163 -->
<g id="node41" class="node">
<title>73596625706163</title>
</g>
<!-- 069&#45;&gt;73596625706163 -->
<g id="edge47" class="edge">
<title>069&#45;&gt;73596625706163</title>
<path fill="none" stroke="#34262b" stroke-width="0.75" d="M432.4,-188.33C444.7,-173.84 462.81,-152.48 476.54,-136.31"/>
<ellipse fill="none" stroke="#34262b" stroke-width="0.75" cx="479.29" cy="-133.06" rx="4" ry="4"/>
</g>
<!-- 099 -->
<g id="node8" class="node">
<title>099</title>
<ellipse fill="#ffc19c" stroke="#34262b" cx="576" cy="-326.6" rx="21.6" ry="21.6"/>
<text text-anchor="middle" x="576" y="-318.87" font-family="Helvetica,sans-Serif" font-size="18.00" fill="#34262b">099</text>
</g>
<!-- 090&#45;&gt;099 -->
<g id="edge7" class="edge">
<title>090&#45;&gt;099</title>
<path fill="none" stroke="#34262b" stroke-width="0.75" d="M517.28,-304.17C525.78,-307.47 535.94,-311.42 545.35,-315.08"/>
<polygon fill="#34262b" stroke="#34262b" stroke-width="0.75" points="543.88,-318.26 554.47,-318.62 546.41,-311.74 543.88,-318.26"/>
</g>
<!-- 30529521407667 -->
<g id="node42" class="node">
<title>30529521407667</title>
</g>
<!-- 090&#45;&gt;30529521407667 -->
<g id="edge48" class="edge">
<title>090&#45;&gt;30529521407667</title>
<path fill="none" stroke="#34262b" stroke-width="0.75" d="M517.28,-288.78C526.42,-285.11 537.48,-280.67 547.46,-276.66"/>
<ellipse fill="none" stroke="#34262b" stroke-width="0.75" cx="551.47" cy="-275.05" rx="4" ry="4"/>
</g>
<!-- 073 -->
<g id="node9" class="node">
<title>073</title>
<ellipse fill="#ffc19c" stroke="#34262b" cx="655.2" cy="-356.6" rx="21.6" ry="21.6"/>
<text text-anchor="middle" x="655.2" y="-348.87" font-family="Helvetica,sans-Serif" font-size="18.00" fill="#34262b">073</text>
</g>
<!-- 099&#45;&gt;073 -->
<g id="edge8" class="edge">
<title>099&#45;&gt;073</title>
<path fill="none" stroke="#34262b" stroke-width="0.75" d="M596.48,-334.17C604.98,-337.47 615.14,-341.42 624.55,-345.08"/>
<polygon fill="#34262b" stroke="#34262b" stroke-width="0.75" points="623.08,-348.26 633.67,-348.62 625.61,-341.74 623.08,-348.26"/>
</g>
<!-- 16427621247298 -->
<g id="node43" class="node">
<title>16427621247298</title>
</g>
<!-- 099&#45;&gt;16427621247298 -->
<g id="edge49" class="edge">
<title>099&#45;&gt;16427621247298</title>
<path fill="none" stroke="#34262b" stroke-width="0.75" d="M596.48,-318.78C605.62,-315.11 616.68,-310.67 626.66,-306.66"/>
<ellipse fill="none" stroke="#34262b" stroke-width="0.75" cx="630.67" cy="-305.05" rx="4" ry="4"/>
</g>
<!-- 093 -->
<g id="node10" class="node">
<title>093</title>
<ellipse fill="#ffc19c" stroke="#34262b" cx="734.4" cy="-356.6" rx="21.6" ry="21.6"/>
<text text-anchor="middle" x="734.4" y="-348.87" font-family="Helvetica,sans-Serif" font-size="18.00" fill="#34262b">093</text>
</g>
<!-- 073&#45;&gt;093 -->
<g id="edge9" class="edge">
<title>073&#45;&gt;093</title>
<path fill="none" stroke="#34262b" stroke-width="0.75" d="M677.3,-356.6C684.7,-356.6 693.19,-356.6 701.29,-356.6"/>
<polygon fill="#34262b" stroke="#34262b" stroke-width="0.75" points="701.2,-360.1 711.2,-356.6 701.2,-353.1 701.2,-360.1"/>
</g>
<!-- 033 -->
<g id="node11" class="node">
<title>033</title>
<ellipse fill="#ffc19c" stroke="#34262b" cx="813.6" cy="-356.6" rx="21.6" ry="21.6"/>
<text text-anchor="middle" x="813.6" y="-348.87" font-family="Helvetica,sans-Serif" font-size="18.00" fill="#34262b">033</text>
</g>
<!-- 093&#45;&gt;033 -->
<g id="edge10" class="edge">
<title>093&#45;&gt;033</title>
<path fill="none" stroke="#34262b" stroke-width="0.75" d="M756.5,-356.6C763.9,-356.6 772.39,-356.6 780.49,-356.6"/>
<polygon fill="#34262b" stroke="#34262b" stroke-width="0.75" points="780.4,-360.1 790.4,-356.6 780.4,-353.1 780.4,-360.1"/>
</g>
<!-- 024 -->
<g id="node12" class="node">
<title>024</title>
<ellipse fill="#ffc19c" stroke="#34262b" cx="972" cy="-412.6" rx="21.6" ry="21.6"/>
<text text-anchor="middle" x="972" y="-404.87" font-family="Helvetica,sans-Serif" font-size="18.00" fill="#34262b">024</text>
</g>
<!-- 033&#45;&gt;024 -->
<g id="edge11" class="edge">
<title>033&#45;&gt;024</title>
<path fill="none" stroke="#34262b" stroke-width="0.75" d="M825.39,-375.15C835.2,-390.01 851.2,-409.78 871.2,-418.6 892.91,-428.18 919.89,-425.82 940.32,-421.54"/>
<polygon fill="#34262b" stroke="#34262b" stroke-width="0.75" points="940.89,-425 949.82,-419.28 939.28,-418.18 940.89,-425"/>
</g>
<!-- 025 -->
<g id="node13" class="node">
<title>025</title>
<ellipse fill="#ffc19c" stroke="#34262b" cx="892.8" cy="-387.6" rx="21.6" ry="21.6"/>
<text text-anchor="middle" x="892.8" y="-379.87" font-family="Helvetica,sans-Serif" font-size="18.00" fill="#34262b">025</text>
</g>
<!-- 033&#45;&gt;025 -->
<g id="edge12" class="edge">
<title>033&#45;&gt;025</title>
<path fill="none" stroke="#34262b" stroke-width="0.75" d="M834.08,-364.42C842.58,-367.84 852.74,-371.92 862.15,-375.69"/>
<polygon fill="#34262b" stroke="#34262b" stroke-width="0.75" points="860.69,-378.88 871.27,-379.36 863.3,-372.38 860.69,-378.88"/>
</g>
<!-- 137567818264690 -->
<g id="node44" class="node">
<title>137567818264690</title>
</g>
<!-- 033&#45;&gt;137567818264690 -->
<g id="edge50" class="edge">
<title>033&#45;&gt;137567818264690</title>
<path fill="none" stroke="#34262b" stroke-width="0.75" d="M834.08,-349.03C843.22,-345.48 854.28,-341.18 864.26,-337.3"/>
<ellipse fill="none" stroke="#34262b" stroke-width="0.75" cx="868.25" cy="-335.75" rx="4" ry="4"/>
</g>
<!-- 133844634368524 -->
<g id="node45" class="node">
<title>133844634368524</title>
</g>
<!-- 033&#45;&gt;133844634368524 -->
<g id="edge51" class="edge">
<title>033&#45;&gt;133844634368524</title>
<path fill="none" stroke="#34262b" stroke-width="0.75" d="M828.4,-340.33C840.7,-325.84 858.81,-304.48 872.54,-288.31"/>
<ellipse fill="none" stroke="#34262b" stroke-width="0.75" cx="875.29" cy="-285.06" rx="4" ry="4"/>
</g>
<!-- 034 -->
<g id="node14" class="node">
<title>034</title>
<ellipse fill="#ffc19c" stroke="#34262b" cx="1051.2" cy="-504.6" rx="21.6" ry="21.6"/>
<text text-anchor="middle" x="1051.2" y="-496.87" font-family="Helvetica,sans-Serif" font-size="18.00" fill="#34262b">034</text>
</g>
<!-- 024&#45;&gt;034 -->
<g id="edge14" class="edge">
<title>024&#45;&gt;034</title>
<path fill="none" stroke="#34262b" stroke-width="0.75" d="M989,-426.07C1001.71,-439.74 1019.47,-460.84 1032.59,-477.84"/>
<polygon fill="#34262b" stroke="#34262b" stroke-width="0.75" points="1029.47,-479.51 1038.29,-485.38 1035.05,-475.29 1029.47,-479.51"/>
</g>
<!-- 024&#45;&gt;034 -->
<g id="edge15" class="edge">
<title>024&#45;&gt;034</title>
<path fill="none" stroke="#34262b" stroke-width="0.75" d="M984.06,-430.68C995.11,-445.7 1012.43,-466.81 1026.58,-482.73"/>
<polygon fill="#34262b" stroke="#34262b" stroke-width="0.75" points="1023.98,-485.07 1033.29,-490.12 1029.16,-480.37 1023.98,-485.07"/>
</g>
<!-- 166447123487581 -->
<g id="node46" class="node">
<title>166447123487581</title>
</g>
<!-- 024&#45;&gt;166447123487581 -->
<g id="edge52" class="edge">
<title>024&#45;&gt;166447123487581</title>
<path fill="none" stroke="#34262b" stroke-width="0.75" d="M992.48,-420.42C1001.62,-424.09 1012.68,-428.53 1022.66,-432.54"/>
<ellipse fill="none" stroke="#34262b" stroke-width="0.75" cx="1026.67" cy="-434.15" rx="4" ry="4"/>
</g>
<!-- 161728381954968 -->
<g id="node47" class="node">
<title>161728381954968</title>
</g>
<!-- 024&#45;&gt;161728381954968 -->
<g id="edge53" class="edge">
<title>024&#45;&gt;161728381954968</title>
<path fill="none" stroke="#34262b" stroke-width="0.75" d="M992.48,-405.03C1001.62,-401.48 1012.68,-397.18 1022.66,-393.3"/>
<ellipse fill="none" stroke="#34262b" stroke-width="0.75" cx="1026.65" cy="-391.75" rx="4" ry="4"/>
</g>
<!-- 165711365329111 -->
<g id="node48" class="node">
<title>165711365329111</title>
</g>
<!-- 024&#45;&gt;165711365329111 -->
<g id="edge54" class="edge">
<title>024&#45;&gt;165711365329111</title>
<path fill="none" stroke="#34262b" stroke-width="0.75" d="M986.8,-396.33C999.1,-381.84 1017.21,-360.48 1030.94,-344.31"/>
<ellipse fill="none" stroke="#34262b" stroke-width="0.75" cx="1033.69" cy="-341.06" rx="4" ry="4"/>
</g>
<!-- 165881901973859 -->
<g id="node49" class="node">
<title>165881901973859</title>
</g>
<!-- 024&#45;&gt;165881901973859 -->
<g id="edge55" class="edge">
<title>024&#45;&gt;165881901973859</title>
<path fill="none" stroke="#34262b" stroke-width="0.75" d="M981.04,-392.65C991.22,-368.07 1009.83,-325.29 1029.6,-290.6 1030.67,-288.73 1031.82,-286.82 1033.01,-284.92"/>
<ellipse fill="none" stroke="#34262b" stroke-width="0.75" cx="1035.32" cy="-281.39" rx="4" ry="4"/>
</g>
<!-- 025&#45;&gt;024 -->
<g id="edge13" class="edge">
<title>025&#45;&gt;024</title>
<path fill="none" stroke="#34262b" stroke-width="0.75" d="M913.68,-394.04C921.81,-396.67 931.4,-399.78 940.39,-402.69"/>
<polygon fill="#34262b" stroke="#34262b" stroke-width="0.75" points="939.25,-406 949.84,-405.75 941.4,-399.34 939.25,-406"/>
</g>
<!-- 091 -->
<g id="node15" class="node">
<title>091</title>
<ellipse fill="#ffc19c" stroke="#34262b" cx="1130.4" cy="-504.6" rx="21.6" ry="21.6"/>
<text text-anchor="middle" x="1130.4" y="-496.87" font-family="Helvetica,sans-Serif" font-size="18.00" fill="#34262b">091</text>
</g>
<!-- 034&#45;&gt;091 -->
<g id="edge16" class="edge">
<title>034&#45;&gt;091</title>
<path fill="none" stroke="#34262b" stroke-width="0.75" d="M1073.3,-504.6C1080.7,-504.6 1089.19,-504.6 1097.29,-504.6"/>
<polygon fill="#34262b" stroke="#34262b" stroke-width="0.75" points="1097.2,-508.1 1107.2,-504.6 1097.2,-501.1 1097.2,-508.1"/>
</g>
<!-- 080 -->
<g id="node16" class="node">
<title>080</title>
<ellipse fill="#ffc19c" stroke="#34262b" cx="1288.8" cy="-565.6" rx="21.6" ry="21.6"/>
<text text-anchor="middle" x="1288.8" y="-557.87" font-family="Helvetica,sans-Serif" font-size="18.00" fill="#34262b">080</text>
</g>
<!-- 091&#45;&gt;080 -->
<g id="edge17" class="edge">
<title>091&#45;&gt;080</title>
<path fill="none" stroke="#34262b" stroke-width="0.75" d="M1137.53,-525.49C1145.28,-547.65 1160.99,-581.5 1188,-596.6 1211.38,-609.67 1240.98,-597.36 1261.85,-584.59"/>
<polygon fill="#34262b" stroke="#34262b" stroke-width="0.75" points="1263.64,-587.6 1270.11,-579.21 1259.82,-581.74 1263.64,-587.6"/>
</g>
<!-- 075 -->
<g id="node17" class="node">
<title>075</title>
<ellipse fill="#ffc19c" stroke="#34262b" cx="1209.6" cy="-565.6" rx="21.6" ry="21.6"/>
<text text-anchor="middle" x="1209.6" y="-557.87" font-family="Helvetica,sans-Serif" font-size="18.00" fill="#34262b">075</text>
</g>
<!-- 091&#45;&gt;075 -->
<g id="edge18" class="edge">
<title>091&#45;&gt;075</title>
<path fill="none" stroke="#34262b" stroke-width="0.75" d="M1147.77,-517.54C1158.14,-525.73 1171.76,-536.49 1183.48,-545.75"/>
<polygon fill="#34262b" stroke="#34262b" stroke-width="0.75" points="1181.08,-548.31 1191.09,-551.77 1185.42,-542.82 1181.08,-548.31"/>
</g>
<!-- 076 -->
<g id="node18" class="node">
<title>076</title>
<ellipse fill="#ffc19c" stroke="#34262b" cx="1209.6" cy="-504.6" rx="21.6" ry="21.6"/>
<text text-anchor="middle" x="1209.6" y="-496.87" font-family="Helvetica,sans-Serif" font-size="18.00" fill="#34262b">076</text>
</g>
<!-- 091&#45;&gt;076 -->
<g id="edge19" class="edge">
<title>091&#45;&gt;076</title>
<path fill="none" stroke="#34262b" stroke-width="0.75" d="M1152.5,-504.6C1159.9,-504.6 1168.39,-504.6 1176.49,-504.6"/>
<polygon fill="#34262b" stroke="#34262b" stroke-width="0.75" points="1176.4,-508.1 1186.4,-504.6 1176.4,-501.1 1176.4,-508.1"/>
</g>
<!-- 23228768719000 -->
<g id="node50" class="node">
<title>23228768719000</title>
</g>
<!-- 091&#45;&gt;23228768719000 -->
<g id="edge56" class="edge">
<title>091&#45;&gt;23228768719000</title>
<path fill="none" stroke="#34262b" stroke-width="0.75" d="M1147.77,-491.66C1158.65,-483.07 1173.1,-471.65 1185.19,-462.1"/>
<ellipse fill="none" stroke="#34262b" stroke-width="0.75" cx="1188.55" cy="-459.44" rx="4" ry="4"/>
</g>
<!-- 25263687649022 -->
<g id="node51" class="node">
<title>25263687649022</title>
</g>
<!-- 091&#45;&gt;25263687649022 -->
<g id="edge57" class="edge">
<title>091&#45;&gt;25263687649022</title>
<path fill="none" stroke="#34262b" stroke-width="0.75" d="M1142.41,-486.1C1153.62,-467.4 1171.64,-437.75 1188,-412.6 1189.18,-410.79 1190.4,-408.93 1191.65,-407.07"/>
<ellipse fill="none" stroke="#34262b" stroke-width="0.75" cx="1194.02" cy="-403.57" rx="4" ry="4"/>
</g>
<!-- 078 -->
<g id="node19" class="node">
<title>078</title>
<ellipse fill="#ffc19c" stroke="#34262b" cx="1368" cy="-626.6" rx="21.6" ry="21.6"/>
<text text-anchor="middle" x="1368" y="-618.87" font-family="Helvetica,sans-Serif" font-size="18.00" fill="#34262b">078</text>
</g>
<!-- 080&#45;&gt;078 -->
<g id="edge22" class="edge">
<title>080&#45;&gt;078</title>
<path fill="none" stroke="#34262b" stroke-width="0.75" d="M1306.17,-578.54C1316.54,-586.73 1330.16,-597.49 1341.88,-606.75"/>
<polygon fill="#34262b" stroke="#34262b" stroke-width="0.75" points="1339.48,-609.31 1349.49,-612.77 1343.82,-603.82 1339.48,-609.31"/>
</g>
<!-- 28860022323271 -->
<g id="node52" class="node">
<title>28860022323271</title>
</g>
<!-- 080&#45;&gt;28860022323271 -->
<g id="edge58" class="edge">
<title>080&#45;&gt;28860022323271</title>
<path fill="none" stroke="#34262b" stroke-width="0.75" d="M1310.9,-565.6C1319.07,-565.6 1328.56,-565.6 1337.39,-565.6"/>
<ellipse fill="none" stroke="#34262b" stroke-width="0.75" cx="1341.56" cy="-565.6" rx="4" ry="4"/>
</g>
<!-- 17913110945546 -->
<g id="node53" class="node">
<title>17913110945546</title>
</g>
<!-- 080&#45;&gt;17913110945546 -->
<g id="edge59" class="edge">
<title>080&#45;&gt;17913110945546</title>
<path fill="none" stroke="#34262b" stroke-width="0.75" d="M1306.17,-552.66C1317.05,-544.07 1331.5,-532.65 1343.59,-523.1"/>
<ellipse fill="none" stroke="#34262b" stroke-width="0.75" cx="1346.95" cy="-520.44" rx="4" ry="4"/>
</g>
<!-- 075&#45;&gt;080 -->
<g id="edge20" class="edge">
<title>075&#45;&gt;080</title>
<path fill="none" stroke="#34262b" stroke-width="0.75" d="M1231.7,-565.6C1239.1,-565.6 1247.59,-565.6 1255.69,-565.6"/>
<polygon fill="#34262b" stroke="#34262b" stroke-width="0.75" points="1255.6,-569.1 1265.6,-565.6 1255.6,-562.1 1255.6,-569.1"/>
</g>
<!-- 076&#45;&gt;080 -->
<g id="edge21" class="edge">
<title>076&#45;&gt;080</title>
<path fill="none" stroke="#34262b" stroke-width="0.75" d="M1226.97,-517.54C1237.34,-525.73 1250.96,-536.49 1262.68,-545.75"/>
<polygon fill="#34262b" stroke="#34262b" stroke-width="0.75" points="1260.28,-548.31 1270.29,-551.77 1264.62,-542.82 1260.28,-548.31"/>
</g>
<!-- 010 -->
<g id="node20" class="node">
<title>010</title>
<ellipse fill="#ffc19c" stroke="#34262b" cx="1447.2" cy="-717.6" rx="21.6" ry="21.6"/>
<text text-anchor="middle" x="1447.2" y="-709.87" font-family="Helvetica,sans-Serif" font-size="18.00" fill="#34262b">010</text>
</g>
<!-- 078&#45;&gt;010 -->
<g id="edge23" class="edge">
<title>078&#45;&gt;010</title>
<path fill="none" stroke="#34262b" stroke-width="0.75" d="M1382.8,-642.87C1394.66,-656.84 1411.93,-677.2 1425.45,-693.14"/>
<polygon fill="#34262b" stroke="#34262b" stroke-width="0.75" points="1422.65,-695.24 1431.78,-700.61 1427.98,-690.72 1422.65,-695.24"/>
</g>
<!-- 34691307364334 -->
<g id="node54" class="node">
<title>34691307364334</title>
</g>
<!-- 078&#45;&gt;34691307364334 -->
<g id="edge60" class="edge">
<title>078&#45;&gt;34691307364334</title>
<path fill="none" stroke="#34262b" stroke-width="0.75" d="M1388.48,-634.17C1397.62,-637.72 1408.68,-642.02 1418.66,-645.9"/>
<ellipse fill="none" stroke="#34262b" stroke-width="0.75" cx="1422.65" cy="-647.45" rx="4" ry="4"/>
</g>
<!-- 34691307363378 -->
<g id="node55" class="node">
<title>34691307363378</title>
</g>
<!-- 078&#45;&gt;34691307363378 -->
<g id="edge61" class="edge">
<title>078&#45;&gt;34691307363378</title>
<path fill="none" stroke="#34262b" stroke-width="0.75" d="M1388.48,-618.78C1397.62,-615.11 1408.68,-610.67 1418.66,-606.66"/>
<ellipse fill="none" stroke="#34262b" stroke-width="0.75" cx="1422.67" cy="-605.05" rx="4" ry="4"/>
</g>
<!-- 34691307360644 -->
<g id="node56" class="node">
<title>34691307360644</title>
</g>
<!-- 078&#45;&gt;34691307360644 -->
<g id="edge62" class="edge">
<title>078&#45;&gt;34691307360644</title>
<path fill="none" stroke="#34262b" stroke-width="0.75" d="M1382.45,-610.57C1394.88,-595.76 1413.48,-573.59 1427.38,-557.02"/>
<ellipse fill="none" stroke="#34262b" stroke-width="0.75" cx="1429.84" cy="-554.1" rx="4" ry="4"/>
</g>
<!-- 086 -->
<g id="node21" class="node">
<title>086</title>
<ellipse fill="#ffc19c" stroke="#34262b" cx="1526.4" cy="-717.6" rx="21.6" ry="21.6"/>
<text text-anchor="middle" x="1526.4" y="-709.87" font-family="Helvetica,sans-Serif" font-size="18.00" fill="#34262b">086</text>
</g>
<!-- 010&#45;&gt;086 -->
<g id="edge24" class="edge">
<title>010&#45;&gt;086</title>
<path fill="none" stroke="#34262b" stroke-width="0.75" d="M1469.3,-717.6C1476.7,-717.6 1485.19,-717.6 1493.29,-717.6"/>
<polygon fill="#34262b" stroke="#34262b" stroke-width="0.75" points="1493.2,-721.1 1503.2,-717.6 1493.2,-714.1 1493.2,-721.1"/>
</g>
<!-- 029 -->
<g id="node22" class="node">
<title>029</title>
<ellipse fill="#ffc19c" stroke="#34262b" cx="1605.6" cy="-717.6" rx="21.6" ry="21.6"/>
<text text-anchor="middle" x="1605.6" y="-709.87" font-family="Helvetica,sans-Serif" font-size="18.00" fill="#34262b">029</text>
</g>
<!-- 086&#45;&gt;029 -->
<g id="edge25" class="edge">
<title>086&#45;&gt;029</title>
<path fill="none" stroke="#34262b" stroke-width="0.75" d="M1548.5,-717.6C1555.9,-717.6 1564.39,-717.6 1572.49,-717.6"/>
<polygon fill="#34262b" stroke="#34262b" stroke-width="0.75" points="1572.4,-721.1 1582.4,-717.6 1572.4,-714.1 1572.4,-721.1"/>
</g>
<!-- 045 -->
<g id="node23" class="node">
<title>045</title>
<ellipse fill="#ffc19c" stroke="#34262b" cx="1684.8" cy="-717.6" rx="21.6" ry="21.6"/>
<text text-anchor="middle" x="1684.8" y="-709.87" font-family="Helvetica,sans-Serif" font-size="18.00" fill="#34262b">045</text>
</g>
<!-- 029&#45;&gt;045 -->
<g id="edge26" class="edge">
<title>029&#45;&gt;045</title>
<path fill="none" stroke="#34262b" stroke-width="0.75" d="M1626.48,-711.61C1634.52,-710.9 1643.99,-710.69 1652.9,-710.97"/>
<polygon fill="#34262b" stroke="#34262b" stroke-width="0.75" points="1652.4,-714.45 1662.58,-711.53 1652.8,-707.46 1652.4,-714.45"/>
</g>
<!-- 029&#45;&gt;045 -->
<g id="edge27" class="edge">
<title>029&#45;&gt;045</title>
<path fill="none" stroke="#34262b" stroke-width="0.75" d="M1626.48,-723.59C1634.52,-724.3 1643.99,-724.51 1652.9,-724.23"/>
<polygon fill="#34262b" stroke="#34262b" stroke-width="0.75" points="1652.8,-727.74 1662.58,-723.67 1652.4,-720.75 1652.8,-727.74"/>
</g>
<!-- 012 -->
<g id="node24" class="node">
<title>012</title>
<ellipse fill="#ffc19c" stroke="#34262b" cx="1764" cy="-778.6" rx="21.6" ry="21.6"/>
<text text-anchor="middle" x="1764" y="-770.87" font-family="Helvetica,sans-Serif" font-size="18.00" fill="#34262b">012</text>
</g>
<!-- 045&#45;&gt;012 -->
<g id="edge28" class="edge">
<title>045&#45;&gt;012</title>
<path fill="none" stroke="#34262b" stroke-width="0.75" d="M1702.17,-730.54C1712.54,-738.73 1726.16,-749.49 1737.88,-758.75"/>
<polygon fill="#34262b" stroke="#34262b" stroke-width="0.75" points="1735.48,-761.31 1745.49,-764.77 1739.82,-755.82 1735.48,-761.31"/>
</g>
<!-- 237791690290201 -->
<g id="node57" class="node">
<title>237791690290201</title>
</g>
<!-- 045&#45;&gt;237791690290201 -->
<g id="edge63" class="edge">
<title>045&#45;&gt;237791690290201</title>
<path fill="none" stroke="#34262b" stroke-width="0.75" d="M1706.9,-717.6C1715.07,-717.6 1724.56,-717.6 1733.39,-717.6"/>
<ellipse fill="none" stroke="#34262b" stroke-width="0.75" cx="1737.56" cy="-717.6" rx="4" ry="4"/>
</g>
<!-- 234350336086754 -->
<g id="node58" class="node">
<title>234350336086754</title>
</g>
<!-- 045&#45;&gt;234350336086754 -->
<g id="edge64" class="edge">
<title>045&#45;&gt;234350336086754</title>
<path fill="none" stroke="#34262b" stroke-width="0.75" d="M1702.17,-704.66C1713.05,-696.07 1727.5,-684.65 1739.59,-675.1"/>
<ellipse fill="none" stroke="#34262b" stroke-width="0.75" cx="1742.95" cy="-672.44" rx="4" ry="4"/>
</g>
<!-- 032 -->
<g id="node25" class="node">
<title>032</title>
<ellipse fill="#ffc19c" stroke="#34262b" cx="1843.2" cy="-778.6" rx="21.6" ry="21.6"/>
<text text-anchor="middle" x="1843.2" y="-770.87" font-family="Helvetica,sans-Serif" font-size="18.00" fill="#34262b">032</text>
</g>
<!-- 012&#45;&gt;032 -->
<g id="edge29" class="edge">
<title>012&#45;&gt;032</title>
<path fill="none" stroke="#34262b" stroke-width="0.75" d="M1786.1,-778.6C1793.5,-778.6 1801.99,-778.6 1810.09,-778.6"/>
<polygon fill="#34262b" stroke="#34262b" stroke-width="0.75" points="1810,-782.1 1820,-778.6 1810,-775.1 1810,-782.1"/>
</g>
<!-- 036 -->
<g id="node26" class="node">
<title>036</title>
<ellipse fill="#ffc19c" stroke="#34262b" cx="1922.4" cy="-870.6" rx="21.6" ry="21.6"/>
<text text-anchor="middle" x="1922.4" y="-862.87" font-family="Helvetica,sans-Serif" font-size="18.00" fill="#34262b">036</text>
</g>
<!-- 032&#45;&gt;036 -->
<g id="edge30" class="edge">
<title>032&#45;&gt;036</title>
<path fill="none" stroke="#34262b" stroke-width="0.75" d="M1857.65,-794.63C1869.53,-808.79 1887.05,-829.66 1900.71,-845.95"/>
<polygon fill="#34262b" stroke="#34262b" stroke-width="0.75" points="1898.01,-848.17 1907.12,-853.58 1903.37,-843.67 1898.01,-848.17"/>
</g>
<!-- 39891969235649 -->
<g id="node59" class="node">
<title>39891969235649</title>
</g>
<!-- 032&#45;&gt;39891969235649 -->
<g id="edge65" class="edge">
<title>032&#45;&gt;39891969235649</title>
<path fill="none" stroke="#34262b" stroke-width="0.75" d="M1863.68,-786.42C1872.82,-790.09 1883.88,-794.53 1893.86,-798.54"/>
<ellipse fill="none" stroke="#34262b" stroke-width="0.75" cx="1897.87" cy="-800.15" rx="4" ry="4"/>
</g>
<!-- 40030811180335 -->
<g id="node60" class="node">
<title>40030811180335</title>
</g>
<!-- 032&#45;&gt;40030811180335 -->
<g id="edge66" class="edge">
<title>032&#45;&gt;40030811180335</title>
<path fill="none" stroke="#34262b" stroke-width="0.75" d="M1863.68,-771.03C1872.82,-767.48 1883.88,-763.18 1893.86,-759.3"/>
<ellipse fill="none" stroke="#34262b" stroke-width="0.75" cx="1897.85" cy="-757.75" rx="4" ry="4"/>
</g>
<!-- 39735907674280 -->
<g id="node61" class="node">
<title>39735907674280</title>
</g>
<!-- 032&#45;&gt;39735907674280 -->
<g id="edge67" class="edge">
<title>032&#45;&gt;39735907674280</title>
<path fill="none" stroke="#34262b" stroke-width="0.75" d="M1858,-762.33C1870.3,-747.84 1888.41,-726.48 1902.14,-710.31"/>
<ellipse fill="none" stroke="#34262b" stroke-width="0.75" cx="1904.89" cy="-707.06" rx="4" ry="4"/>
</g>
<!-- 035 -->
<g id="node27" class="node">
<title>035</title>
<ellipse fill="#ffc19c" stroke="#34262b" cx="2001.6" cy="-931.6" rx="21.6" ry="21.6"/>
<text text-anchor="middle" x="2001.6" y="-923.87" font-family="Helvetica,sans-Serif" font-size="18.00" fill="#34262b">035</text>
</g>
<!-- 036&#45;&gt;035 -->
<g id="edge31" class="edge">
<title>036&#45;&gt;035</title>
<path fill="none" stroke="#34262b" stroke-width="0.75" d="M1939.77,-883.54C1950.14,-891.73 1963.76,-902.49 1975.48,-911.75"/>
<polygon fill="#34262b" stroke="#34262b" stroke-width="0.75" points="1973.08,-914.31 1983.09,-917.77 1977.42,-908.82 1973.08,-914.31"/>
</g>
<!-- 128750693527757 -->
<g id="node62" class="node">
<title>128750693527757</title>
</g>
<!-- 036&#45;&gt;128750693527757 -->
<g id="edge68" class="edge">
<title>036&#45;&gt;128750693527757</title>
<path fill="none" stroke="#34262b" stroke-width="0.75" d="M1944.5,-870.6C1952.67,-870.6 1962.16,-870.6 1970.99,-870.6"/>
<ellipse fill="none" stroke="#34262b" stroke-width="0.75" cx="1975.16" cy="-870.6" rx="4" ry="4"/>
</g>
<!-- 130035311163695 -->
<g id="node63" class="node">
<title>130035311163695</title>
</g>
<!-- 036&#45;&gt;130035311163695 -->
<g id="edge69" class="edge">
<title>036&#45;&gt;130035311163695</title>
<path fill="none" stroke="#34262b" stroke-width="0.75" d="M1939.77,-857.66C1950.65,-849.07 1965.1,-837.65 1977.19,-828.1"/>
<ellipse fill="none" stroke="#34262b" stroke-width="0.75" cx="1980.55" cy="-825.44" rx="4" ry="4"/>
</g>
<!-- 046 -->
<g id="node28" class="node">
<title>046</title>
<ellipse fill="#ffc19c" stroke="#34262b" cx="2080.8" cy="-931.6" rx="21.6" ry="21.6"/>
<text text-anchor="middle" x="2080.8" y="-923.87" font-family="Helvetica,sans-Serif" font-size="18.00" fill="#34262b">046</text>
</g>
<!-- 035&#45;&gt;046 -->
<g id="edge32" class="edge">
<title>035&#45;&gt;046</title>
<path fill="none" stroke="#34262b" stroke-width="0.75" d="M2023.7,-931.6C2031.1,-931.6 2039.59,-931.6 2047.69,-931.6"/>
<polygon fill="#34262b" stroke="#34262b" stroke-width="0.75" points="2047.6,-935.1 2057.6,-931.6 2047.6,-928.1 2047.6,-935.1"/>
</g>
<!-- 071 -->
<g id="node29" class="node">
<title>071</title>
<ellipse fill="#ffc19c" stroke="#34262b" cx="2160" cy="-962.6" rx="21.6" ry="21.6"/>
<text text-anchor="middle" x="2160" y="-954.87" font-family="Helvetica,sans-Serif" font-size="18.00" fill="#34262b">071</text>
</g>
<!-- 046&#45;&gt;071 -->
<g id="edge33" class="edge">
<title>046&#45;&gt;071</title>
<path fill="none" stroke="#34262b" stroke-width="0.75" d="M2101.28,-939.42C2109.78,-942.84 2119.94,-946.92 2129.35,-950.69"/>
<polygon fill="#34262b" stroke="#34262b" stroke-width="0.75" points="2127.89,-953.88 2138.47,-954.36 2130.5,-947.38 2127.89,-953.88"/>
</g>
<!-- 203589828702201 -->
<g id="node64" class="node">
<title>203589828702201</title>
</g>
<!-- 046&#45;&gt;203589828702201 -->
<g id="edge70" class="edge">
<title>046&#45;&gt;203589828702201</title>
<path fill="none" stroke="#34262b" stroke-width="0.75" d="M2101.28,-924.03C2110.42,-920.48 2121.48,-916.18 2131.46,-912.3"/>
<ellipse fill="none" stroke="#34262b" stroke-width="0.75" cx="2135.45" cy="-910.75" rx="4" ry="4"/>
</g>
<!-- 018 -->
<g id="node30" class="node">
<title>018</title>
<ellipse fill="#ffc19c" stroke="#34262b" cx="2239.2" cy="-962.6" rx="21.6" ry="21.6"/>
<text text-anchor="middle" x="2239.2" y="-954.87" font-family="Helvetica,sans-Serif" font-size="18.00" fill="#34262b">018</text>
</g>
<!-- 071&#45;&gt;018 -->
<g id="edge34" class="edge">
<title>071&#45;&gt;018</title>
<path fill="none" stroke="#34262b" stroke-width="0.75" d="M2182.1,-962.6C2189.5,-962.6 2197.99,-962.6 2206.09,-962.6"/>
<polygon fill="#34262b" stroke="#34262b" stroke-width="0.75" points="2206,-966.1 2216,-962.6 2206,-959.1 2206,-966.1"/>
</g>
<!-- 004 -->
<g id="node31" class="node">
<title>004</title>
<ellipse fill="#ffc19c" stroke="#34262b" cx="2318.4" cy="-962.6" rx="21.6" ry="21.6"/>
<text text-anchor="middle" x="2318.4" y="-954.87" font-family="Helvetica,sans-Serif" font-size="18.00" fill="#34262b">004</text>
</g>
<!-- 018&#45;&gt;004 -->
<g id="edge35" class="edge">
<title>018&#45;&gt;004</title>
<path fill="none" stroke="#34262b" stroke-width="0.75" d="M2261.3,-962.6C2268.7,-962.6 2277.19,-962.6 2285.29,-962.6"/>
<polygon fill="#34262b" stroke="#34262b" stroke-width="0.75" points="2285.2,-966.1 2295.2,-962.6 2285.2,-959.1 2285.2,-966.1"/>
</g>
<!-- 051 -->
<g id="node32" class="node">
<title>051</title>
<ellipse fill="#ffc19c" stroke="#34262b" cx="2397.6" cy="-993.6" rx="21.6" ry="21.6"/>
<text text-anchor="middle" x="2397.6" y="-985.87" font-family="Helvetica,sans-Serif" font-size="18.00" fill="#34262b">051</text>
</g>
<!-- 004&#45;&gt;051 -->
<g id="edge36" class="edge">
<title>004&#45;&gt;051</title>
<path fill="none" stroke="#34262b" stroke-width="0.75" d="M2338.88,-970.42C2347.38,-973.84 2357.54,-977.92 2366.95,-981.69"/>
<polygon fill="#34262b" stroke="#34262b" stroke-width="0.75" points="2365.49,-984.88 2376.07,-985.36 2368.1,-978.38 2365.49,-984.88"/>
</g>
<!-- 66225330703443 -->
<g id="node65" class="node">
<title>66225330703443</title>
</g>
<!-- 004&#45;&gt;66225330703443 -->
<g id="edge71" class="edge">
<title>004&#45;&gt;66225330703443</title>
<path fill="none" stroke="#34262b" stroke-width="0.75" d="M2338.88,-955.03C2348.02,-951.48 2359.08,-947.18 2369.06,-943.3"/>
<ellipse fill="none" stroke="#34262b" stroke-width="0.75" cx="2373.05" cy="-941.75" rx="4" ry="4"/>
</g>
<!-- 051&#45;&gt;049 -->
<g id="edge39" class="edge">
<title>051&#45;&gt;049</title>
<path fill="none" stroke="#34262b" stroke-width="0.75" d="M2415.49,-1005.79C2426.27,-1012.81 2440.87,-1020.93 2455.2,-1024.6 2487.65,-1032.9 2524.95,-1020.55 2550.01,-1009.06"/>
<polygon fill="#34262b" stroke="#34262b" stroke-width="0.75" points="2551.46,-1012.25 2558.94,-1004.75 2548.41,-1005.95 2551.46,-1012.25"/>
</g>
<!-- 052 -->
<g id="node33" class="node">
<title>052</title>
<ellipse fill="#ffc19c" stroke="#34262b" cx="2476.8" cy="-993.6" rx="21.6" ry="21.6"/>
<text text-anchor="middle" x="2476.8" y="-985.87" font-family="Helvetica,sans-Serif" font-size="18.00" fill="#34262b">052</text>
</g>
<!-- 051&#45;&gt;052 -->
<g id="edge37" class="edge">
<title>051&#45;&gt;052</title>
<path fill="none" stroke="#34262b" stroke-width="0.75" d="M2419.7,-993.6C2427.1,-993.6 2435.59,-993.6 2443.69,-993.6"/>
<polygon fill="#34262b" stroke="#34262b" stroke-width="0.75" points="2443.6,-997.1 2453.6,-993.6 2443.6,-990.1 2443.6,-997.1"/>
</g>
<!-- 053 -->
<g id="node34" class="node">
<title>053</title>
<ellipse fill="#ffc19c" stroke="#34262b" cx="2476.8" cy="-932.6" rx="21.6" ry="21.6"/>
<text text-anchor="middle" x="2476.8" y="-924.87" font-family="Helvetica,sans-Serif" font-size="18.00" fill="#34262b">053</text>
</g>
<!-- 051&#45;&gt;053 -->
<g id="edge38" class="edge">
<title>051&#45;&gt;053</title>
<path fill="none" stroke="#34262b" stroke-width="0.75" d="M2414.97,-980.66C2425.34,-972.47 2438.96,-961.71 2450.68,-952.45"/>
<polygon fill="#34262b" stroke="#34262b" stroke-width="0.75" points="2452.62,-955.38 2458.29,-946.43 2448.28,-949.89 2452.62,-955.38"/>
</g>
<!-- 052&#45;&gt;049 -->
<g id="edge40" class="edge">
<title>052&#45;&gt;049</title>
<path fill="none" stroke="#34262b" stroke-width="0.75" d="M2498.73,-993.6C2509.84,-993.6 2523.89,-993.6 2537.12,-993.6"/>
<polygon fill="#34262b" stroke="#34262b" stroke-width="0.75" points="2536.81,-997.1 2546.81,-993.6 2536.81,-990.1 2536.81,-997.1"/>
</g>
<!-- 053&#45;&gt;049 -->
<g id="edge41" class="edge">
<title>053&#45;&gt;049</title>
<path fill="none" stroke="#34262b" stroke-width="0.75" d="M2495.86,-943.51C2511.66,-953.05 2534.81,-967.03 2552.65,-977.79"/>
<polygon fill="#34262b" stroke="#34262b" stroke-width="0.75" points="2550.59,-980.64 2560.95,-982.81 2554.2,-974.65 2550.59,-980.64"/>
</g>
<!-- 042 -->
<g id="node35" class="node">
<title>042</title>
<ellipse fill="#dbde92" stroke="#34262b" cx="21.6" cy="-112.6" rx="21.6" ry="21.6"/>
<text text-anchor="middle" x="21.6" y="-104.87" font-family="Helvetica,sans-Serif" font-size="18.00" fill="#34262b">042</text>
</g>
<!-- 042&#45;&gt;002 -->
<g id="edge1" class="edge">
<title>042&#45;&gt;002</title>
<path fill="none" stroke="#34262b" stroke-width="0.75" d="M43.7,-112.6C51.1,-112.6 59.59,-112.6 67.69,-112.6"/>
<polygon fill="#34262b" stroke="#34262b" stroke-width="0.75" points="67.6,-116.1 77.6,-112.6 67.6,-109.1 67.6,-116.1"/>
</g>
</g>
</svg>
