<?xml version="1.0" encoding="UTF-8" standalone="no"?>
<!DOCTYPE svg PUBLIC "-//W3C//DTD SVG 1.1//EN"
 "http://www.w3.org/Graphics/SVG/1.1/DTD/svg11.dtd">
<!-- Generated by graphviz version 12.2.1 (20241206.2353)
 -->
<!-- Title: G Pages: 1 -->
<svg width="2722pt" height="738pt"
 viewBox="0.00 0.00 2722.20 737.55" xmlns="http://www.w3.org/2000/svg" xmlns:xlink="http://www.w3.org/1999/xlink">
<g id="graph0" class="graph" transform="scale(1 1) rotate(0) translate(4 733.55)">
<title>G</title>
<polygon fill="#fdfeff" stroke="none" points="-4,4 -4,-733.55 2718.2,-733.55 2718.2,4 -4,4"/>
<!-- 049 -->
<g id="node1" class="node">
<title>049</title>
<polygon fill="#fee548" stroke="#34262b" points="2714.2,-696.55 2679.5,-696.55 2668.77,-729.55 2658.05,-696.55 2623.35,-696.55 2651.42,-676.15 2640.7,-643.15 2668.77,-663.55 2696.85,-643.15 2686.12,-676.15 2714.2,-696.55"/>
<text text-anchor="middle" x="2668.77" y="-678.62" font-family="Helvetica,sans-Serif" font-size="18.00" fill="#34262b">049</text>
<text text-anchor="middle" x="2613.6" y="-626.05" font-family="Helvetica,sans-Serif" font-size="18.00" fill="#34262b">36</text>
</g>
<!-- 002 -->
<g id="node2" class="node">
<title>002</title>
<ellipse fill="#ffc19c" stroke="#34262b" cx="110.55" cy="-90.35" rx="21.6" ry="21.6"/>
<text text-anchor="middle" x="110.55" y="-82.63" font-family="Helvetica,sans-Serif" font-size="18.00" fill="#34262b">002</text>
<text text-anchor="middle" x="84.07" y="-51.65" font-family="Helvetica,sans-Serif" font-size="18.00" fill="#34262b">2</text>
</g>
<!-- 048 -->
<g id="node18" class="node">
<title>048</title>
<ellipse fill="#ffc19c" stroke="#34262b" cx="189.75" cy="-133.35" rx="21.6" ry="21.6"/>
<text text-anchor="middle" x="189.75" y="-125.63" font-family="Helvetica,sans-Serif" font-size="18.00" fill="#34262b">048</text>
<text text-anchor="middle" x="163.27" y="-94.65" font-family="Helvetica,sans-Serif" font-size="18.00" fill="#34262b">3</text>
</g>
<!-- 002&#45;&gt;048 -->
<g id="edge1" class="edge">
<title>002&#45;&gt;048</title>
<path fill="none" stroke="#34262b" stroke-width="0.75" d="M129.85,-100.54C139.1,-105.7 150.54,-112.07 160.87,-117.82"/>
<polygon fill="#34262b" stroke="#34262b" stroke-width="0.75" points="158.89,-120.72 169.33,-122.53 162.29,-114.61 158.89,-120.72"/>
</g>
<!-- 136974024208867 -->
<g id="node39" class="node">
<title>136974024208867</title>
<ellipse fill="none" stroke="#34262b" cx="189.75" cy="-90.35" rx="3.6" ry="3.6"/>
</g>
<!-- 002&#45;&gt;136974024208867 -->
<g id="edge43" class="edge">
<title>002&#45;&gt;136974024208867</title>
<path fill="none" stroke="#34262b" stroke-width="0.75" d="M132.65,-90.35C151.57,-90.35 177.63,-90.35 186.03,-90.35"/>
</g>
<!-- 140206456605608 -->
<g id="node42" class="node">
<title>140206456605608</title>
<ellipse fill="none" stroke="#34262b" cx="189.75" cy="-65.35" rx="3.6" ry="3.6"/>
<text text-anchor="middle" x="181.27" y="-44.65" font-family="Helvetica,sans-Serif" font-size="18.00" fill="#34262b">2</text>
</g>
<!-- 002&#45;&gt;140206456605608 -->
<g id="edge44" class="edge">
<title>002&#45;&gt;140206456605608</title>
<path fill="none" stroke="#34262b" stroke-width="0.75" d="M131.43,-83.91C150.37,-77.78 177.25,-69.07 185.93,-66.26"/>
</g>
<!-- 004 -->
<g id="node3" class="node">
<title>004</title>
<ellipse fill="#ffc19c" stroke="#34262b" cx="2407.35" cy="-686.35" rx="21.6" ry="21.6"/>
<text text-anchor="middle" x="2407.35" y="-678.62" font-family="Helvetica,sans-Serif" font-size="18.00" fill="#34262b">004</text>
<text text-anchor="middle" x="2376" y="-647.65" font-family="Helvetica,sans-Serif" font-size="18.00" fill="#34262b">32</text>
</g>
<!-- 051 -->
<g id="node19" class="node">
<title>051</title>
<ellipse fill="#ffc19c" stroke="#34262b" cx="2486.55" cy="-686.35" rx="21.6" ry="21.6"/>
<text text-anchor="middle" x="2486.55" y="-678.62" font-family="Helvetica,sans-Serif" font-size="18.00" fill="#34262b">051</text>
<text text-anchor="middle" x="2455.2" y="-647.65" font-family="Helvetica,sans-Serif" font-size="18.00" fill="#34262b">33</text>
</g>
<!-- 004&#45;&gt;051 -->
<g id="edge2" class="edge">
<title>004&#45;&gt;051</title>
<path fill="none" stroke="#34262b" stroke-width="0.75" d="M2429.45,-686.35C2436.85,-686.35 2445.34,-686.35 2453.44,-686.35"/>
<polygon fill="#34262b" stroke="#34262b" stroke-width="0.75" points="2453.35,-689.85 2463.35,-686.35 2453.35,-682.85 2453.35,-689.85"/>
</g>
<!-- 010 -->
<g id="node4" class="node">
<title>010</title>
<ellipse fill="#ffc19c" stroke="#34262b" cx="1536.15" cy="-522.35" rx="21.6" ry="21.6"/>
<text text-anchor="middle" x="1536.15" y="-514.62" font-family="Helvetica,sans-Serif" font-size="18.00" fill="#34262b">010</text>
<text text-anchor="middle" x="1504.8" y="-483.65" font-family="Helvetica,sans-Serif" font-size="18.00" fill="#34262b">21</text>
</g>
<!-- 086 -->
<g id="node31" class="node">
<title>086</title>
<ellipse fill="#ffc19c" stroke="#34262b" cx="1615.35" cy="-522.35" rx="21.6" ry="21.6"/>
<text text-anchor="middle" x="1615.35" y="-514.62" font-family="Helvetica,sans-Serif" font-size="18.00" fill="#34262b">086</text>
<text text-anchor="middle" x="1584" y="-483.65" font-family="Helvetica,sans-Serif" font-size="18.00" fill="#34262b">22</text>
</g>
<!-- 010&#45;&gt;086 -->
<g id="edge3" class="edge">
<title>010&#45;&gt;086</title>
<path fill="none" stroke="#34262b" stroke-width="0.75" d="M1558.25,-522.35C1565.65,-522.35 1574.14,-522.35 1582.24,-522.35"/>
<polygon fill="#34262b" stroke="#34262b" stroke-width="0.75" points="1582.15,-525.85 1592.15,-522.35 1582.15,-518.85 1582.15,-525.85"/>
</g>
<!-- 012 -->
<g id="node5" class="node">
<title>012</title>
<ellipse fill="#ffc19c" stroke="#34262b" cx="1852.95" cy="-565.35" rx="21.6" ry="21.6"/>
<text text-anchor="middle" x="1852.95" y="-557.62" font-family="Helvetica,sans-Serif" font-size="18.00" fill="#34262b">012</text>
<text text-anchor="middle" x="1821.6" y="-526.65" font-family="Helvetica,sans-Serif" font-size="18.00" fill="#34262b">25</text>
</g>
<!-- 032 -->
<g id="node11" class="node">
<title>032</title>
<ellipse fill="#ffc19c" stroke="#34262b" cx="1932.15" cy="-565.35" rx="21.6" ry="21.6"/>
<text text-anchor="middle" x="1932.15" y="-557.62" font-family="Helvetica,sans-Serif" font-size="18.00" fill="#34262b">032</text>
<text text-anchor="middle" x="1900.8" y="-526.65" font-family="Helvetica,sans-Serif" font-size="18.00" fill="#34262b">26</text>
</g>
<!-- 012&#45;&gt;032 -->
<g id="edge4" class="edge">
<title>012&#45;&gt;032</title>
<path fill="none" stroke="#34262b" stroke-width="0.75" d="M1875.05,-565.35C1882.45,-565.35 1890.94,-565.35 1899.04,-565.35"/>
<polygon fill="#34262b" stroke="#34262b" stroke-width="0.75" points="1898.95,-568.85 1908.95,-565.35 1898.95,-561.85 1898.95,-568.85"/>
</g>
<!-- 018 -->
<g id="node6" class="node">
<title>018</title>
<ellipse fill="#ffc19c" stroke="#34262b" cx="2328.15" cy="-686.35" rx="21.6" ry="21.6"/>
<text text-anchor="middle" x="2328.15" y="-678.62" font-family="Helvetica,sans-Serif" font-size="18.00" fill="#34262b">018</text>
<text text-anchor="middle" x="2296.8" y="-647.65" font-family="Helvetica,sans-Serif" font-size="18.00" fill="#34262b">31</text>
</g>
<!-- 018&#45;&gt;004 -->
<g id="edge5" class="edge">
<title>018&#45;&gt;004</title>
<path fill="none" stroke="#34262b" stroke-width="0.75" d="M2350.25,-686.35C2357.65,-686.35 2366.14,-686.35 2374.24,-686.35"/>
<polygon fill="#34262b" stroke="#34262b" stroke-width="0.75" points="2374.15,-689.85 2384.15,-686.35 2374.15,-682.85 2374.15,-689.85"/>
</g>
<!-- 023 -->
<g id="node7" class="node">
<title>023</title>
<ellipse fill="#ffc19c" stroke="#34262b" cx="268.95" cy="-133.35" rx="21.6" ry="21.6"/>
<text text-anchor="middle" x="268.95" y="-125.63" font-family="Helvetica,sans-Serif" font-size="18.00" fill="#34262b">023</text>
<text text-anchor="middle" x="242.47" y="-94.65" font-family="Helvetica,sans-Serif" font-size="18.00" fill="#34262b">4</text>
</g>
<!-- 060 -->
<g id="node22" class="node">
<title>060</title>
<ellipse fill="#ffc19c" stroke="#34262b" cx="348.15" cy="-189.35" rx="21.6" ry="21.6"/>
<text text-anchor="middle" x="348.15" y="-181.63" font-family="Helvetica,sans-Serif" font-size="18.00" fill="#34262b">060</text>
<text text-anchor="middle" x="321.67" y="-150.65" font-family="Helvetica,sans-Serif" font-size="18.00" fill="#34262b">5</text>
</g>
<!-- 023&#45;&gt;060 -->
<g id="edge6" class="edge">
<title>023&#45;&gt;060</title>
<path fill="none" stroke="#34262b" stroke-width="0.75" d="M287.08,-145.78C297.08,-153.03 309.89,-162.32 321.11,-170.46"/>
<polygon fill="#34262b" stroke="#34262b" stroke-width="0.75" points="319,-173.25 329.15,-176.29 323.11,-167.59 319,-173.25"/>
</g>
<!-- 37150133620128 -->
<g id="node60" class="node">
<title>37150133620128</title>
<ellipse fill="none" stroke="#34262b" cx="348.15" cy="-146.35" rx="3.6" ry="3.6"/>
</g>
<!-- 023&#45;&gt;37150133620128 -->
<g id="edge45" class="edge">
<title>023&#45;&gt;37150133620128</title>
<path fill="none" stroke="#34262b" stroke-width="0.75" d="M290.64,-136.83C309.58,-140.02 335.9,-144.46 344.39,-145.89"/>
</g>
<!-- 47890482868936 -->
<g id="node63" class="node">
<title>47890482868936</title>
<ellipse fill="none" stroke="#34262b" cx="348.15" cy="-121.35" rx="3.6" ry="3.6"/>
<text text-anchor="middle" x="339.67" y="-100.65" font-family="Helvetica,sans-Serif" font-size="18.00" fill="#34262b">3</text>
</g>
<!-- 023&#45;&gt;47890482868936 -->
<g id="edge46" class="edge">
<title>023&#45;&gt;47890482868936</title>
<path fill="none" stroke="#34262b" stroke-width="0.75" d="M290.64,-130.13C309.58,-127.19 335.9,-123.1 344.39,-121.78"/>
</g>
<!-- 50457013926347 -->
<g id="node65" class="node">
<title>50457013926347</title>
<ellipse fill="none" stroke="#34262b" cx="348.15" cy="-96.35" rx="3.6" ry="3.6"/>
</g>
<!-- 023&#45;&gt;50457013926347 -->
<g id="edge47" class="edge">
<title>023&#45;&gt;50457013926347</title>
<path fill="none" stroke="#34262b" stroke-width="0.75" d="M289.03,-124.2C308.32,-114.96 336.44,-101.49 344.75,-97.5"/>
</g>
<!-- 024 -->
<g id="node8" class="node">
<title>024</title>
<ellipse fill="#ffc19c" stroke="#34262b" cx="1060.95" cy="-389.35" rx="21.6" ry="21.6"/>
<text text-anchor="middle" x="1060.95" y="-381.62" font-family="Helvetica,sans-Serif" font-size="18.00" fill="#34262b">024</text>
<text text-anchor="middle" x="1029.6" y="-350.65" font-family="Helvetica,sans-Serif" font-size="18.00" fill="#34262b">14</text>
</g>
<!-- 034 -->
<g id="node13" class="node">
<title>034</title>
<ellipse fill="#ffc19c" stroke="#34262b" cx="1140.15" cy="-445.35" rx="21.6" ry="21.6"/>
<text text-anchor="middle" x="1140.15" y="-437.62" font-family="Helvetica,sans-Serif" font-size="18.00" fill="#34262b">034</text>
<text text-anchor="middle" x="1108.8" y="-406.65" font-family="Helvetica,sans-Serif" font-size="18.00" fill="#34262b">15</text>
</g>
<!-- 024&#45;&gt;034 -->
<g id="edge7" class="edge">
<title>024&#45;&gt;034</title>
<path fill="none" stroke="#34262b" stroke-width="0.75" d="M1081.43,-397.53C1092.15,-404.33 1105.49,-413.92 1116.65,-422.83"/>
<polygon fill="#34262b" stroke="#34262b" stroke-width="0.75" points="1114.22,-425.36 1124.16,-429.03 1118.68,-419.96 1114.22,-425.36"/>
</g>
<!-- 024&#45;&gt;034 -->
<g id="edge8" class="edge">
<title>024&#45;&gt;034</title>
<path fill="none" stroke="#34262b" stroke-width="0.75" d="M1076.11,-404.99C1085.8,-413.3 1098.97,-423.25 1110.77,-431.3"/>
<polygon fill="#34262b" stroke="#34262b" stroke-width="0.75" points="1108.62,-434.08 1118.9,-436.66 1112.48,-428.23 1108.62,-434.08"/>
</g>
<!-- 161821468565730 -->
<g id="node44" class="node">
<title>161821468565730</title>
<ellipse fill="none" stroke="#34262b" cx="1140.15" cy="-402.35" rx="3.6" ry="3.6"/>
</g>
<!-- 024&#45;&gt;161821468565730 -->
<g id="edge48" class="edge">
<title>024&#45;&gt;161821468565730</title>
<path fill="none" stroke="#34262b" stroke-width="0.75" d="M1082.64,-392.83C1101.58,-396.02 1127.9,-400.46 1136.39,-401.89"/>
</g>
<!-- 165888542179420 -->
<g id="node45" class="node">
<title>165888542179420</title>
<ellipse fill="none" stroke="#34262b" cx="1140.15" cy="-377.35" rx="3.6" ry="3.6"/>
</g>
<!-- 024&#45;&gt;165888542179420 -->
<g id="edge49" class="edge">
<title>024&#45;&gt;165888542179420</title>
<path fill="none" stroke="#34262b" stroke-width="0.75" d="M1082.64,-386.13C1101.58,-383.19 1127.9,-379.1 1136.39,-377.78"/>
</g>
<!-- 166013587439609 -->
<g id="node46" class="node">
<title>166013587439609</title>
<ellipse fill="none" stroke="#34262b" cx="1140.15" cy="-352.35" rx="3.6" ry="3.6"/>
<text text-anchor="middle" x="1131.67" y="-331.65" font-family="Helvetica,sans-Serif" font-size="18.00" fill="#34262b">4</text>
</g>
<!-- 024&#45;&gt;166013587439609 -->
<g id="edge50" class="edge">
<title>024&#45;&gt;166013587439609</title>
<path fill="none" stroke="#34262b" stroke-width="0.75" d="M1081.03,-380.2C1100.32,-370.96 1128.44,-357.49 1136.75,-353.5"/>
</g>
<!-- 167117019028817 -->
<g id="node47" class="node">
<title>167117019028817</title>
<ellipse fill="none" stroke="#34262b" cx="1140.15" cy="-327.35" rx="3.6" ry="3.6"/>
</g>
<!-- 024&#45;&gt;167117019028817 -->
<g id="edge51" class="edge">
<title>024&#45;&gt;167117019028817</title>
<path fill="none" stroke="#34262b" stroke-width="0.75" d="M1077.12,-374.48C1088.14,-364.04 1103.67,-350.1 1118.55,-339.35 1124.59,-334.99 1132.32,-330.83 1136.38,-328.74"/>
</g>
<!-- 025 -->
<g id="node9" class="node">
<title>025</title>
<ellipse fill="#ffc19c" stroke="#34262b" cx="981.75" cy="-364.35" rx="21.6" ry="21.6"/>
<text text-anchor="middle" x="981.75" y="-356.62" font-family="Helvetica,sans-Serif" font-size="18.00" fill="#34262b">025</text>
<text text-anchor="middle" x="950.4" y="-325.65" font-family="Helvetica,sans-Serif" font-size="18.00" fill="#34262b">13</text>
</g>
<!-- 025&#45;&gt;024 -->
<g id="edge9" class="edge">
<title>025&#45;&gt;024</title>
<path fill="none" stroke="#34262b" stroke-width="0.75" d="M1002.63,-370.79C1010.76,-373.42 1020.35,-376.53 1029.34,-379.44"/>
<polygon fill="#34262b" stroke="#34262b" stroke-width="0.75" points="1028.2,-382.75 1038.79,-382.5 1030.35,-376.09 1028.2,-382.75"/>
</g>
<!-- 029 -->
<g id="node10" class="node">
<title>029</title>
<ellipse fill="#ffc19c" stroke="#34262b" cx="1694.55" cy="-522.35" rx="21.6" ry="21.6"/>
<text text-anchor="middle" x="1694.55" y="-514.62" font-family="Helvetica,sans-Serif" font-size="18.00" fill="#34262b">029</text>
<text text-anchor="middle" x="1663.2" y="-483.65" font-family="Helvetica,sans-Serif" font-size="18.00" fill="#34262b">23</text>
</g>
<!-- 045 -->
<g id="node16" class="node">
<title>045</title>
<ellipse fill="#ffc19c" stroke="#34262b" cx="1773.75" cy="-522.35" rx="21.6" ry="21.6"/>
<text text-anchor="middle" x="1773.75" y="-514.62" font-family="Helvetica,sans-Serif" font-size="18.00" fill="#34262b">045</text>
<text text-anchor="middle" x="1742.4" y="-483.65" font-family="Helvetica,sans-Serif" font-size="18.00" fill="#34262b">24</text>
</g>
<!-- 029&#45;&gt;045 -->
<g id="edge10" class="edge">
<title>029&#45;&gt;045</title>
<path fill="none" stroke="#34262b" stroke-width="0.75" d="M1715.43,-516.36C1723.47,-515.65 1732.94,-515.44 1741.85,-515.72"/>
<polygon fill="#34262b" stroke="#34262b" stroke-width="0.75" points="1741.35,-519.2 1751.53,-516.28 1741.75,-512.21 1741.35,-519.2"/>
</g>
<!-- 029&#45;&gt;045 -->
<g id="edge11" class="edge">
<title>029&#45;&gt;045</title>
<path fill="none" stroke="#34262b" stroke-width="0.75" d="M1715.43,-528.34C1723.47,-529.05 1732.94,-529.26 1741.85,-528.98"/>
<polygon fill="#34262b" stroke="#34262b" stroke-width="0.75" points="1741.75,-532.49 1751.53,-528.42 1741.35,-525.5 1741.75,-532.49"/>
</g>
<!-- 036 -->
<g id="node15" class="node">
<title>036</title>
<ellipse fill="#ffc19c" stroke="#34262b" cx="2011.35" cy="-621.35" rx="21.6" ry="21.6"/>
<text text-anchor="middle" x="2011.35" y="-613.62" font-family="Helvetica,sans-Serif" font-size="18.00" fill="#34262b">036</text>
<text text-anchor="middle" x="1980" y="-582.65" font-family="Helvetica,sans-Serif" font-size="18.00" fill="#34262b">27</text>
</g>
<!-- 032&#45;&gt;036 -->
<g id="edge12" class="edge">
<title>032&#45;&gt;036</title>
<path fill="none" stroke="#34262b" stroke-width="0.75" d="M1950.28,-577.78C1960.28,-585.03 1973.09,-594.32 1984.31,-602.46"/>
<polygon fill="#34262b" stroke="#34262b" stroke-width="0.75" points="1982.2,-605.25 1992.35,-608.29 1986.31,-599.59 1982.2,-605.25"/>
</g>
<!-- 37373906110135 -->
<g id="node61" class="node">
<title>37373906110135</title>
<ellipse fill="none" stroke="#34262b" cx="2011.35" cy="-578.35" rx="3.6" ry="3.6"/>
<text text-anchor="middle" x="2002.87" y="-557.65" font-family="Helvetica,sans-Serif" font-size="18.00" fill="#34262b">3</text>
</g>
<!-- 032&#45;&gt;37373906110135 -->
<g id="edge52" class="edge">
<title>032&#45;&gt;37373906110135</title>
<path fill="none" stroke="#34262b" stroke-width="0.75" d="M1953.84,-568.83C1972.78,-572.02 1999.1,-576.46 2007.59,-577.89"/>
</g>
<!-- 48955627140666 -->
<g id="node64" class="node">
<title>48955627140666</title>
<ellipse fill="none" stroke="#34262b" cx="2011.35" cy="-553.35" rx="3.6" ry="3.6"/>
</g>
<!-- 032&#45;&gt;48955627140666 -->
<g id="edge53" class="edge">
<title>032&#45;&gt;48955627140666</title>
<path fill="none" stroke="#34262b" stroke-width="0.75" d="M1953.84,-562.13C1972.78,-559.19 1999.1,-555.1 2007.59,-553.78"/>
</g>
<!-- 51796000688695 -->
<g id="node66" class="node">
<title>51796000688695</title>
<ellipse fill="none" stroke="#34262b" cx="2011.35" cy="-528.35" rx="3.6" ry="3.6"/>
</g>
<!-- 032&#45;&gt;51796000688695 -->
<g id="edge54" class="edge">
<title>032&#45;&gt;51796000688695</title>
<path fill="none" stroke="#34262b" stroke-width="0.75" d="M1952.23,-556.2C1971.52,-546.96 1999.64,-533.49 2007.95,-529.5"/>
</g>
<!-- 033 -->
<g id="node12" class="node">
<title>033</title>
<ellipse fill="#ffc19c" stroke="#34262b" cx="902.55" cy="-342.35" rx="21.6" ry="21.6"/>
<text text-anchor="middle" x="902.55" y="-334.62" font-family="Helvetica,sans-Serif" font-size="18.00" fill="#34262b">033</text>
<text text-anchor="middle" x="871.2" y="-303.65" font-family="Helvetica,sans-Serif" font-size="18.00" fill="#34262b">12</text>
</g>
<!-- 033&#45;&gt;024 -->
<g id="edge13" class="edge">
<title>033&#45;&gt;024</title>
<path fill="none" stroke="#34262b" stroke-width="0.75" d="M916.01,-359.56C926.25,-372.13 942,-388.18 960.15,-395.35 982.11,-404.03 1008.92,-401.79 1029.22,-397.78"/>
<polygon fill="#34262b" stroke="#34262b" stroke-width="0.75" points="1029.94,-401.21 1038.93,-395.61 1028.41,-394.38 1029.94,-401.21"/>
</g>
<!-- 033&#45;&gt;025 -->
<g id="edge14" class="edge">
<title>033&#45;&gt;025</title>
<path fill="none" stroke="#34262b" stroke-width="0.75" d="M923.83,-348.13C931.81,-350.4 941.15,-353.06 949.93,-355.57"/>
<polygon fill="#34262b" stroke="#34262b" stroke-width="0.75" points="948.93,-358.92 959.51,-358.3 950.85,-352.19 948.93,-358.92"/>
</g>
<!-- 138282073330312 -->
<g id="node40" class="node">
<title>138282073330312</title>
<ellipse fill="none" stroke="#34262b" cx="981.75" cy="-321.35" rx="3.6" ry="3.6"/>
</g>
<!-- 033&#45;&gt;138282073330312 -->
<g id="edge55" class="edge">
<title>033&#45;&gt;138282073330312</title>
<path fill="none" stroke="#34262b" stroke-width="0.75" d="M923.83,-336.83C942.78,-331.68 969.38,-324.44 977.96,-322.11"/>
</g>
<!-- 138996212731035 -->
<g id="node41" class="node">
<title>138996212731035</title>
<ellipse fill="none" stroke="#34262b" cx="981.75" cy="-296.35" rx="3.6" ry="3.6"/>
<text text-anchor="middle" x="973.27" y="-275.65" font-family="Helvetica,sans-Serif" font-size="18.00" fill="#34262b">2</text>
</g>
<!-- 033&#45;&gt;138996212731035 -->
<g id="edge56" class="edge">
<title>033&#45;&gt;138996212731035</title>
<path fill="none" stroke="#34262b" stroke-width="0.75" d="M921.61,-331.42C932.71,-324.72 947.23,-316 960.15,-308.35 966.56,-304.56 974.14,-300.17 978.08,-297.89"/>
</g>
<!-- 091 -->
<g id="node33" class="node">
<title>091</title>
<ellipse fill="#ffc19c" stroke="#34262b" cx="1219.35" cy="-445.35" rx="21.6" ry="21.6"/>
<text text-anchor="middle" x="1219.35" y="-437.62" font-family="Helvetica,sans-Serif" font-size="18.00" fill="#34262b">091</text>
<text text-anchor="middle" x="1188" y="-406.65" font-family="Helvetica,sans-Serif" font-size="18.00" fill="#34262b">16</text>
</g>
<!-- 034&#45;&gt;091 -->
<g id="edge15" class="edge">
<title>034&#45;&gt;091</title>
<path fill="none" stroke="#34262b" stroke-width="0.75" d="M1162.25,-445.35C1169.65,-445.35 1178.14,-445.35 1186.24,-445.35"/>
<polygon fill="#34262b" stroke="#34262b" stroke-width="0.75" points="1186.15,-448.85 1196.15,-445.35 1186.15,-441.85 1186.15,-448.85"/>
</g>
<!-- 035 -->
<g id="node14" class="node">
<title>035</title>
<ellipse fill="#ffc19c" stroke="#34262b" cx="2090.55" cy="-664.35" rx="21.6" ry="21.6"/>
<text text-anchor="middle" x="2090.55" y="-656.62" font-family="Helvetica,sans-Serif" font-size="18.00" fill="#34262b">035</text>
<text text-anchor="middle" x="2059.2" y="-625.65" font-family="Helvetica,sans-Serif" font-size="18.00" fill="#34262b">28</text>
</g>
<!-- 046 -->
<g id="node17" class="node">
<title>046</title>
<ellipse fill="#ffc19c" stroke="#34262b" cx="2169.75" cy="-664.35" rx="21.6" ry="21.6"/>
<text text-anchor="middle" x="2169.75" y="-656.62" font-family="Helvetica,sans-Serif" font-size="18.00" fill="#34262b">046</text>
<text text-anchor="middle" x="2138.4" y="-625.65" font-family="Helvetica,sans-Serif" font-size="18.00" fill="#34262b">29</text>
</g>
<!-- 035&#45;&gt;046 -->
<g id="edge16" class="edge">
<title>035&#45;&gt;046</title>
<path fill="none" stroke="#34262b" stroke-width="0.75" d="M2112.65,-664.35C2120.05,-664.35 2128.54,-664.35 2136.64,-664.35"/>
<polygon fill="#34262b" stroke="#34262b" stroke-width="0.75" points="2136.55,-667.85 2146.55,-664.35 2136.55,-660.85 2136.55,-667.85"/>
</g>
<!-- 036&#45;&gt;035 -->
<g id="edge17" class="edge">
<title>036&#45;&gt;035</title>
<path fill="none" stroke="#34262b" stroke-width="0.75" d="M2030.65,-631.54C2039.9,-636.7 2051.34,-643.07 2061.67,-648.82"/>
<polygon fill="#34262b" stroke="#34262b" stroke-width="0.75" points="2059.69,-651.72 2070.13,-653.53 2063.09,-645.61 2059.69,-651.72"/>
</g>
<!-- 128655226577199 -->
<g id="node37" class="node">
<title>128655226577199</title>
<ellipse fill="none" stroke="#34262b" cx="2090.55" cy="-621.35" rx="3.6" ry="3.6"/>
</g>
<!-- 036&#45;&gt;128655226577199 -->
<g id="edge57" class="edge">
<title>036&#45;&gt;128655226577199</title>
<path fill="none" stroke="#34262b" stroke-width="0.75" d="M2033.45,-621.35C2052.37,-621.35 2078.43,-621.35 2086.83,-621.35"/>
</g>
<!-- 136221754469805 -->
<g id="node38" class="node">
<title>136221754469805</title>
<ellipse fill="none" stroke="#34262b" cx="2090.55" cy="-596.35" rx="3.6" ry="3.6"/>
<text text-anchor="middle" x="2082.07" y="-575.65" font-family="Helvetica,sans-Serif" font-size="18.00" fill="#34262b">2</text>
</g>
<!-- 036&#45;&gt;136221754469805 -->
<g id="edge58" class="edge">
<title>036&#45;&gt;136221754469805</title>
<path fill="none" stroke="#34262b" stroke-width="0.75" d="M2032.23,-614.91C2051.17,-608.78 2078.05,-600.07 2086.73,-597.26"/>
</g>
<!-- 045&#45;&gt;012 -->
<g id="edge19" class="edge">
<title>045&#45;&gt;012</title>
<path fill="none" stroke="#34262b" stroke-width="0.75" d="M1793.05,-532.54C1802.3,-537.7 1813.74,-544.07 1824.07,-549.82"/>
<polygon fill="#34262b" stroke="#34262b" stroke-width="0.75" points="1822.09,-552.72 1832.53,-554.53 1825.49,-546.61 1822.09,-552.72"/>
</g>
<!-- 218198158603602 -->
<g id="node51" class="node">
<title>218198158603602</title>
<ellipse fill="none" stroke="#34262b" cx="1852.95" cy="-522.35" rx="3.6" ry="3.6"/>
<text text-anchor="middle" x="1844.47" y="-501.65" font-family="Helvetica,sans-Serif" font-size="18.00" fill="#34262b">2</text>
</g>
<!-- 045&#45;&gt;218198158603602 -->
<g id="edge61" class="edge">
<title>045&#45;&gt;218198158603602</title>
<path fill="none" stroke="#34262b" stroke-width="0.75" d="M1795.85,-522.35C1814.77,-522.35 1840.83,-522.35 1849.23,-522.35"/>
</g>
<!-- 238466580765852 -->
<g id="node52" class="node">
<title>238466580765852</title>
<ellipse fill="none" stroke="#34262b" cx="1852.95" cy="-497.35" rx="3.6" ry="3.6"/>
</g>
<!-- 045&#45;&gt;238466580765852 -->
<g id="edge62" class="edge">
<title>045&#45;&gt;238466580765852</title>
<path fill="none" stroke="#34262b" stroke-width="0.75" d="M1794.63,-515.91C1813.57,-509.78 1840.45,-501.07 1849.13,-498.26"/>
</g>
<!-- 071 -->
<g id="node24" class="node">
<title>071</title>
<ellipse fill="#ffc19c" stroke="#34262b" cx="2248.95" cy="-686.35" rx="21.6" ry="21.6"/>
<text text-anchor="middle" x="2248.95" y="-678.62" font-family="Helvetica,sans-Serif" font-size="18.00" fill="#34262b">071</text>
<text text-anchor="middle" x="2217.6" y="-647.65" font-family="Helvetica,sans-Serif" font-size="18.00" fill="#34262b">30</text>
</g>
<!-- 046&#45;&gt;071 -->
<g id="edge20" class="edge">
<title>046&#45;&gt;071</title>
<path fill="none" stroke="#34262b" stroke-width="0.75" d="M2191.03,-670.13C2199.01,-672.4 2208.35,-675.06 2217.13,-677.57"/>
<polygon fill="#34262b" stroke="#34262b" stroke-width="0.75" points="2216.13,-680.92 2226.71,-680.3 2218.05,-674.19 2216.13,-680.92"/>
</g>
<!-- 193594500728372 -->
<g id="node50" class="node">
<title>193594500728372</title>
<ellipse fill="none" stroke="#34262b" cx="2248.95" cy="-643.35" rx="3.6" ry="3.6"/>
<text text-anchor="middle" x="2240.47" y="-622.65" font-family="Helvetica,sans-Serif" font-size="18.00" fill="#34262b">1</text>
</g>
<!-- 046&#45;&gt;193594500728372 -->
<g id="edge63" class="edge">
<title>046&#45;&gt;193594500728372</title>
<path fill="none" stroke="#34262b" stroke-width="0.75" d="M2191.03,-658.83C2209.98,-653.68 2236.58,-646.44 2245.16,-644.11"/>
</g>
<!-- 048&#45;&gt;023 -->
<g id="edge21" class="edge">
<title>048&#45;&gt;023</title>
<path fill="none" stroke="#34262b" stroke-width="0.75" d="M211.85,-133.35C219.25,-133.35 227.74,-133.35 235.84,-133.35"/>
<polygon fill="#34262b" stroke="#34262b" stroke-width="0.75" points="235.75,-136.85 245.75,-133.35 235.75,-129.85 235.75,-136.85"/>
</g>
<!-- 051&#45;&gt;049 -->
<g id="edge22" class="edge">
<title>051&#45;&gt;049</title>
<path fill="none" stroke="#34262b" stroke-width="0.75" d="M2504.44,-698.54C2515.22,-705.56 2529.82,-713.68 2544.15,-717.35 2576.6,-725.65 2613.9,-713.3 2638.96,-701.81"/>
<polygon fill="#34262b" stroke="#34262b" stroke-width="0.75" points="2640.41,-705 2647.89,-697.5 2637.36,-698.7 2640.41,-705"/>
</g>
<!-- 052 -->
<g id="node20" class="node">
<title>052</title>
<ellipse fill="#ffc19c" stroke="#34262b" cx="2565.75" cy="-686.35" rx="21.6" ry="21.6"/>
<text text-anchor="middle" x="2565.75" y="-678.62" font-family="Helvetica,sans-Serif" font-size="18.00" fill="#34262b">052</text>
<text text-anchor="middle" x="2534.4" y="-647.65" font-family="Helvetica,sans-Serif" font-size="18.00" fill="#34262b">34</text>
</g>
<!-- 051&#45;&gt;052 -->
<g id="edge23" class="edge">
<title>051&#45;&gt;052</title>
<path fill="none" stroke="#34262b" stroke-width="0.75" d="M2508.65,-686.35C2516.05,-686.35 2524.54,-686.35 2532.64,-686.35"/>
<polygon fill="#34262b" stroke="#34262b" stroke-width="0.75" points="2532.55,-689.85 2542.55,-686.35 2532.55,-682.85 2532.55,-689.85"/>
</g>
<!-- 053 -->
<g id="node21" class="node">
<title>053</title>
<ellipse fill="#ffc19c" stroke="#34262b" cx="2565.75" cy="-625.35" rx="21.6" ry="21.6"/>
<text text-anchor="middle" x="2565.75" y="-617.62" font-family="Helvetica,sans-Serif" font-size="18.00" fill="#34262b">053</text>
<text text-anchor="middle" x="2534.4" y="-586.65" font-family="Helvetica,sans-Serif" font-size="18.00" fill="#34262b">35</text>
</g>
<!-- 051&#45;&gt;053 -->
<g id="edge24" class="edge">
<title>051&#45;&gt;053</title>
<path fill="none" stroke="#34262b" stroke-width="0.75" d="M2503.92,-673.41C2514.29,-665.22 2527.91,-654.46 2539.63,-645.2"/>
<polygon fill="#34262b" stroke="#34262b" stroke-width="0.75" points="2541.57,-648.13 2547.24,-639.18 2537.23,-642.64 2541.57,-648.13"/>
</g>
<!-- 052&#45;&gt;049 -->
<g id="edge25" class="edge">
<title>052&#45;&gt;049</title>
<path fill="none" stroke="#34262b" stroke-width="0.75" d="M2587.68,-686.35C2598.79,-686.35 2612.84,-686.35 2626.07,-686.35"/>
<polygon fill="#34262b" stroke="#34262b" stroke-width="0.75" points="2625.76,-689.85 2635.76,-686.35 2625.76,-682.85 2625.76,-689.85"/>
</g>
<!-- 053&#45;&gt;049 -->
<g id="edge26" class="edge">
<title>053&#45;&gt;049</title>
<path fill="none" stroke="#34262b" stroke-width="0.75" d="M2584.81,-636.26C2600.61,-645.8 2623.76,-659.78 2641.6,-670.54"/>
<polygon fill="#34262b" stroke="#34262b" stroke-width="0.75" points="2639.54,-673.39 2649.9,-675.56 2643.15,-667.4 2639.54,-673.39"/>
</g>
<!-- 069 -->
<g id="node23" class="node">
<title>069</title>
<ellipse fill="#ffc19c" stroke="#34262b" cx="427.35" cy="-189.35" rx="21.6" ry="21.6"/>
<text text-anchor="middle" x="427.35" y="-181.63" font-family="Helvetica,sans-Serif" font-size="18.00" fill="#34262b">069</text>
<text text-anchor="middle" x="400.87" y="-150.65" font-family="Helvetica,sans-Serif" font-size="18.00" fill="#34262b">6</text>
</g>
<!-- 060&#45;&gt;069 -->
<g id="edge27" class="edge">
<title>060&#45;&gt;069</title>
<path fill="none" stroke="#34262b" stroke-width="0.75" d="M370.25,-189.35C377.65,-189.35 386.14,-189.35 394.24,-189.35"/>
<polygon fill="#34262b" stroke="#34262b" stroke-width="0.75" points="394.15,-192.85 404.15,-189.35 394.15,-185.85 394.15,-192.85"/>
</g>
<!-- 090 -->
<g id="node32" class="node">
<title>090</title>
<ellipse fill="#ffc19c" stroke="#34262b" cx="506.55" cy="-245.35" rx="21.6" ry="21.6"/>
<text text-anchor="middle" x="506.55" y="-237.63" font-family="Helvetica,sans-Serif" font-size="18.00" fill="#34262b">090</text>
<text text-anchor="middle" x="480.07" y="-206.65" font-family="Helvetica,sans-Serif" font-size="18.00" fill="#34262b">7</text>
</g>
<!-- 069&#45;&gt;090 -->
<g id="edge28" class="edge">
<title>069&#45;&gt;090</title>
<path fill="none" stroke="#34262b" stroke-width="0.75" d="M445.48,-201.78C455.48,-209.03 468.29,-218.32 479.51,-226.46"/>
<polygon fill="#34262b" stroke="#34262b" stroke-width="0.75" points="477.4,-229.25 487.55,-232.29 481.51,-223.59 477.4,-229.25"/>
</g>
<!-- 71218742664725 -->
<g id="node67" class="node">
<title>71218742664725</title>
<ellipse fill="none" stroke="#34262b" cx="506.55" cy="-202.35" rx="3.6" ry="3.6"/>
</g>
<!-- 069&#45;&gt;71218742664725 -->
<g id="edge64" class="edge">
<title>069&#45;&gt;71218742664725</title>
<path fill="none" stroke="#34262b" stroke-width="0.75" d="M449.04,-192.83C467.98,-196.02 494.3,-200.46 502.79,-201.89"/>
</g>
<!-- 72792619708639 -->
<g id="node68" class="node">
<title>72792619708639</title>
<ellipse fill="none" stroke="#34262b" cx="506.55" cy="-177.35" rx="3.6" ry="3.6"/>
</g>
<!-- 069&#45;&gt;72792619708639 -->
<g id="edge65" class="edge">
<title>069&#45;&gt;72792619708639</title>
<path fill="none" stroke="#34262b" stroke-width="0.75" d="M449.04,-186.13C467.98,-183.19 494.3,-179.1 502.79,-177.78"/>
</g>
<!-- 75420150557596 -->
<g id="node69" class="node">
<title>75420150557596</title>
<ellipse fill="none" stroke="#34262b" cx="506.55" cy="-152.35" rx="3.6" ry="3.6"/>
<text text-anchor="middle" x="498.07" y="-131.65" font-family="Helvetica,sans-Serif" font-size="18.00" fill="#34262b">3</text>
</g>
<!-- 069&#45;&gt;75420150557596 -->
<g id="edge66" class="edge">
<title>069&#45;&gt;75420150557596</title>
<path fill="none" stroke="#34262b" stroke-width="0.75" d="M447.43,-180.2C466.72,-170.96 494.84,-157.49 503.15,-153.5"/>
</g>
<!-- 071&#45;&gt;018 -->
<g id="edge29" class="edge">
<title>071&#45;&gt;018</title>
<path fill="none" stroke="#34262b" stroke-width="0.75" d="M2271.05,-686.35C2278.45,-686.35 2286.94,-686.35 2295.04,-686.35"/>
<polygon fill="#34262b" stroke="#34262b" stroke-width="0.75" points="2294.95,-689.85 2304.95,-686.35 2294.95,-682.85 2294.95,-689.85"/>
</g>
<!-- 073 -->
<g id="node25" class="node">
<title>073</title>
<ellipse fill="#ffc19c" stroke="#34262b" cx="744.15" cy="-342.35" rx="21.6" ry="21.6"/>
<text text-anchor="middle" x="744.15" y="-334.62" font-family="Helvetica,sans-Serif" font-size="18.00" fill="#34262b">073</text>
<text text-anchor="middle" x="712.8" y="-303.65" font-family="Helvetica,sans-Serif" font-size="18.00" fill="#34262b">10</text>
</g>
<!-- 093 -->
<g id="node34" class="node">
<title>093</title>
<ellipse fill="#ffc19c" stroke="#34262b" cx="823.35" cy="-342.35" rx="21.6" ry="21.6"/>
<text text-anchor="middle" x="823.35" y="-334.62" font-family="Helvetica,sans-Serif" font-size="18.00" fill="#34262b">093</text>
<text text-anchor="middle" x="792.75" y="-303.65" font-family="Helvetica,sans-Serif" font-size="18.00" fill="#34262b">11</text>
</g>
<!-- 073&#45;&gt;093 -->
<g id="edge30" class="edge">
<title>073&#45;&gt;093</title>
<path fill="none" stroke="#34262b" stroke-width="0.75" d="M766.25,-342.35C773.65,-342.35 782.14,-342.35 790.24,-342.35"/>
<polygon fill="#34262b" stroke="#34262b" stroke-width="0.75" points="790.15,-345.85 800.15,-342.35 790.15,-338.85 790.15,-345.85"/>
</g>
<!-- 075 -->
<g id="node26" class="node">
<title>075</title>
<ellipse fill="#ffc19c" stroke="#34262b" cx="1298.55" cy="-506.35" rx="21.6" ry="21.6"/>
<text text-anchor="middle" x="1298.55" y="-498.62" font-family="Helvetica,sans-Serif" font-size="18.00" fill="#34262b">075</text>
<text text-anchor="middle" x="1267.2" y="-467.65" font-family="Helvetica,sans-Serif" font-size="18.00" fill="#34262b">17</text>
</g>
<!-- 080 -->
<g id="node30" class="node">
<title>080</title>
<ellipse fill="#ffc19c" stroke="#34262b" cx="1377.75" cy="-445.35" rx="21.6" ry="21.6"/>
<text text-anchor="middle" x="1377.75" y="-437.62" font-family="Helvetica,sans-Serif" font-size="18.00" fill="#34262b">080</text>
<text text-anchor="middle" x="1346.4" y="-406.65" font-family="Helvetica,sans-Serif" font-size="18.00" fill="#34262b">19</text>
</g>
<!-- 075&#45;&gt;080 -->
<g id="edge31" class="edge">
<title>075&#45;&gt;080</title>
<path fill="none" stroke="#34262b" stroke-width="0.75" d="M1315.92,-493.41C1326.29,-485.22 1339.91,-474.46 1351.63,-465.2"/>
<polygon fill="#34262b" stroke="#34262b" stroke-width="0.75" points="1353.57,-468.13 1359.24,-459.18 1349.23,-462.64 1353.57,-468.13"/>
</g>
<!-- 076 -->
<g id="node27" class="node">
<title>076</title>
<ellipse fill="#ffc19c" stroke="#34262b" cx="1298.55" cy="-445.35" rx="21.6" ry="21.6"/>
<text text-anchor="middle" x="1298.55" y="-437.62" font-family="Helvetica,sans-Serif" font-size="18.00" fill="#34262b">076</text>
<text text-anchor="middle" x="1267.2" y="-406.65" font-family="Helvetica,sans-Serif" font-size="18.00" fill="#34262b">18</text>
</g>
<!-- 076&#45;&gt;080 -->
<g id="edge32" class="edge">
<title>076&#45;&gt;080</title>
<path fill="none" stroke="#34262b" stroke-width="0.75" d="M1320.65,-445.35C1328.05,-445.35 1336.54,-445.35 1344.64,-445.35"/>
<polygon fill="#34262b" stroke="#34262b" stroke-width="0.75" points="1344.55,-448.85 1354.55,-445.35 1344.55,-441.85 1344.55,-448.85"/>
</g>
<!-- 078 -->
<g id="node28" class="node">
<title>078</title>
<ellipse fill="#ffc19c" stroke="#34262b" cx="1456.95" cy="-467.35" rx="21.6" ry="21.6"/>
<text text-anchor="middle" x="1456.95" y="-459.62" font-family="Helvetica,sans-Serif" font-size="18.00" fill="#34262b">078</text>
<text text-anchor="middle" x="1425.6" y="-428.65" font-family="Helvetica,sans-Serif" font-size="18.00" fill="#34262b">20</text>
</g>
<!-- 078&#45;&gt;010 -->
<g id="edge33" class="edge">
<title>078&#45;&gt;010</title>
<path fill="none" stroke="#34262b" stroke-width="0.75" d="M1475.08,-479.56C1485.08,-486.68 1497.89,-495.8 1509.11,-503.8"/>
<polygon fill="#34262b" stroke="#34262b" stroke-width="0.75" points="1506.96,-506.57 1517.14,-509.52 1511.03,-500.87 1506.96,-506.57"/>
</g>
<!-- 34285849059910 -->
<g id="node57" class="node">
<title>34285849059910</title>
<ellipse fill="none" stroke="#34262b" cx="1536.15" cy="-479.35" rx="3.6" ry="3.6"/>
<text text-anchor="middle" x="1527.67" y="-458.65" font-family="Helvetica,sans-Serif" font-size="18.00" fill="#34262b">3</text>
</g>
<!-- 078&#45;&gt;34285849059910 -->
<g id="edge67" class="edge">
<title>078&#45;&gt;34285849059910</title>
<path fill="none" stroke="#34262b" stroke-width="0.75" d="M1478.64,-470.57C1497.58,-473.51 1523.9,-477.6 1532.39,-478.92"/>
</g>
<!-- 34285849060722 -->
<g id="node58" class="node">
<title>34285849060722</title>
<ellipse fill="none" stroke="#34262b" cx="1536.15" cy="-454.35" rx="3.6" ry="3.6"/>
</g>
<!-- 078&#45;&gt;34285849060722 -->
<g id="edge68" class="edge">
<title>078&#45;&gt;34285849060722</title>
<path fill="none" stroke="#34262b" stroke-width="0.75" d="M1478.64,-463.87C1497.58,-460.68 1523.9,-456.24 1532.39,-454.81"/>
</g>
<!-- 34285849061160 -->
<g id="node59" class="node">
<title>34285849061160</title>
<ellipse fill="none" stroke="#34262b" cx="1536.15" cy="-429.35" rx="3.6" ry="3.6"/>
</g>
<!-- 078&#45;&gt;34285849061160 -->
<g id="edge69" class="edge">
<title>078&#45;&gt;34285849061160</title>
<path fill="none" stroke="#34262b" stroke-width="0.75" d="M1476.64,-458.15C1495.92,-448.66 1524.32,-434.68 1532.72,-430.54"/>
</g>
<!-- 079 -->
<g id="node29" class="node">
<title>079</title>
<ellipse fill="#ffc19c" stroke="#34262b" cx="585.75" cy="-300.35" rx="21.6" ry="21.6"/>
<text text-anchor="middle" x="585.75" y="-292.62" font-family="Helvetica,sans-Serif" font-size="18.00" fill="#34262b">079</text>
<text text-anchor="middle" x="559.27" y="-261.65" font-family="Helvetica,sans-Serif" font-size="18.00" fill="#34262b">8</text>
</g>
<!-- 099 -->
<g id="node35" class="node">
<title>099</title>
<ellipse fill="#ffc19c" stroke="#34262b" cx="664.95" cy="-321.35" rx="21.6" ry="21.6"/>
<text text-anchor="middle" x="664.95" y="-313.62" font-family="Helvetica,sans-Serif" font-size="18.00" fill="#34262b">099</text>
<text text-anchor="middle" x="638.47" y="-282.65" font-family="Helvetica,sans-Serif" font-size="18.00" fill="#34262b">9</text>
</g>
<!-- 079&#45;&gt;099 -->
<g id="edge34" class="edge">
<title>079&#45;&gt;099</title>
<path fill="none" stroke="#34262b" stroke-width="0.75" d="M607.03,-305.87C615.01,-308.04 624.35,-310.58 633.13,-312.97"/>
<polygon fill="#34262b" stroke="#34262b" stroke-width="0.75" points="632.14,-316.32 642.71,-315.57 633.98,-309.57 632.14,-316.32"/>
</g>
<!-- 44650742398740 -->
<g id="node62" class="node">
<title>44650742398740</title>
<ellipse fill="none" stroke="#34262b" cx="664.95" cy="-278.35" rx="3.6" ry="3.6"/>
<text text-anchor="middle" x="656.47" y="-257.65" font-family="Helvetica,sans-Serif" font-size="18.00" fill="#34262b">1</text>
</g>
<!-- 079&#45;&gt;44650742398740 -->
<g id="edge70" class="edge">
<title>079&#45;&gt;44650742398740</title>
<path fill="none" stroke="#34262b" stroke-width="0.75" d="M607.03,-294.57C625.98,-289.17 652.58,-281.59 661.16,-279.14"/>
</g>
<!-- 080&#45;&gt;078 -->
<g id="edge35" class="edge">
<title>080&#45;&gt;078</title>
<path fill="none" stroke="#34262b" stroke-width="0.75" d="M1399.03,-451.13C1407.01,-453.4 1416.35,-456.06 1425.13,-458.57"/>
<polygon fill="#34262b" stroke="#34262b" stroke-width="0.75" points="1424.13,-461.92 1434.71,-461.3 1426.05,-455.19 1424.13,-461.92"/>
</g>
<!-- 28359990687086 -->
<g id="node56" class="node">
<title>28359990687086</title>
<ellipse fill="none" stroke="#34262b" cx="1456.95" cy="-424.35" rx="3.6" ry="3.6"/>
<text text-anchor="middle" x="1448.47" y="-403.65" font-family="Helvetica,sans-Serif" font-size="18.00" fill="#34262b">1</text>
</g>
<!-- 080&#45;&gt;28359990687086 -->
<g id="edge71" class="edge">
<title>080&#45;&gt;28359990687086</title>
<path fill="none" stroke="#34262b" stroke-width="0.75" d="M1399.03,-439.83C1417.98,-434.68 1444.58,-427.44 1453.16,-425.11"/>
</g>
<!-- 086&#45;&gt;029 -->
<g id="edge36" class="edge">
<title>086&#45;&gt;029</title>
<path fill="none" stroke="#34262b" stroke-width="0.75" d="M1637.45,-522.35C1644.85,-522.35 1653.34,-522.35 1661.44,-522.35"/>
<polygon fill="#34262b" stroke="#34262b" stroke-width="0.75" points="1661.35,-525.85 1671.35,-522.35 1661.35,-518.85 1661.35,-525.85"/>
</g>
<!-- 090&#45;&gt;079 -->
<g id="edge37" class="edge">
<title>090&#45;&gt;079</title>
<path fill="none" stroke="#34262b" stroke-width="0.75" d="M524.68,-257.56C534.68,-264.68 547.49,-273.8 558.71,-281.8"/>
<polygon fill="#34262b" stroke="#34262b" stroke-width="0.75" points="556.56,-284.57 566.74,-287.52 560.63,-278.87 556.56,-284.57"/>
</g>
<!-- 18186036980160 -->
<g id="node48" class="node">
<title>18186036980160</title>
<ellipse fill="none" stroke="#34262b" cx="585.75" cy="-257.35" rx="3.6" ry="3.6"/>
</g>
<!-- 090&#45;&gt;18186036980160 -->
<g id="edge72" class="edge">
<title>090&#45;&gt;18186036980160</title>
<path fill="none" stroke="#34262b" stroke-width="0.75" d="M528.24,-248.57C547.18,-251.51 573.5,-255.6 581.99,-256.92"/>
</g>
<!-- 18786734952407 -->
<g id="node49" class="node">
<title>18786734952407</title>
<ellipse fill="none" stroke="#34262b" cx="585.75" cy="-232.35" rx="3.6" ry="3.6"/>
</g>
<!-- 090&#45;&gt;18786734952407 -->
<g id="edge73" class="edge">
<title>090&#45;&gt;18786734952407</title>
<path fill="none" stroke="#34262b" stroke-width="0.75" d="M528.24,-241.87C547.18,-238.68 573.5,-234.24 581.99,-232.81"/>
</g>
<!-- 27493202200923 -->
<g id="node54" class="node">
<title>27493202200923</title>
<ellipse fill="none" stroke="#34262b" cx="585.75" cy="-207.35" rx="3.6" ry="3.6"/>
</g>
<!-- 090&#45;&gt;27493202200923 -->
<g id="edge74" class="edge">
<title>090&#45;&gt;27493202200923</title>
<path fill="none" stroke="#34262b" stroke-width="0.75" d="M526.24,-236.15C545.52,-226.66 573.92,-212.68 582.32,-208.54"/>
</g>
<!-- 091&#45;&gt;075 -->
<g id="edge38" class="edge">
<title>091&#45;&gt;075</title>
<path fill="none" stroke="#34262b" stroke-width="0.75" d="M1236.72,-458.29C1247.09,-466.48 1260.71,-477.24 1272.43,-486.5"/>
<polygon fill="#34262b" stroke="#34262b" stroke-width="0.75" points="1270.03,-489.06 1280.04,-492.52 1274.37,-483.57 1270.03,-489.06"/>
</g>
<!-- 091&#45;&gt;076 -->
<g id="edge39" class="edge">
<title>091&#45;&gt;076</title>
<path fill="none" stroke="#34262b" stroke-width="0.75" d="M1241.45,-445.35C1248.85,-445.35 1257.34,-445.35 1265.44,-445.35"/>
<polygon fill="#34262b" stroke="#34262b" stroke-width="0.75" points="1265.35,-448.85 1275.35,-445.35 1265.35,-441.85 1265.35,-448.85"/>
</g>
<!-- 091&#45;&gt;080 -->
<g id="edge40" class="edge">
<title>091&#45;&gt;080</title>
<path fill="none" stroke="#34262b" stroke-width="0.75" d="M1237.24,-433.16C1248.02,-426.14 1262.62,-418.02 1276.95,-414.35 1295.55,-409.59 1301.55,-409.59 1320.15,-414.35 1330.67,-417.04 1341.34,-422.14 1350.54,-427.44"/>
<polygon fill="#34262b" stroke="#34262b" stroke-width="0.75" points="1348.54,-430.32 1358.89,-432.56 1352.2,-424.35 1348.54,-430.32"/>
</g>
<!-- 093&#45;&gt;033 -->
<g id="edge41" class="edge">
<title>093&#45;&gt;033</title>
<path fill="none" stroke="#34262b" stroke-width="0.75" d="M845.45,-342.35C852.85,-342.35 861.34,-342.35 869.44,-342.35"/>
<polygon fill="#34262b" stroke="#34262b" stroke-width="0.75" points="869.35,-345.85 879.35,-342.35 869.35,-338.85 869.35,-345.85"/>
</g>
<!-- 099&#45;&gt;073 -->
<g id="edge42" class="edge">
<title>099&#45;&gt;073</title>
<path fill="none" stroke="#34262b" stroke-width="0.75" d="M686.23,-326.87C694.21,-329.04 703.55,-331.58 712.33,-333.97"/>
<polygon fill="#34262b" stroke="#34262b" stroke-width="0.75" points="711.34,-337.32 721.91,-336.57 713.18,-330.57 711.34,-337.32"/>
</g>
<!-- 14915938923952 -->
<g id="node43" class="node">
<title>14915938923952</title>
<ellipse fill="none" stroke="#34262b" cx="744.15" cy="-299.35" rx="3.6" ry="3.6"/>
<text text-anchor="middle" x="735.67" y="-278.65" font-family="Helvetica,sans-Serif" font-size="18.00" fill="#34262b">1</text>
</g>
<!-- 099&#45;&gt;14915938923952 -->
<g id="edge75" class="edge">
<title>099&#45;&gt;14915938923952</title>
<path fill="none" stroke="#34262b" stroke-width="0.75" d="M686.23,-315.57C705.18,-310.17 731.78,-302.59 740.36,-300.14"/>
</g>
<!-- 042 -->
<g id="node36" class="node">
<title>042</title>
<ellipse fill="#dbde92" stroke="#34262b" cx="31.35" cy="-47.35" rx="21.6" ry="21.6"/>
<text text-anchor="middle" x="31.35" y="-39.63" font-family="Helvetica,sans-Serif" font-size="18.00" fill="#34262b">042</text>
<text text-anchor="middle" x="4.88" y="-8.65" font-family="Helvetica,sans-Serif" font-size="18.00" fill="#34262b">1</text>
</g>
<!-- 042&#45;&gt;002 -->
<g id="edge18" class="edge">
<title>042&#45;&gt;002</title>
<path fill="none" stroke="#34262b" stroke-width="0.75" d="M50.65,-57.54C59.9,-62.7 71.34,-69.07 81.67,-74.82"/>
<polygon fill="#34262b" stroke="#34262b" stroke-width="0.75" points="79.69,-77.72 90.13,-79.53 83.09,-71.61 79.69,-77.72"/>
</g>
<!-- 270524817733798 -->
<g id="node53" class="node">
<title>270524817733798</title>
<ellipse fill="none" stroke="#34262b" cx="110.55" cy="-47.35" rx="3.6" ry="3.6"/>
</g>
<!-- 042&#45;&gt;270524817733798 -->
<g id="edge59" class="edge">
<title>042&#45;&gt;270524817733798</title>
<path fill="none" stroke="#34262b" stroke-width="0.75" d="M53.45,-47.35C72.37,-47.35 98.43,-47.35 106.83,-47.35"/>
</g>
<!-- 278716494646762 -->
<g id="node55" class="node">
<title>278716494646762</title>
<ellipse fill="none" stroke="#34262b" cx="110.55" cy="-22.35" rx="3.6" ry="3.6"/>
<text text-anchor="middle" x="102.07" y="-1.65" font-family="Helvetica,sans-Serif" font-size="18.00" fill="#34262b">2</text>
</g>
<!-- 042&#45;&gt;278716494646762 -->
<g id="edge60" class="edge">
<title>042&#45;&gt;278716494646762</title>
<path fill="none" stroke="#34262b" stroke-width="0.75" d="M52.23,-40.91C71.17,-34.78 98.05,-26.07 106.73,-23.26"/>
</g>
</g>
</svg>
