<?xml version="1.0" encoding="UTF-8" standalone="no"?>
<!DOCTYPE svg PUBLIC "-//W3C//DTD SVG 1.1//EN"
 "http://www.w3.org/Graphics/SVG/1.1/DTD/svg11.dtd">
<!-- Generated by graphviz version 9.0.0 (20230911.1827)
 -->
<!-- Title: G Pages: 1 -->
<svg width="2633pt" height="1015pt"
 viewBox="0.00 0.00 2633.25 1014.80" xmlns="http://www.w3.org/2000/svg" xmlns:xlink="http://www.w3.org/1999/xlink">
<g id="graph0" class="graph" transform="scale(1 1) rotate(0) translate(4 1010.8)">
<title>G</title>
<polygon fill="#fdfeff" stroke="none" points="-4,4 -4,-1010.8 2629.25,-1010.8 2629.25,4 -4,4"/>
<!-- 049 -->
<g id="node1" class="node">
<title>049</title>
<polygon fill="#fee548" stroke="#34262b" points="2625.25,-973.8 2590.55,-973.8 2579.82,-1006.8 2569.1,-973.8 2534.4,-973.8 2562.47,-953.4 2551.75,-920.4 2579.82,-940.8 2607.9,-920.4 2597.17,-953.4 2625.25,-973.8"/>
<text text-anchor="middle" x="2579.82" y="-955.88" font-family="Helvetica,sans-Serif" font-size="18.00" fill="#34262b">049</text>
</g>
<!-- 002 -->
<g id="node2" class="node">
<title>002</title>
<ellipse fill="#ffc19c" stroke="#34262b" cx="100.8" cy="-112.6" rx="21.6" ry="21.6"/>
<text text-anchor="middle" x="100.8" y="-104.88" font-family="Helvetica,sans-Serif" font-size="18.00" fill="#34262b">002</text>
</g>
<!-- 048 -->
<g id="node3" class="node">
<title>048</title>
<ellipse fill="#ffc19c" stroke="#34262b" cx="180" cy="-112.6" rx="21.6" ry="21.6"/>
<text text-anchor="middle" x="180" y="-104.88" font-family="Helvetica,sans-Serif" font-size="18.00" fill="#34262b">048</text>
</g>
<!-- 002&#45;&gt;048 -->
<g id="edge2" class="edge">
<title>002&#45;&gt;048</title>
<path fill="none" stroke="#34262b" stroke-width="0.75" d="M122.9,-112.6C130.3,-112.6 138.79,-112.6 146.89,-112.6"/>
<polygon fill="#34262b" stroke="#34262b" stroke-width="0.75" points="146.8,-116.1 156.8,-112.6 146.8,-109.1 146.8,-116.1"/>
</g>
<!-- 023 -->
<g id="node4" class="node">
<title>023</title>
<ellipse fill="#ffc19c" stroke="#34262b" cx="259.2" cy="-112.6" rx="21.6" ry="21.6"/>
<text text-anchor="middle" x="259.2" y="-104.88" font-family="Helvetica,sans-Serif" font-size="18.00" fill="#34262b">023</text>
</g>
<!-- 048&#45;&gt;023 -->
<g id="edge3" class="edge">
<title>048&#45;&gt;023</title>
<path fill="none" stroke="#34262b" stroke-width="0.75" d="M202.1,-112.6C209.5,-112.6 217.99,-112.6 226.09,-112.6"/>
<polygon fill="#34262b" stroke="#34262b" stroke-width="0.75" points="226,-116.1 236,-112.6 226,-109.1 226,-116.1"/>
</g>
<!-- 060 -->
<g id="node5" class="node">
<title>060</title>
<ellipse fill="#ffc19c" stroke="#34262b" cx="338.4" cy="-204.6" rx="21.6" ry="21.6"/>
<text text-anchor="middle" x="338.4" y="-196.88" font-family="Helvetica,sans-Serif" font-size="18.00" fill="#34262b">060</text>
</g>
<!-- 023&#45;&gt;060 -->
<g id="edge4" class="edge">
<title>023&#45;&gt;060</title>
<path fill="none" stroke="#34262b" stroke-width="0.75" d="M273.65,-128.63C285.53,-142.79 303.05,-163.66 316.71,-179.95"/>
<polygon fill="#34262b" stroke="#34262b" stroke-width="0.75" points="314.01,-182.17 323.12,-187.58 319.37,-177.67 314.01,-182.17"/>
</g>
<!-- 50457013926347 -->
<g id="node36" class="node">
<title>50457013926347</title>
</g>
<!-- 023&#45;&gt;50457013926347 -->
<g id="edge42" class="edge">
<title>023&#45;&gt;50457013926347</title>
<path fill="none" stroke="#34262b" stroke-width="0.75" d="M279.68,-120.42C288.82,-124.09 299.88,-128.53 309.86,-132.54"/>
<ellipse fill="none" stroke="#34262b" stroke-width="0.75" cx="313.87" cy="-134.15" rx="4" ry="4"/>
</g>
<!-- 47890482868936 -->
<g id="node37" class="node">
<title>47890482868936</title>
</g>
<!-- 023&#45;&gt;47890482868936 -->
<g id="edge43" class="edge">
<title>023&#45;&gt;47890482868936</title>
<path fill="none" stroke="#34262b" stroke-width="0.75" d="M279.68,-105.03C288.82,-101.48 299.88,-97.18 309.86,-93.3"/>
<ellipse fill="none" stroke="#34262b" stroke-width="0.75" cx="313.85" cy="-91.75" rx="4" ry="4"/>
</g>
<!-- 37150133620128 -->
<g id="node38" class="node">
<title>37150133620128</title>
</g>
<!-- 023&#45;&gt;37150133620128 -->
<g id="edge44" class="edge">
<title>023&#45;&gt;37150133620128</title>
<path fill="none" stroke="#34262b" stroke-width="0.75" d="M274,-96.33C286.3,-81.84 304.41,-60.48 318.14,-44.31"/>
<ellipse fill="none" stroke="#34262b" stroke-width="0.75" cx="320.89" cy="-41.06" rx="4" ry="4"/>
</g>
<!-- 069 -->
<g id="node6" class="node">
<title>069</title>
<ellipse fill="#ffc19c" stroke="#34262b" cx="417.6" cy="-204.6" rx="21.6" ry="21.6"/>
<text text-anchor="middle" x="417.6" y="-196.88" font-family="Helvetica,sans-Serif" font-size="18.00" fill="#34262b">069</text>
</g>
<!-- 060&#45;&gt;069 -->
<g id="edge5" class="edge">
<title>060&#45;&gt;069</title>
<path fill="none" stroke="#34262b" stroke-width="0.75" d="M360.5,-204.6C367.9,-204.6 376.39,-204.6 384.49,-204.6"/>
<polygon fill="#34262b" stroke="#34262b" stroke-width="0.75" points="384.4,-208.1 394.4,-204.6 384.4,-201.1 384.4,-208.1"/>
</g>
<!-- 090 -->
<g id="node7" class="node">
<title>090</title>
<ellipse fill="#ffc19c" stroke="#34262b" cx="496.8" cy="-296.6" rx="21.6" ry="21.6"/>
<text text-anchor="middle" x="496.8" y="-288.88" font-family="Helvetica,sans-Serif" font-size="18.00" fill="#34262b">090</text>
</g>
<!-- 069&#45;&gt;090 -->
<g id="edge6" class="edge">
<title>069&#45;&gt;090</title>
<path fill="none" stroke="#34262b" stroke-width="0.75" d="M432.05,-220.63C443.93,-234.79 461.45,-255.66 475.11,-271.95"/>
<polygon fill="#34262b" stroke="#34262b" stroke-width="0.75" points="472.41,-274.17 481.52,-279.58 477.77,-269.67 472.41,-274.17"/>
</g>
<!-- 71218742664725 -->
<g id="node39" class="node">
<title>71218742664725</title>
</g>
<!-- 069&#45;&gt;71218742664725 -->
<g id="edge45" class="edge">
<title>069&#45;&gt;71218742664725</title>
<path fill="none" stroke="#34262b" stroke-width="0.75" d="M438.08,-212.42C447.22,-216.09 458.28,-220.53 468.26,-224.54"/>
<ellipse fill="none" stroke="#34262b" stroke-width="0.75" cx="472.27" cy="-226.15" rx="4" ry="4"/>
</g>
<!-- 75420150557596 -->
<g id="node40" class="node">
<title>75420150557596</title>
</g>
<!-- 069&#45;&gt;75420150557596 -->
<g id="edge46" class="edge">
<title>069&#45;&gt;75420150557596</title>
<path fill="none" stroke="#34262b" stroke-width="0.75" d="M438.08,-197.03C447.22,-193.48 458.28,-189.18 468.26,-185.3"/>
<ellipse fill="none" stroke="#34262b" stroke-width="0.75" cx="472.25" cy="-183.75" rx="4" ry="4"/>
</g>
<!-- 72792619708639 -->
<g id="node41" class="node">
<title>72792619708639</title>
</g>
<!-- 069&#45;&gt;72792619708639 -->
<g id="edge47" class="edge">
<title>069&#45;&gt;72792619708639</title>
<path fill="none" stroke="#34262b" stroke-width="0.75" d="M432.4,-188.33C444.7,-173.84 462.81,-152.48 476.54,-136.31"/>
<ellipse fill="none" stroke="#34262b" stroke-width="0.75" cx="479.29" cy="-133.06" rx="4" ry="4"/>
</g>
<!-- 099 -->
<g id="node8" class="node">
<title>099</title>
<ellipse fill="#ffc19c" stroke="#34262b" cx="576" cy="-326.6" rx="21.6" ry="21.6"/>
<text text-anchor="middle" x="576" y="-318.88" font-family="Helvetica,sans-Serif" font-size="18.00" fill="#34262b">099</text>
</g>
<!-- 090&#45;&gt;099 -->
<g id="edge7" class="edge">
<title>090&#45;&gt;099</title>
<path fill="none" stroke="#34262b" stroke-width="0.75" d="M517.28,-304.17C525.78,-307.47 535.94,-311.42 545.35,-315.08"/>
<polygon fill="#34262b" stroke="#34262b" stroke-width="0.75" points="543.88,-318.26 554.47,-318.62 546.41,-311.74 543.88,-318.26"/>
</g>
<!-- 29293607320320 -->
<g id="node42" class="node">
<title>29293607320320</title>
</g>
<!-- 090&#45;&gt;29293607320320 -->
<g id="edge48" class="edge">
<title>090&#45;&gt;29293607320320</title>
<path fill="none" stroke="#34262b" stroke-width="0.75" d="M517.28,-288.78C526.42,-285.11 537.48,-280.67 547.46,-276.66"/>
<ellipse fill="none" stroke="#34262b" stroke-width="0.75" cx="551.47" cy="-275.05" rx="4" ry="4"/>
</g>
<!-- 073 -->
<g id="node9" class="node">
<title>073</title>
<ellipse fill="#ffc19c" stroke="#34262b" cx="655.2" cy="-357.6" rx="21.6" ry="21.6"/>
<text text-anchor="middle" x="655.2" y="-349.88" font-family="Helvetica,sans-Serif" font-size="18.00" fill="#34262b">073</text>
</g>
<!-- 099&#45;&gt;073 -->
<g id="edge8" class="edge">
<title>099&#45;&gt;073</title>
<path fill="none" stroke="#34262b" stroke-width="0.75" d="M596.48,-334.42C604.98,-337.84 615.14,-341.92 624.55,-345.69"/>
<polygon fill="#34262b" stroke="#34262b" stroke-width="0.75" points="623.09,-348.88 633.67,-349.36 625.7,-342.38 623.09,-348.88"/>
</g>
<!-- 14915938923952 -->
<g id="node43" class="node">
<title>14915938923952</title>
</g>
<!-- 099&#45;&gt;14915938923952 -->
<g id="edge49" class="edge">
<title>099&#45;&gt;14915938923952</title>
<path fill="none" stroke="#34262b" stroke-width="0.75" d="M596.48,-319.03C605.62,-315.48 616.68,-311.18 626.66,-307.3"/>
<ellipse fill="none" stroke="#34262b" stroke-width="0.75" cx="630.65" cy="-305.75" rx="4" ry="4"/>
</g>
<!-- 093 -->
<g id="node10" class="node">
<title>093</title>
<ellipse fill="#ffc19c" stroke="#34262b" cx="734.4" cy="-357.6" rx="21.6" ry="21.6"/>
<text text-anchor="middle" x="734.4" y="-349.88" font-family="Helvetica,sans-Serif" font-size="18.00" fill="#34262b">093</text>
</g>
<!-- 073&#45;&gt;093 -->
<g id="edge9" class="edge">
<title>073&#45;&gt;093</title>
<path fill="none" stroke="#34262b" stroke-width="0.75" d="M677.3,-357.6C684.7,-357.6 693.19,-357.6 701.29,-357.6"/>
<polygon fill="#34262b" stroke="#34262b" stroke-width="0.75" points="701.2,-361.1 711.2,-357.6 701.2,-354.1 701.2,-361.1"/>
</g>
<!-- 033 -->
<g id="node11" class="node">
<title>033</title>
<ellipse fill="#ffc19c" stroke="#34262b" cx="813.6" cy="-357.6" rx="21.6" ry="21.6"/>
<text text-anchor="middle" x="813.6" y="-349.88" font-family="Helvetica,sans-Serif" font-size="18.00" fill="#34262b">033</text>
</g>
<!-- 093&#45;&gt;033 -->
<g id="edge10" class="edge">
<title>093&#45;&gt;033</title>
<path fill="none" stroke="#34262b" stroke-width="0.75" d="M756.5,-357.6C763.9,-357.6 772.39,-357.6 780.49,-357.6"/>
<polygon fill="#34262b" stroke="#34262b" stroke-width="0.75" points="780.4,-361.1 790.4,-357.6 780.4,-354.1 780.4,-361.1"/>
</g>
<!-- 024 -->
<g id="node12" class="node">
<title>024</title>
<ellipse fill="#ffc19c" stroke="#34262b" cx="972" cy="-382.6" rx="21.6" ry="21.6"/>
<text text-anchor="middle" x="972" y="-374.88" font-family="Helvetica,sans-Serif" font-size="18.00" fill="#34262b">024</text>
</g>
<!-- 033&#45;&gt;024 -->
<g id="edge11" class="edge">
<title>033&#45;&gt;024</title>
<path fill="none" stroke="#34262b" stroke-width="0.75" d="M831.49,-369.79C842.27,-376.81 856.87,-384.93 871.2,-388.6 893.69,-394.36 919.92,-392.46 939.85,-389.34"/>
<polygon fill="#34262b" stroke="#34262b" stroke-width="0.75" points="940.42,-392.79 949.66,-387.6 939.2,-385.9 940.42,-392.79"/>
</g>
<!-- 025 -->
<g id="node13" class="node">
<title>025</title>
<ellipse fill="#ffc19c" stroke="#34262b" cx="892.8" cy="-357.6" rx="21.6" ry="21.6"/>
<text text-anchor="middle" x="892.8" y="-349.88" font-family="Helvetica,sans-Serif" font-size="18.00" fill="#34262b">025</text>
</g>
<!-- 033&#45;&gt;025 -->
<g id="edge12" class="edge">
<title>033&#45;&gt;025</title>
<path fill="none" stroke="#34262b" stroke-width="0.75" d="M835.7,-357.6C843.1,-357.6 851.59,-357.6 859.69,-357.6"/>
<polygon fill="#34262b" stroke="#34262b" stroke-width="0.75" points="859.6,-361.1 869.6,-357.6 859.6,-354.1 859.6,-361.1"/>
</g>
<!-- 138996212731035 -->
<g id="node44" class="node">
<title>138996212731035</title>
</g>
<!-- 033&#45;&gt;138996212731035 -->
<g id="edge50" class="edge">
<title>033&#45;&gt;138996212731035</title>
<path fill="none" stroke="#34262b" stroke-width="0.75" d="M830.97,-344.66C841.85,-336.07 856.3,-324.65 868.39,-315.1"/>
<ellipse fill="none" stroke="#34262b" stroke-width="0.75" cx="871.75" cy="-312.44" rx="4" ry="4"/>
</g>
<!-- 034 -->
<g id="node14" class="node">
<title>034</title>
<ellipse fill="#ffc19c" stroke="#34262b" cx="1051.2" cy="-474.6" rx="21.6" ry="21.6"/>
<text text-anchor="middle" x="1051.2" y="-466.88" font-family="Helvetica,sans-Serif" font-size="18.00" fill="#34262b">034</text>
</g>
<!-- 024&#45;&gt;034 -->
<g id="edge14" class="edge">
<title>024&#45;&gt;034</title>
<path fill="none" stroke="#34262b" stroke-width="0.75" d="M989,-396.07C1001.71,-409.74 1019.47,-430.84 1032.59,-447.84"/>
<polygon fill="#34262b" stroke="#34262b" stroke-width="0.75" points="1029.47,-449.51 1038.29,-455.38 1035.05,-445.29 1029.47,-449.51"/>
</g>
<!-- 024&#45;&gt;034 -->
<g id="edge15" class="edge">
<title>024&#45;&gt;034</title>
<path fill="none" stroke="#34262b" stroke-width="0.75" d="M984.06,-400.68C995.11,-415.7 1012.43,-436.81 1026.58,-452.73"/>
<polygon fill="#34262b" stroke="#34262b" stroke-width="0.75" points="1023.98,-455.07 1033.29,-460.12 1029.16,-450.37 1023.98,-455.07"/>
</g>
<!-- 167117019028817 -->
<g id="node45" class="node">
<title>167117019028817</title>
</g>
<!-- 024&#45;&gt;167117019028817 -->
<g id="edge51" class="edge">
<title>024&#45;&gt;167117019028817</title>
<path fill="none" stroke="#34262b" stroke-width="0.75" d="M992.48,-390.42C1001.62,-394.09 1012.68,-398.53 1022.66,-402.54"/>
<ellipse fill="none" stroke="#34262b" stroke-width="0.75" cx="1026.67" cy="-404.15" rx="4" ry="4"/>
</g>
<!-- 161821468565730 -->
<g id="node46" class="node">
<title>161821468565730</title>
</g>
<!-- 024&#45;&gt;161821468565730 -->
<g id="edge52" class="edge">
<title>024&#45;&gt;161821468565730</title>
<path fill="none" stroke="#34262b" stroke-width="0.75" d="M992.48,-375.03C1001.62,-371.48 1012.68,-367.18 1022.66,-363.3"/>
<ellipse fill="none" stroke="#34262b" stroke-width="0.75" cx="1026.65" cy="-361.75" rx="4" ry="4"/>
</g>
<!-- 166013587439609 -->
<g id="node47" class="node">
<title>166013587439609</title>
</g>
<!-- 024&#45;&gt;166013587439609 -->
<g id="edge53" class="edge">
<title>024&#45;&gt;166013587439609</title>
<path fill="none" stroke="#34262b" stroke-width="0.75" d="M986.8,-366.33C999.1,-351.84 1017.21,-330.48 1030.94,-314.31"/>
<ellipse fill="none" stroke="#34262b" stroke-width="0.75" cx="1033.69" cy="-311.06" rx="4" ry="4"/>
</g>
<!-- 165888542179420 -->
<g id="node48" class="node">
<title>165888542179420</title>
</g>
<!-- 024&#45;&gt;165888542179420 -->
<g id="edge54" class="edge">
<title>024&#45;&gt;165888542179420</title>
<path fill="none" stroke="#34262b" stroke-width="0.75" d="M981.04,-362.65C991.22,-338.07 1009.83,-295.29 1029.6,-260.6 1030.67,-258.73 1031.82,-256.82 1033.01,-254.92"/>
<ellipse fill="none" stroke="#34262b" stroke-width="0.75" cx="1035.32" cy="-251.39" rx="4" ry="4"/>
</g>
<!-- 025&#45;&gt;024 -->
<g id="edge13" class="edge">
<title>025&#45;&gt;024</title>
<path fill="none" stroke="#34262b" stroke-width="0.75" d="M913.68,-364.04C921.81,-366.67 931.4,-369.78 940.39,-372.69"/>
<polygon fill="#34262b" stroke="#34262b" stroke-width="0.75" points="939.25,-376 949.84,-375.75 941.4,-369.34 939.25,-376"/>
</g>
<!-- 091 -->
<g id="node15" class="node">
<title>091</title>
<ellipse fill="#ffc19c" stroke="#34262b" cx="1130.4" cy="-474.6" rx="21.6" ry="21.6"/>
<text text-anchor="middle" x="1130.4" y="-466.88" font-family="Helvetica,sans-Serif" font-size="18.00" fill="#34262b">091</text>
</g>
<!-- 034&#45;&gt;091 -->
<g id="edge16" class="edge">
<title>034&#45;&gt;091</title>
<path fill="none" stroke="#34262b" stroke-width="0.75" d="M1073.3,-474.6C1080.7,-474.6 1089.19,-474.6 1097.29,-474.6"/>
<polygon fill="#34262b" stroke="#34262b" stroke-width="0.75" points="1097.2,-478.1 1107.2,-474.6 1097.2,-471.1 1097.2,-478.1"/>
</g>
<!-- 080 -->
<g id="node16" class="node">
<title>080</title>
<ellipse fill="#ffc19c" stroke="#34262b" cx="1288.8" cy="-535.6" rx="21.6" ry="21.6"/>
<text text-anchor="middle" x="1288.8" y="-527.88" font-family="Helvetica,sans-Serif" font-size="18.00" fill="#34262b">080</text>
</g>
<!-- 091&#45;&gt;080 -->
<g id="edge17" class="edge">
<title>091&#45;&gt;080</title>
<path fill="none" stroke="#34262b" stroke-width="0.75" d="M1137.53,-495.49C1145.28,-517.65 1160.99,-551.5 1188,-566.6 1211.38,-579.67 1240.98,-567.36 1261.85,-554.59"/>
<polygon fill="#34262b" stroke="#34262b" stroke-width="0.75" points="1263.64,-557.6 1270.11,-549.21 1259.82,-551.74 1263.64,-557.6"/>
</g>
<!-- 075 -->
<g id="node17" class="node">
<title>075</title>
<ellipse fill="#ffc19c" stroke="#34262b" cx="1209.6" cy="-535.6" rx="21.6" ry="21.6"/>
<text text-anchor="middle" x="1209.6" y="-527.88" font-family="Helvetica,sans-Serif" font-size="18.00" fill="#34262b">075</text>
</g>
<!-- 091&#45;&gt;075 -->
<g id="edge18" class="edge">
<title>091&#45;&gt;075</title>
<path fill="none" stroke="#34262b" stroke-width="0.75" d="M1147.77,-487.54C1158.14,-495.73 1171.76,-506.49 1183.48,-515.75"/>
<polygon fill="#34262b" stroke="#34262b" stroke-width="0.75" points="1181.08,-518.31 1191.09,-521.77 1185.42,-512.82 1181.08,-518.31"/>
</g>
<!-- 076 -->
<g id="node18" class="node">
<title>076</title>
<ellipse fill="#ffc19c" stroke="#34262b" cx="1209.6" cy="-474.6" rx="21.6" ry="21.6"/>
<text text-anchor="middle" x="1209.6" y="-466.88" font-family="Helvetica,sans-Serif" font-size="18.00" fill="#34262b">076</text>
</g>
<!-- 091&#45;&gt;076 -->
<g id="edge19" class="edge">
<title>091&#45;&gt;076</title>
<path fill="none" stroke="#34262b" stroke-width="0.75" d="M1152.5,-474.6C1159.9,-474.6 1168.39,-474.6 1176.49,-474.6"/>
<polygon fill="#34262b" stroke="#34262b" stroke-width="0.75" points="1176.4,-478.1 1186.4,-474.6 1176.4,-471.1 1176.4,-478.1"/>
</g>
<!-- 24919761524173 -->
<g id="node49" class="node">
<title>24919761524173</title>
</g>
<!-- 091&#45;&gt;24919761524173 -->
<g id="edge55" class="edge">
<title>091&#45;&gt;24919761524173</title>
<path fill="none" stroke="#34262b" stroke-width="0.75" d="M1147.77,-461.66C1158.65,-453.07 1173.1,-441.65 1185.19,-432.1"/>
<ellipse fill="none" stroke="#34262b" stroke-width="0.75" cx="1188.55" cy="-429.44" rx="4" ry="4"/>
</g>
<!-- 25101277790992 -->
<g id="node50" class="node">
<title>25101277790992</title>
</g>
<!-- 091&#45;&gt;25101277790992 -->
<g id="edge56" class="edge">
<title>091&#45;&gt;25101277790992</title>
<path fill="none" stroke="#34262b" stroke-width="0.75" d="M1142.41,-456.1C1153.62,-437.4 1171.64,-407.75 1188,-382.6 1189.18,-380.79 1190.4,-378.93 1191.65,-377.07"/>
<ellipse fill="none" stroke="#34262b" stroke-width="0.75" cx="1194.02" cy="-373.57" rx="4" ry="4"/>
</g>
<!-- 078 -->
<g id="node19" class="node">
<title>078</title>
<ellipse fill="#ffc19c" stroke="#34262b" cx="1368" cy="-596.6" rx="21.6" ry="21.6"/>
<text text-anchor="middle" x="1368" y="-588.88" font-family="Helvetica,sans-Serif" font-size="18.00" fill="#34262b">078</text>
</g>
<!-- 080&#45;&gt;078 -->
<g id="edge22" class="edge">
<title>080&#45;&gt;078</title>
<path fill="none" stroke="#34262b" stroke-width="0.75" d="M1306.17,-548.54C1316.54,-556.73 1330.16,-567.49 1341.88,-576.75"/>
<polygon fill="#34262b" stroke="#34262b" stroke-width="0.75" points="1339.48,-579.31 1349.49,-582.77 1343.82,-573.82 1339.48,-579.31"/>
</g>
<!-- 27912063284788 -->
<g id="node51" class="node">
<title>27912063284788</title>
</g>
<!-- 080&#45;&gt;27912063284788 -->
<g id="edge57" class="edge">
<title>080&#45;&gt;27912063284788</title>
<path fill="none" stroke="#34262b" stroke-width="0.75" d="M1310.9,-535.6C1319.07,-535.6 1328.56,-535.6 1337.39,-535.6"/>
<ellipse fill="none" stroke="#34262b" stroke-width="0.75" cx="1341.56" cy="-535.6" rx="4" ry="4"/>
</g>
<!-- 18257904005745 -->
<g id="node52" class="node">
<title>18257904005745</title>
</g>
<!-- 080&#45;&gt;18257904005745 -->
<g id="edge58" class="edge">
<title>080&#45;&gt;18257904005745</title>
<path fill="none" stroke="#34262b" stroke-width="0.75" d="M1306.17,-522.66C1317.05,-514.07 1331.5,-502.65 1343.59,-493.1"/>
<ellipse fill="none" stroke="#34262b" stroke-width="0.75" cx="1346.95" cy="-490.44" rx="4" ry="4"/>
</g>
<!-- 075&#45;&gt;080 -->
<g id="edge20" class="edge">
<title>075&#45;&gt;080</title>
<path fill="none" stroke="#34262b" stroke-width="0.75" d="M1231.7,-535.6C1239.1,-535.6 1247.59,-535.6 1255.69,-535.6"/>
<polygon fill="#34262b" stroke="#34262b" stroke-width="0.75" points="1255.6,-539.1 1265.6,-535.6 1255.6,-532.1 1255.6,-539.1"/>
</g>
<!-- 076&#45;&gt;080 -->
<g id="edge21" class="edge">
<title>076&#45;&gt;080</title>
<path fill="none" stroke="#34262b" stroke-width="0.75" d="M1226.97,-487.54C1237.34,-495.73 1250.96,-506.49 1262.68,-515.75"/>
<polygon fill="#34262b" stroke="#34262b" stroke-width="0.75" points="1260.28,-518.31 1270.29,-521.77 1264.62,-512.82 1260.28,-518.31"/>
</g>
<!-- 010 -->
<g id="node20" class="node">
<title>010</title>
<ellipse fill="#ffc19c" stroke="#34262b" cx="1447.2" cy="-687.6" rx="21.6" ry="21.6"/>
<text text-anchor="middle" x="1447.2" y="-679.88" font-family="Helvetica,sans-Serif" font-size="18.00" fill="#34262b">010</text>
</g>
<!-- 078&#45;&gt;010 -->
<g id="edge23" class="edge">
<title>078&#45;&gt;010</title>
<path fill="none" stroke="#34262b" stroke-width="0.75" d="M1382.8,-612.87C1394.66,-626.84 1411.93,-647.2 1425.45,-663.14"/>
<polygon fill="#34262b" stroke="#34262b" stroke-width="0.75" points="1422.65,-665.24 1431.78,-670.61 1427.98,-660.72 1422.65,-665.24"/>
</g>
<!-- 34285849060722 -->
<g id="node53" class="node">
<title>34285849060722</title>
</g>
<!-- 078&#45;&gt;34285849060722 -->
<g id="edge59" class="edge">
<title>078&#45;&gt;34285849060722</title>
<path fill="none" stroke="#34262b" stroke-width="0.75" d="M1388.48,-604.17C1397.62,-607.72 1408.68,-612.02 1418.66,-615.9"/>
<ellipse fill="none" stroke="#34262b" stroke-width="0.75" cx="1422.65" cy="-617.45" rx="4" ry="4"/>
</g>
<!-- 34285849059910 -->
<g id="node54" class="node">
<title>34285849059910</title>
</g>
<!-- 078&#45;&gt;34285849059910 -->
<g id="edge60" class="edge">
<title>078&#45;&gt;34285849059910</title>
<path fill="none" stroke="#34262b" stroke-width="0.75" d="M1388.48,-588.78C1397.62,-585.11 1408.68,-580.67 1418.66,-576.66"/>
<ellipse fill="none" stroke="#34262b" stroke-width="0.75" cx="1422.67" cy="-575.05" rx="4" ry="4"/>
</g>
<!-- 34285849061160 -->
<g id="node55" class="node">
<title>34285849061160</title>
</g>
<!-- 078&#45;&gt;34285849061160 -->
<g id="edge61" class="edge">
<title>078&#45;&gt;34285849061160</title>
<path fill="none" stroke="#34262b" stroke-width="0.75" d="M1382.45,-580.57C1394.88,-565.76 1413.48,-543.59 1427.38,-527.02"/>
<ellipse fill="none" stroke="#34262b" stroke-width="0.75" cx="1429.84" cy="-524.1" rx="4" ry="4"/>
</g>
<!-- 086 -->
<g id="node21" class="node">
<title>086</title>
<ellipse fill="#ffc19c" stroke="#34262b" cx="1526.4" cy="-687.6" rx="21.6" ry="21.6"/>
<text text-anchor="middle" x="1526.4" y="-679.88" font-family="Helvetica,sans-Serif" font-size="18.00" fill="#34262b">086</text>
</g>
<!-- 010&#45;&gt;086 -->
<g id="edge24" class="edge">
<title>010&#45;&gt;086</title>
<path fill="none" stroke="#34262b" stroke-width="0.75" d="M1469.3,-687.6C1476.7,-687.6 1485.19,-687.6 1493.29,-687.6"/>
<polygon fill="#34262b" stroke="#34262b" stroke-width="0.75" points="1493.2,-691.1 1503.2,-687.6 1493.2,-684.1 1493.2,-691.1"/>
</g>
<!-- 029 -->
<g id="node22" class="node">
<title>029</title>
<ellipse fill="#ffc19c" stroke="#34262b" cx="1605.6" cy="-687.6" rx="21.6" ry="21.6"/>
<text text-anchor="middle" x="1605.6" y="-679.88" font-family="Helvetica,sans-Serif" font-size="18.00" fill="#34262b">029</text>
</g>
<!-- 086&#45;&gt;029 -->
<g id="edge25" class="edge">
<title>086&#45;&gt;029</title>
<path fill="none" stroke="#34262b" stroke-width="0.75" d="M1548.5,-687.6C1555.9,-687.6 1564.39,-687.6 1572.49,-687.6"/>
<polygon fill="#34262b" stroke="#34262b" stroke-width="0.75" points="1572.4,-691.1 1582.4,-687.6 1572.4,-684.1 1572.4,-691.1"/>
</g>
<!-- 045 -->
<g id="node23" class="node">
<title>045</title>
<ellipse fill="#ffc19c" stroke="#34262b" cx="1684.8" cy="-687.6" rx="21.6" ry="21.6"/>
<text text-anchor="middle" x="1684.8" y="-679.88" font-family="Helvetica,sans-Serif" font-size="18.00" fill="#34262b">045</text>
</g>
<!-- 029&#45;&gt;045 -->
<g id="edge26" class="edge">
<title>029&#45;&gt;045</title>
<path fill="none" stroke="#34262b" stroke-width="0.75" d="M1626.48,-681.61C1634.52,-680.9 1643.99,-680.69 1652.9,-680.97"/>
<polygon fill="#34262b" stroke="#34262b" stroke-width="0.75" points="1652.4,-684.45 1662.58,-681.53 1652.8,-677.46 1652.4,-684.45"/>
</g>
<!-- 029&#45;&gt;045 -->
<g id="edge27" class="edge">
<title>029&#45;&gt;045</title>
<path fill="none" stroke="#34262b" stroke-width="0.75" d="M1626.48,-693.59C1634.52,-694.3 1643.99,-694.51 1652.9,-694.23"/>
<polygon fill="#34262b" stroke="#34262b" stroke-width="0.75" points="1652.8,-697.74 1662.58,-693.67 1652.4,-690.75 1652.8,-697.74"/>
</g>
<!-- 012 -->
<g id="node24" class="node">
<title>012</title>
<ellipse fill="#ffc19c" stroke="#34262b" cx="1764" cy="-748.6" rx="21.6" ry="21.6"/>
<text text-anchor="middle" x="1764" y="-740.88" font-family="Helvetica,sans-Serif" font-size="18.00" fill="#34262b">012</text>
</g>
<!-- 045&#45;&gt;012 -->
<g id="edge28" class="edge">
<title>045&#45;&gt;012</title>
<path fill="none" stroke="#34262b" stroke-width="0.75" d="M1702.17,-700.54C1712.54,-708.73 1726.16,-719.49 1737.88,-728.75"/>
<polygon fill="#34262b" stroke="#34262b" stroke-width="0.75" points="1735.48,-731.31 1745.49,-734.77 1739.82,-725.82 1735.48,-731.31"/>
</g>
<!-- 238466580765852 -->
<g id="node56" class="node">
<title>238466580765852</title>
</g>
<!-- 045&#45;&gt;238466580765852 -->
<g id="edge62" class="edge">
<title>045&#45;&gt;238466580765852</title>
<path fill="none" stroke="#34262b" stroke-width="0.75" d="M1706.9,-687.6C1715.07,-687.6 1724.56,-687.6 1733.39,-687.6"/>
<ellipse fill="none" stroke="#34262b" stroke-width="0.75" cx="1737.56" cy="-687.6" rx="4" ry="4"/>
</g>
<!-- 218198158603602 -->
<g id="node57" class="node">
<title>218198158603602</title>
</g>
<!-- 045&#45;&gt;218198158603602 -->
<g id="edge63" class="edge">
<title>045&#45;&gt;218198158603602</title>
<path fill="none" stroke="#34262b" stroke-width="0.75" d="M1702.17,-674.66C1713.05,-666.07 1727.5,-654.65 1739.59,-645.1"/>
<ellipse fill="none" stroke="#34262b" stroke-width="0.75" cx="1742.95" cy="-642.44" rx="4" ry="4"/>
</g>
<!-- 032 -->
<g id="node25" class="node">
<title>032</title>
<ellipse fill="#ffc19c" stroke="#34262b" cx="1843.2" cy="-748.6" rx="21.6" ry="21.6"/>
<text text-anchor="middle" x="1843.2" y="-740.88" font-family="Helvetica,sans-Serif" font-size="18.00" fill="#34262b">032</text>
</g>
<!-- 012&#45;&gt;032 -->
<g id="edge29" class="edge">
<title>012&#45;&gt;032</title>
<path fill="none" stroke="#34262b" stroke-width="0.75" d="M1786.1,-748.6C1793.5,-748.6 1801.99,-748.6 1810.09,-748.6"/>
<polygon fill="#34262b" stroke="#34262b" stroke-width="0.75" points="1810,-752.1 1820,-748.6 1810,-745.1 1810,-752.1"/>
</g>
<!-- 036 -->
<g id="node26" class="node">
<title>036</title>
<ellipse fill="#ffc19c" stroke="#34262b" cx="1922.4" cy="-840.6" rx="21.6" ry="21.6"/>
<text text-anchor="middle" x="1922.4" y="-832.88" font-family="Helvetica,sans-Serif" font-size="18.00" fill="#34262b">036</text>
</g>
<!-- 032&#45;&gt;036 -->
<g id="edge30" class="edge">
<title>032&#45;&gt;036</title>
<path fill="none" stroke="#34262b" stroke-width="0.75" d="M1857.65,-764.63C1869.53,-778.79 1887.05,-799.66 1900.71,-815.95"/>
<polygon fill="#34262b" stroke="#34262b" stroke-width="0.75" points="1898.01,-818.17 1907.12,-823.58 1903.37,-813.67 1898.01,-818.17"/>
</g>
<!-- 40325190811833 -->
<g id="node58" class="node">
<title>40325190811833</title>
</g>
<!-- 032&#45;&gt;40325190811833 -->
<g id="edge64" class="edge">
<title>032&#45;&gt;40325190811833</title>
<path fill="none" stroke="#34262b" stroke-width="0.75" d="M1863.68,-756.42C1872.82,-760.09 1883.88,-764.53 1893.86,-768.54"/>
<ellipse fill="none" stroke="#34262b" stroke-width="0.75" cx="1897.87" cy="-770.15" rx="4" ry="4"/>
</g>
<!-- 40259238245673 -->
<g id="node59" class="node">
<title>40259238245673</title>
</g>
<!-- 032&#45;&gt;40259238245673 -->
<g id="edge65" class="edge">
<title>032&#45;&gt;40259238245673</title>
<path fill="none" stroke="#34262b" stroke-width="0.75" d="M1863.68,-741.03C1872.82,-737.48 1883.88,-733.18 1893.86,-729.3"/>
<ellipse fill="none" stroke="#34262b" stroke-width="0.75" cx="1897.85" cy="-727.75" rx="4" ry="4"/>
</g>
<!-- 39678966017348 -->
<g id="node60" class="node">
<title>39678966017348</title>
</g>
<!-- 032&#45;&gt;39678966017348 -->
<g id="edge66" class="edge">
<title>032&#45;&gt;39678966017348</title>
<path fill="none" stroke="#34262b" stroke-width="0.75" d="M1858,-732.33C1870.3,-717.84 1888.41,-696.48 1902.14,-680.31"/>
<ellipse fill="none" stroke="#34262b" stroke-width="0.75" cx="1904.89" cy="-677.06" rx="4" ry="4"/>
</g>
<!-- 035 -->
<g id="node27" class="node">
<title>035</title>
<ellipse fill="#ffc19c" stroke="#34262b" cx="2001.6" cy="-901.6" rx="21.6" ry="21.6"/>
<text text-anchor="middle" x="2001.6" y="-893.88" font-family="Helvetica,sans-Serif" font-size="18.00" fill="#34262b">035</text>
</g>
<!-- 036&#45;&gt;035 -->
<g id="edge31" class="edge">
<title>036&#45;&gt;035</title>
<path fill="none" stroke="#34262b" stroke-width="0.75" d="M1939.77,-853.54C1950.14,-861.73 1963.76,-872.49 1975.48,-881.75"/>
<polygon fill="#34262b" stroke="#34262b" stroke-width="0.75" points="1973.08,-884.31 1983.09,-887.77 1977.42,-878.82 1973.08,-884.31"/>
</g>
<!-- 128655226577199 -->
<g id="node61" class="node">
<title>128655226577199</title>
</g>
<!-- 036&#45;&gt;128655226577199 -->
<g id="edge67" class="edge">
<title>036&#45;&gt;128655226577199</title>
<path fill="none" stroke="#34262b" stroke-width="0.75" d="M1944.5,-840.6C1952.67,-840.6 1962.16,-840.6 1970.99,-840.6"/>
<ellipse fill="none" stroke="#34262b" stroke-width="0.75" cx="1975.16" cy="-840.6" rx="4" ry="4"/>
</g>
<!-- 136221754469805 -->
<g id="node62" class="node">
<title>136221754469805</title>
</g>
<!-- 036&#45;&gt;136221754469805 -->
<g id="edge68" class="edge">
<title>036&#45;&gt;136221754469805</title>
<path fill="none" stroke="#34262b" stroke-width="0.75" d="M1939.77,-827.66C1950.65,-819.07 1965.1,-807.65 1977.19,-798.1"/>
<ellipse fill="none" stroke="#34262b" stroke-width="0.75" cx="1980.55" cy="-795.44" rx="4" ry="4"/>
</g>
<!-- 046 -->
<g id="node28" class="node">
<title>046</title>
<ellipse fill="#ffc19c" stroke="#34262b" cx="2080.8" cy="-901.6" rx="21.6" ry="21.6"/>
<text text-anchor="middle" x="2080.8" y="-893.88" font-family="Helvetica,sans-Serif" font-size="18.00" fill="#34262b">046</text>
</g>
<!-- 035&#45;&gt;046 -->
<g id="edge32" class="edge">
<title>035&#45;&gt;046</title>
<path fill="none" stroke="#34262b" stroke-width="0.75" d="M2023.7,-901.6C2031.1,-901.6 2039.59,-901.6 2047.69,-901.6"/>
<polygon fill="#34262b" stroke="#34262b" stroke-width="0.75" points="2047.6,-905.1 2057.6,-901.6 2047.6,-898.1 2047.6,-905.1"/>
</g>
<!-- 071 -->
<g id="node29" class="node">
<title>071</title>
<ellipse fill="#ffc19c" stroke="#34262b" cx="2160" cy="-932.6" rx="21.6" ry="21.6"/>
<text text-anchor="middle" x="2160" y="-924.88" font-family="Helvetica,sans-Serif" font-size="18.00" fill="#34262b">071</text>
</g>
<!-- 046&#45;&gt;071 -->
<g id="edge33" class="edge">
<title>046&#45;&gt;071</title>
<path fill="none" stroke="#34262b" stroke-width="0.75" d="M2101.28,-909.42C2109.78,-912.84 2119.94,-916.92 2129.35,-920.69"/>
<polygon fill="#34262b" stroke="#34262b" stroke-width="0.75" points="2127.89,-923.88 2138.47,-924.36 2130.5,-917.38 2127.89,-923.88"/>
</g>
<!-- 204071674029542 -->
<g id="node63" class="node">
<title>204071674029542</title>
</g>
<!-- 046&#45;&gt;204071674029542 -->
<g id="edge69" class="edge">
<title>046&#45;&gt;204071674029542</title>
<path fill="none" stroke="#34262b" stroke-width="0.75" d="M2101.28,-894.03C2110.42,-890.48 2121.48,-886.18 2131.46,-882.3"/>
<ellipse fill="none" stroke="#34262b" stroke-width="0.75" cx="2135.45" cy="-880.75" rx="4" ry="4"/>
</g>
<!-- 018 -->
<g id="node30" class="node">
<title>018</title>
<ellipse fill="#ffc19c" stroke="#34262b" cx="2239.2" cy="-932.6" rx="21.6" ry="21.6"/>
<text text-anchor="middle" x="2239.2" y="-924.88" font-family="Helvetica,sans-Serif" font-size="18.00" fill="#34262b">018</text>
</g>
<!-- 071&#45;&gt;018 -->
<g id="edge34" class="edge">
<title>071&#45;&gt;018</title>
<path fill="none" stroke="#34262b" stroke-width="0.75" d="M2182.1,-932.6C2189.5,-932.6 2197.99,-932.6 2206.09,-932.6"/>
<polygon fill="#34262b" stroke="#34262b" stroke-width="0.75" points="2206,-936.1 2216,-932.6 2206,-929.1 2206,-936.1"/>
</g>
<!-- 004 -->
<g id="node31" class="node">
<title>004</title>
<ellipse fill="#ffc19c" stroke="#34262b" cx="2318.4" cy="-932.6" rx="21.6" ry="21.6"/>
<text text-anchor="middle" x="2318.4" y="-924.88" font-family="Helvetica,sans-Serif" font-size="18.00" fill="#34262b">004</text>
</g>
<!-- 018&#45;&gt;004 -->
<g id="edge35" class="edge">
<title>018&#45;&gt;004</title>
<path fill="none" stroke="#34262b" stroke-width="0.75" d="M2261.3,-932.6C2268.7,-932.6 2277.19,-932.6 2285.29,-932.6"/>
<polygon fill="#34262b" stroke="#34262b" stroke-width="0.75" points="2285.2,-936.1 2295.2,-932.6 2285.2,-929.1 2285.2,-936.1"/>
</g>
<!-- 051 -->
<g id="node32" class="node">
<title>051</title>
<ellipse fill="#ffc19c" stroke="#34262b" cx="2397.6" cy="-963.6" rx="21.6" ry="21.6"/>
<text text-anchor="middle" x="2397.6" y="-955.88" font-family="Helvetica,sans-Serif" font-size="18.00" fill="#34262b">051</text>
</g>
<!-- 004&#45;&gt;051 -->
<g id="edge36" class="edge">
<title>004&#45;&gt;051</title>
<path fill="none" stroke="#34262b" stroke-width="0.75" d="M2338.88,-940.42C2347.38,-943.84 2357.54,-947.92 2366.95,-951.69"/>
<polygon fill="#34262b" stroke="#34262b" stroke-width="0.75" points="2365.49,-954.88 2376.07,-955.36 2368.1,-948.38 2365.49,-954.88"/>
</g>
<!-- 66098661366712 -->
<g id="node64" class="node">
<title>66098661366712</title>
</g>
<!-- 004&#45;&gt;66098661366712 -->
<g id="edge70" class="edge">
<title>004&#45;&gt;66098661366712</title>
<path fill="none" stroke="#34262b" stroke-width="0.75" d="M2338.88,-925.03C2348.02,-921.48 2359.08,-917.18 2369.06,-913.3"/>
<ellipse fill="none" stroke="#34262b" stroke-width="0.75" cx="2373.05" cy="-911.75" rx="4" ry="4"/>
</g>
<!-- 051&#45;&gt;049 -->
<g id="edge39" class="edge">
<title>051&#45;&gt;049</title>
<path fill="none" stroke="#34262b" stroke-width="0.75" d="M2415.49,-975.79C2426.27,-982.81 2440.87,-990.93 2455.2,-994.6 2487.65,-1002.9 2524.95,-990.55 2550.01,-979.06"/>
<polygon fill="#34262b" stroke="#34262b" stroke-width="0.75" points="2551.46,-982.25 2558.94,-974.75 2548.41,-975.95 2551.46,-982.25"/>
</g>
<!-- 052 -->
<g id="node33" class="node">
<title>052</title>
<ellipse fill="#ffc19c" stroke="#34262b" cx="2476.8" cy="-963.6" rx="21.6" ry="21.6"/>
<text text-anchor="middle" x="2476.8" y="-955.88" font-family="Helvetica,sans-Serif" font-size="18.00" fill="#34262b">052</text>
</g>
<!-- 051&#45;&gt;052 -->
<g id="edge37" class="edge">
<title>051&#45;&gt;052</title>
<path fill="none" stroke="#34262b" stroke-width="0.75" d="M2419.7,-963.6C2427.1,-963.6 2435.59,-963.6 2443.69,-963.6"/>
<polygon fill="#34262b" stroke="#34262b" stroke-width="0.75" points="2443.6,-967.1 2453.6,-963.6 2443.6,-960.1 2443.6,-967.1"/>
</g>
<!-- 053 -->
<g id="node34" class="node">
<title>053</title>
<ellipse fill="#ffc19c" stroke="#34262b" cx="2476.8" cy="-902.6" rx="21.6" ry="21.6"/>
<text text-anchor="middle" x="2476.8" y="-894.88" font-family="Helvetica,sans-Serif" font-size="18.00" fill="#34262b">053</text>
</g>
<!-- 051&#45;&gt;053 -->
<g id="edge38" class="edge">
<title>051&#45;&gt;053</title>
<path fill="none" stroke="#34262b" stroke-width="0.75" d="M2414.97,-950.66C2425.34,-942.47 2438.96,-931.71 2450.68,-922.45"/>
<polygon fill="#34262b" stroke="#34262b" stroke-width="0.75" points="2452.62,-925.38 2458.29,-916.43 2448.28,-919.89 2452.62,-925.38"/>
</g>
<!-- 052&#45;&gt;049 -->
<g id="edge40" class="edge">
<title>052&#45;&gt;049</title>
<path fill="none" stroke="#34262b" stroke-width="0.75" d="M2498.73,-963.6C2509.84,-963.6 2523.89,-963.6 2537.12,-963.6"/>
<polygon fill="#34262b" stroke="#34262b" stroke-width="0.75" points="2536.81,-967.1 2546.81,-963.6 2536.81,-960.1 2536.81,-967.1"/>
</g>
<!-- 053&#45;&gt;049 -->
<g id="edge41" class="edge">
<title>053&#45;&gt;049</title>
<path fill="none" stroke="#34262b" stroke-width="0.75" d="M2495.86,-913.51C2511.66,-923.05 2534.81,-937.03 2552.65,-947.79"/>
<polygon fill="#34262b" stroke="#34262b" stroke-width="0.75" points="2550.59,-950.64 2560.95,-952.81 2554.2,-944.65 2550.59,-950.64"/>
</g>
<!-- 042 -->
<g id="node35" class="node">
<title>042</title>
<ellipse fill="#dbde92" stroke="#34262b" cx="21.6" cy="-112.6" rx="21.6" ry="21.6"/>
<text text-anchor="middle" x="21.6" y="-104.88" font-family="Helvetica,sans-Serif" font-size="18.00" fill="#34262b">042</text>
</g>
<!-- 042&#45;&gt;002 -->
<g id="edge1" class="edge">
<title>042&#45;&gt;002</title>
<path fill="none" stroke="#34262b" stroke-width="0.75" d="M43.7,-112.6C51.1,-112.6 59.59,-112.6 67.69,-112.6"/>
<polygon fill="#34262b" stroke="#34262b" stroke-width="0.75" points="67.6,-116.1 77.6,-112.6 67.6,-109.1 67.6,-116.1"/>
</g>
</g>
</svg>
